<svg width="40" height="40" viewBox="0 0 40 40" fill="none" xmlns="http://www.w3.org/2000/svg">
<g style="mix-blend-mode:darken">
<rect width="4" height="4" fill="#7770C3"/>
<rect x="4" width="4" height="4" fill="#F6686D"/>
<rect x="8" width="4" height="4" fill="#B96C97"/>
<rect x="12" width="4" height="4" fill="#936EB0"/>
<rect x="16" width="4" height="4" fill="#AB6DA0"/>
<rect x="20" width="4" height="4" fill="#5373DB"/>
<rect x="24" width="4" height="4" fill="#E76977"/>
<rect x="28" width="4" height="4" fill="#F26870"/>
<rect x="32" width="4" height="4" fill="#D76A82"/>
<rect x="36" width="4" height="4" fill="#B26C9B"/>
<rect y="4" width="4" height="4" fill="#A36DA6"/>
<rect x="4" y="4" width="4" height="4" fill="#E96976"/>
<rect x="8" y="4" width="4" height="4" fill="#8270BC"/>
<rect x="12" y="4" width="4" height="4" fill="#5173DD"/>
<rect x="16" y="4" width="4" height="4" fill="#7970C2"/>
<rect x="20" y="4" width="4" height="4" fill="#7770C3"/>
<rect x="24" y="4" width="4" height="4" fill="#BF6B92"/>
<rect x="28" y="4" width="4" height="4" fill="#C46B8F"/>
<rect x="32" y="4" width="4" height="4" fill="#B06C9D"/>
<rect x="36" y="4" width="4" height="4" fill="#BD6C94"/>
<rect y="8" width="4" height="4" fill="#AB6DA0"/>
<rect x="4" y="8" width="4" height="4" fill="#9E6EA9"/>
<rect x="8" y="8" width="4" height="4" fill="#3D74EA"/>
<rect x="12" y="8" width="4" height="4" fill="#D56A83"/>
<rect x="16" y="8" width="4" height="4" fill="#DE697D"/>
<rect x="20" y="8" width="4" height="4" fill="#3D74EA"/>
<rect x="24" y="8" width="4" height="4" fill="#F4686E"/>
<rect x="28" y="8" width="4" height="4" fill="#5872D8"/>
<rect x="32" y="8" width="4" height="4" fill="#A56DA4"/>
<rect x="36" y="8" width="4" height="4" fill="#6372D1"/>
<rect y="12" width="4" height="4" fill="#7D70BF"/>
<rect x="4" y="12" width="4" height="4" fill="#3075F3"/>
<rect x="8" y="12" width="4" height="4" fill="#4F73DE"/>
<rect x="12" y="12" width="4" height="4" fill="#B46C9A"/>
<rect x="16" y="12" width="4" height="4" fill="#F6686D"/>
<rect x="20" y="12" width="4" height="4" fill="#F26870"/>
<rect x="24" y="12" width="4" height="4" fill="#EB6874"/>
<rect x="28" y="12" width="4" height="4" fill="#3575F0"/>
<rect x="32" y="12" width="4" height="4" fill="#5A72D7"/>
<rect x="36" y="12" width="4" height="4" fill="#B66C98"/>
<rect y="16" width="4" height="4" fill="#CA6B8B"/>
<rect x="4" y="16" width="4" height="4" fill="#E76977"/>
<rect x="8" y="16" width="4" height="4" fill="#5673DA"/>
<rect x="12" y="16" width="4" height="4" fill="#7970C2"/>
<rect x="16" y="16" width="4" height="4" fill="#3075F3"/>
<rect x="20" y="16" width="4" height="4" fill="#7B70C0"/>
<rect x="24" y="16" width="4" height="4" fill="#3275F2"/>
<rect x="28" y="16" width="4" height="4" fill="#7D70BF"/>
<rect x="32" y="16" width="4" height="4" fill="#E76977"/>
<rect x="36" y="16" width="4" height="4" fill="#A76DA3"/>
<rect y="20" width="4" height="4" fill="#A56DA4"/>
<rect x="4" y="20" width="4" height="4" fill="#AE6D9E"/>
<rect x="8" y="20" width="4" height="4" fill="#AE6D9E"/>
<rect x="12" y="20" width="4" height="4" fill="#3B74EC"/>
<rect x="16" y="20" width="4" height="4" fill="#B26C9B"/>
<rect x="20" y="20" width="4" height="4" fill="#8F6FB3"/>
<rect x="24" y="20" width="4" height="4" fill="#6971CC"/>
<rect x="28" y="20" width="4" height="4" fill="#A56DA4"/>
<rect x="32" y="20" width="4" height="4" fill="#9C6EAA"/>
<rect x="36" y="20" width="4" height="4" fill="#CF6A88"/>
<rect y="24" width="4" height="4" fill="#2A76F8"/>
<rect x="4" y="24" width="4" height="4" fill="#3275F2"/>
<rect x="8" y="24" width="4" height="4" fill="#D76A82"/>
<rect x="12" y="24" width="4" height="4" fill="#3D74EA"/>
<rect x="16" y="24" width="4" height="4" fill="#A56DA4"/>
<rect x="20" y="24" width="4" height="4" fill="#D36A85"/>
<rect x="24" y="24" width="4" height="4" fill="#3275F2"/>
<rect x="28" y="24" width="4" height="4" fill="#FF6767"/>
<rect x="32" y="24" width="4" height="4" fill="#5173DD"/>
<rect x="36" y="24" width="4" height="4" fill="#4674E4"/>
<rect y="28" width="4" height="4" fill="#E96976"/>
<rect x="4" y="28" width="4" height="4" fill="#D16A86"/>
<rect x="8" y="28" width="4" height="4" fill="#4873E3"/>
<rect x="12" y="28" width="4" height="4" fill="#4D73E0"/>
<rect x="16" y="28" width="4" height="4" fill="#BF6B92"/>
<rect x="20" y="28" width="4" height="4" fill="#866FB9"/>
<rect x="24" y="28" width="4" height="4" fill="#D56A83"/>
<rect x="28" y="28" width="4" height="4" fill="#DA6A80"/>
<rect x="32" y="28" width="4" height="4" fill="#E0697C"/>
<rect x="36" y="28" width="4" height="4" fill="#EB6874"/>
<rect y="32" width="4" height="4" fill="#DE697D"/>
<rect x="4" y="32" width="4" height="4" fill="#4674E4"/>
<rect x="8" y="32" width="4" height="4" fill="#2776F9"/>
<rect x="12" y="32" width="4" height="4" fill="#8270BC"/>
<rect x="16" y="32" width="4" height="4" fill="#6771CE"/>
<rect x="20" y="32" width="4" height="4" fill="#2776F9"/>
<rect x="24" y="32" width="4" height="4" fill="#5E72D4"/>
<rect x="28" y="32" width="4" height="4" fill="#F6686D"/>
<rect x="32" y="32" width="4" height="4" fill="#5872D8"/>
<rect x="36" y="32" width="4" height="4" fill="#F06871"/>
<rect y="36" width="4" height="4" fill="#8270BC"/>
<rect x="4" y="36" width="4" height="4" fill="#5872D8"/>
<rect x="8" y="36" width="4" height="4" fill="#D36A85"/>
<rect x="12" y="36" width="4" height="4" fill="#6572CF"/>
<rect x="16" y="36" width="4" height="4" fill="#4B73E1"/>
<rect x="20" y="36" width="4" height="4" fill="#846FBA"/>
<rect x="24" y="36" width="4" height="4" fill="#A36DA6"/>
<rect x="28" y="36" width="4" height="4" fill="#B46C9A"/>
<rect x="32" y="36" width="4" height="4" fill="#3B74EC"/>
<rect x="36" y="36" width="4" height="4" fill="#846FBA"/>
</g>
</svg>
