<svg width="16" height="16" viewBox="0 0 16 16" fill="none" xmlns="http://www.w3.org/2000/svg">
<path d="M1.33203 6.00065V4.33398C1.33203 2.67398 2.67203 1.33398 4.33203 1.33398H5.9987" stroke="#7F8C9F" stroke-linecap="round" stroke-linejoin="round"/>
<path d="M10 1.33398H11.6667C13.3267 1.33398 14.6667 2.67398 14.6667 4.33398V6.00065" stroke="#7F8C9F" stroke-linecap="round" stroke-linejoin="round"/>
<path d="M14.668 10.666V11.666C14.668 13.326 13.328 14.666 11.668 14.666H10.668" stroke="#7F8C9F" stroke-linecap="round" stroke-linejoin="round"/>
<path d="M5.9987 14.6667H4.33203C2.67203 14.6667 1.33203 13.3267 1.33203 11.6667V10" stroke="#7F8C9F" stroke-linecap="round" stroke-linejoin="round"/>
<path d="M11.3346 6.33398V9.66732C11.3346 11.0007 10.668 11.6673 9.33464 11.6673H6.66797C5.33464 11.6673 4.66797 11.0007 4.66797 9.66732V6.33398C4.66797 5.00065 5.33464 4.33398 6.66797 4.33398H9.33464C10.668 4.33398 11.3346 5.00065 11.3346 6.33398Z" stroke="#7F8C9F" stroke-linecap="round" stroke-linejoin="round"/>
<path d="M12.6654 8H3.33203" stroke="#7F8C9F" stroke-linecap="round" stroke-linejoin="round"/>
</svg>
