<svg width="24" height="24" viewBox="0 0 24 24" fill="none" xmlns="http://www.w3.org/2000/svg">
<g clip-path="url(#clip0_1048_71013)">
<path d="M12 24C18.6274 24 24 18.6274 24 12C24 5.37258 18.6274 0 12 0C5.37258 0 0 5.37258 0 12C0 18.6274 5.37258 24 12 24Z" fill="#26A17B"/>
<path fill-rule="evenodd" clip-rule="evenodd" d="M13.4431 13.0373V13.0358C13.3606 13.0418 12.9353 13.0673 11.9866 13.0673C11.2291 13.0673 10.6958 13.0448 10.5083 13.0358V13.038C7.59231 12.9098 5.41581 12.402 5.41581 11.7945C5.41581 11.1878 7.59231 10.68 10.5083 10.5495V12.5325C10.6988 12.546 11.2448 12.5783 11.9993 12.5783C12.9046 12.5783 13.3583 12.5408 13.4431 12.5333V10.551C16.3531 10.6808 18.5243 11.1885 18.5243 11.7945C18.5243 12.402 16.3531 12.9083 13.4431 13.0373ZM13.4431 10.3448V8.57026H17.5036V5.86426H6.44781V8.57026H10.5083V10.344C7.20831 10.4955 4.72656 11.1495 4.72656 11.9325C4.72656 12.7155 7.20831 13.3688 10.5083 13.521V19.2075H13.4431V13.5195C16.7378 13.368 19.2136 12.7148 19.2136 11.9325C19.2136 11.1503 16.7378 10.497 13.4431 10.3448Z" fill="white"/>
</g>
<defs>
<clipPath id="clip0_1048_71013">
<rect width="24" height="24" fill="white"/>
</clipPath>
</defs>
</svg>
