<svg width="128" height="108" viewBox="0 0 128 108" fill="none" xmlns="http://www.w3.org/2000/svg">
<path d="M61.8056 1.48438L58.9649 19.2918H40.5056L61.8056 1.48438Z" fill="#CEB1E7"/>
<path d="M58.9649 19.7084H40.5056C40.3297 19.7084 40.1741 19.5991 40.113 19.4343C40.0538 19.2695 40.1038 19.0843 40.2371 18.9732L61.5371 1.16396C61.6704 1.05285 61.8593 1.03619 62.0093 1.12137C62.1612 1.20656 62.2427 1.37693 62.2149 1.54915L59.3741 19.3584C59.3445 19.5603 59.1704 19.7084 58.9649 19.7084ZM41.6538 18.8751H58.6093L61.2186 2.51767L41.6538 18.8751Z" fill="#F5F6F7"/>
<path d="M63.5074 34.9609C63.3796 34.9609 63.2518 34.9016 63.1703 34.7905L62.0462 33.2572C61.9203 33.0849 61.9444 32.8442 62.1036 32.6997C62.2629 32.5572 62.5055 32.5572 62.6629 32.7035C62.6703 32.7109 62.6796 32.7183 62.687 32.7275C62.6944 32.7349 62.7018 32.7442 62.7073 32.7516C62.7259 32.7738 62.7462 32.8035 62.7666 32.8312L63.8425 34.2979C63.9777 34.4831 63.9388 34.7442 63.7536 34.8794C63.6796 34.9349 63.5944 34.9609 63.5074 34.9609Z" fill="#F5F6F7"/>
<mask id="mask0_704_24917" style="mask-type:luminance" maskUnits="userSpaceOnUse" x="61" y="32" width="3" height="3">
<path d="M63.5074 34.9609C63.3796 34.9609 63.2518 34.9016 63.1703 34.7905L62.0462 33.2572C61.9203 33.0849 61.9444 32.8442 62.1036 32.6997C62.2629 32.5572 62.5055 32.5572 62.6629 32.7035C62.6703 32.7109 62.6796 32.7183 62.687 32.7275C62.6944 32.7349 62.7018 32.7442 62.7073 32.7516C62.7259 32.7738 62.7462 32.8035 62.7666 32.8312L63.8425 34.2979C63.9777 34.4831 63.9388 34.7442 63.7536 34.8794C63.6796 34.9349 63.5944 34.9609 63.5074 34.9609Z" fill="white"/>
</mask>
<g mask="url(#mask0_704_24917)">
<path d="M63.2722 34.12L67.9426 40.4867C67.6648 40.107 67.3685 39.7385 67.0537 39.3793C63.6 35.4441 58.5648 33.4756 53.2166 33.4756C50.8963 33.4756 48.5185 33.8459 46.1833 34.5867L41.5129 28.22C43.8481 27.4793 46.2259 27.1089 48.5463 27.1089C53.8944 27.1089 58.9296 29.0774 62.3833 33.0126C62.6981 33.3719 62.9944 33.7404 63.2722 34.12Z" fill="#5E2A8C"/>
<path d="M67.9424 40.903C67.8146 40.903 67.6869 40.8437 67.6054 40.7326C67.335 40.3623 67.0424 39.9993 66.7387 39.653C63.4776 35.9382 58.6758 33.8919 53.2146 33.8919C50.9128 33.8919 48.5906 34.2586 46.3072 34.9826C46.1369 35.0363 45.9517 34.9752 45.8443 34.8326L41.1739 28.466C41.0943 28.3586 41.0721 28.2178 41.1146 28.09C41.1554 27.9623 41.2572 27.8623 41.385 27.8215C43.7498 27.0715 46.1572 26.6919 48.5443 26.6919C54.248 26.6919 59.2739 28.8382 62.6943 32.7363C63.0146 33.1012 63.3202 33.4845 63.6072 33.8734L68.2739 40.2363C68.2758 40.2382 68.2757 40.24 68.2776 40.24C68.4128 40.4252 68.3739 40.6863 68.1887 40.8234C68.1146 40.8771 68.0295 40.903 67.9424 40.903ZM53.2165 33.0586C57.4924 33.0586 61.3869 34.266 64.5109 36.5123L62.9369 34.366C62.6665 33.9956 62.3739 33.6326 62.0702 33.2863C58.8091 29.5715 54.0072 27.5252 48.5461 27.5252C46.4313 27.5252 44.298 27.8345 42.1961 28.4475L46.3424 34.1012C48.6146 33.4086 50.9258 33.0586 53.2165 33.0586Z" fill="#F5F6F7"/>
</g>
<path d="M38.8056 63.531C38.6908 63.531 38.5778 63.4847 38.4945 63.3921L38.4297 63.318C38.2149 63.0717 38.0093 62.8162 37.8186 62.5569L33.1482 56.1902C33.013 56.0051 33.0519 55.744 33.2371 55.6088C33.4223 55.4736 33.6834 55.5125 33.8204 55.6977L33.8241 55.7032C34 55.9421 34.1889 56.1773 34.3871 56.4032L34.4463 56.4699C34.4556 56.481 34.4649 56.4902 34.4723 56.5013L39.1426 62.868C39.2741 63.0476 39.2426 63.2976 39.0686 63.4384C38.9908 63.5013 38.8963 63.531 38.8056 63.531Z" fill="#F5F6F7"/>
<mask id="mask1_704_24917" style="mask-type:luminance" maskUnits="userSpaceOnUse" x="33" y="55" width="7" height="9">
<path d="M38.8056 63.531C38.6908 63.531 38.5778 63.4847 38.4945 63.3921L38.4297 63.318C38.2149 63.0717 38.0093 62.8162 37.8186 62.5569L33.1482 56.1902C33.013 56.0051 33.0519 55.744 33.2371 55.6088C33.4223 55.4736 33.6834 55.5125 33.8204 55.6977L33.8241 55.7032C34 55.9421 34.1889 56.1773 34.3871 56.4032L34.4463 56.4699C34.4556 56.481 34.4649 56.4902 34.4723 56.5013L39.1426 62.868C39.2741 63.0476 39.2426 63.2976 39.0686 63.4384C38.9908 63.5013 38.8963 63.531 38.8056 63.531Z" fill="white"/>
</mask>
<g mask="url(#mask1_704_24917)">
<g opacity="0.6">
<path d="M34.4741 57.11L39.1445 63.4767C39.0075 63.3359 38.8723 63.1915 38.7427 63.0433C38.5334 62.8063 38.3371 62.56 38.1538 62.31L33.4834 55.9434C33.6667 56.1934 33.863 56.4396 34.0723 56.6767C34.2019 56.8248 34.3371 56.9693 34.4741 57.11Z" fill="#5E2A8C"/>
<path d="M39.1441 63.8939C39.0349 63.8939 38.9275 63.8513 38.846 63.768C38.7015 63.6217 38.5608 63.4699 38.4275 63.318C38.2127 63.0736 38.0071 62.818 37.8164 62.5569L33.146 56.1902C33.0108 56.0051 33.0497 55.744 33.2349 55.6088C33.4201 55.4736 33.6812 55.5125 33.8182 55.6977L33.8219 55.7032C33.9978 55.9421 34.1867 56.1773 34.3849 56.4032C34.509 56.5439 34.6386 56.6847 34.7719 56.8199C34.7867 56.8347 34.7978 56.8495 34.8108 56.8643L39.4812 63.231C39.6108 63.4069 39.5812 63.6532 39.4145 63.7958C39.3367 63.8625 39.2404 63.8939 39.1441 63.8939Z" fill="#F5F6F7"/>
</g>
</g>
<path d="M39.1444 63.8938C39.0352 63.8938 38.9278 63.8512 38.8463 63.7679C38.7259 63.6457 38.6074 63.5198 38.4926 63.3901C38.4889 63.3846 38.4833 63.3809 38.4796 63.3753C38.4315 63.3161 38.3759 63.2383 38.3241 63.1661L38.2667 63.0864L33.7963 56.992C33.6648 56.8124 33.6963 56.5623 33.8704 56.4216C34.0426 56.2809 34.2944 56.3012 34.4426 56.4679C34.55 56.5864 34.6592 56.7031 34.7704 56.8179C34.7833 56.8327 34.7963 56.8475 34.8092 56.8623L39.4796 63.229C39.6092 63.4049 39.5796 63.6512 39.413 63.7938C39.3352 63.8623 39.2407 63.8938 39.1444 63.8938Z" fill="#F5F6F7"/>
<mask id="mask2_704_24917" style="mask-type:luminance" maskUnits="userSpaceOnUse" x="33" y="56" width="7" height="8">
<path d="M39.1444 63.8938C39.0352 63.8938 38.9278 63.8512 38.8463 63.7679C38.7259 63.6457 38.6074 63.5198 38.4926 63.3901C38.4889 63.3846 38.4833 63.3809 38.4796 63.3753C38.4315 63.3161 38.3759 63.2383 38.3241 63.1661L38.2667 63.0864L33.7963 56.992C33.6648 56.8124 33.6963 56.5623 33.8704 56.4216C34.0426 56.2809 34.2944 56.3012 34.4426 56.4679C34.55 56.5864 34.6592 56.7031 34.7704 56.8179C34.7833 56.8327 34.7963 56.8475 34.8092 56.8623L39.4796 63.229C39.6092 63.4049 39.5796 63.6512 39.413 63.7938C39.3352 63.8623 39.2407 63.8938 39.1444 63.8938Z" fill="white"/>
</mask>
<g mask="url(#mask2_704_24917)">
<g opacity="0.6">
<path d="M34.4741 57.11L39.1445 63.4767C39.0075 63.3359 38.8723 63.1915 38.7427 63.0433C38.5334 62.8063 38.3371 62.56 38.1538 62.31L33.4834 55.9434C33.6667 56.1934 33.863 56.4396 34.0723 56.6767C34.2019 56.8248 34.3371 56.9693 34.4741 57.11Z" fill="#5E2A8C"/>
<path d="M39.1445 63.8939C39.0353 63.8939 38.9278 63.8513 38.8464 63.768C38.7019 63.6217 38.5612 63.4699 38.4278 63.318C38.213 63.0736 38.0075 62.818 37.8167 62.5569L33.1464 56.1902C33.0112 56.0051 33.0501 55.744 33.2352 55.6088C33.4204 55.4736 33.6815 55.5125 33.8186 55.6977L33.8223 55.7032C33.9982 55.9421 34.1871 56.1773 34.3852 56.4032C34.5093 56.5439 34.639 56.6847 34.7723 56.8199C34.7871 56.8347 34.7982 56.8495 34.8112 56.8643L39.4815 63.231C39.6112 63.4069 39.5815 63.6532 39.4149 63.7958C39.3371 63.8625 39.2408 63.8939 39.1445 63.8939Z" fill="#F5F6F7"/>
</g>
</g>
<path d="M58.7074 49.2888C58.5963 49.6406 58.4685 49.9944 58.3278 50.3425C58.0259 51.0907 57.6592 51.8258 57.2278 52.5388C57.0204 52.8814 56.8 53.2203 56.5611 53.5536C55.7537 54.6925 54.7722 55.7629 53.6241 56.7203C50.5 59.3332 46.7444 60.6369 43.1963 60.6369C39.65 60.6369 36.3111 59.3314 34.0222 56.7203C29.4389 51.4981 30.7889 43.0351 37.0352 37.8166C40.1592 35.2036 43.9148 33.8999 47.4629 33.8999C51.0092 33.8999 54.3481 35.2055 56.637 37.8166C56.7037 37.8925 56.7666 37.9666 56.8259 38.0425C57.1241 38.4018 57.3981 38.7777 57.6426 39.161C58.0852 39.8573 58.4352 40.5888 58.7055 41.3555C58.8444 41.7443 58.9592 42.1425 59.05 42.5462C59.5518 44.7055 59.4241 47.0314 58.7074 49.2888Z" fill="#E6D8F3"/>
<path d="M59.0519 42.5459H46.8371C45.5482 42.5459 44.6612 41.5403 44.8612 40.2959C45.0593 39.0515 46.2649 38.0459 47.5556 38.0459H56.8297C57.1278 38.4052 57.4019 38.7811 57.6464 39.1644C58.0889 39.8607 58.4389 40.5922 58.7093 41.3589C58.8463 41.744 58.9612 42.1422 59.0519 42.5459Z" fill="#9D62D0"/>
<path d="M58.7073 49.288C58.5962 49.6398 58.4684 49.9935 58.3277 50.3417C58.0258 51.0898 57.6592 51.825 57.2277 52.538C57.0203 52.8806 56.7999 53.2195 56.561 53.5528H44.9536C43.7295 53.5528 42.8962 52.5972 43.0832 51.4195C43.2721 50.2417 44.4129 49.2861 45.6332 49.2861H58.7073V49.288Z" fill="#9D62D0"/>
<path d="M62.1758 1.17529H113.704L112.917 6.11233L99.3758 91.0123H34.1869H29.0684L33.1628 65.3345C35.8591 66.7308 38.9369 67.429 42.1239 67.429C46.4072 67.429 50.8906 66.1679 54.9258 63.6438H91.0554C91.6832 63.6438 92.2665 63.1549 92.3647 62.5494C92.4609 61.9475 92.0313 61.4586 91.4054 61.4586H57.9202C60.9795 58.8808 63.248 55.7846 64.6776 52.5142H92.8313C93.4591 52.5142 94.0424 52.0253 94.1387 51.4234C94.235 50.8197 93.8054 50.329 93.1795 50.329H65.5035C66.4535 47.3494 66.7165 44.2883 66.2647 41.3846H94.6054C95.2332 41.3846 95.8165 40.8957 95.9128 40.2938C96.0091 39.6901 95.5795 39.1994 94.9535 39.1994H65.7776C65.1184 36.9531 63.9943 34.8494 62.385 33.0105C58.9313 29.0753 53.8961 27.1068 48.548 27.1068C45.3628 27.1068 42.0684 27.8049 38.9276 29.1994L40.5073 19.2901H58.9665L61.8072 1.48455L62.1758 1.17529ZM89.2813 74.7716C89.9091 74.7716 90.4924 74.2827 90.5906 73.6771C90.6869 73.0753 90.2572 72.5864 89.6313 72.5864H45.6776C45.0535 72.5864 44.4684 73.0753 44.3721 73.6771C44.2758 74.2808 44.7054 74.7716 45.3295 74.7716H89.2813ZM96.3813 30.2568C97.0091 30.2568 97.5924 29.7679 97.6887 29.166C97.785 28.5623 97.3554 28.0716 96.7295 28.0716H66.935C66.3091 28.0716 65.7258 28.5605 65.6295 29.166C65.5332 29.7679 65.9591 30.2568 66.5869 30.2568H96.3813Z" fill="#F5F6F7"/>
<path d="M99.3759 91.4275H29.0684C28.9462 91.4275 28.8314 91.3738 28.7518 91.2812C28.6722 91.1886 28.6388 91.0664 28.6573 90.946L32.7536 65.2682C32.774 65.1368 32.8573 65.0219 32.9777 64.9627C33.0962 64.9016 33.2388 64.9034 33.3573 64.9645C35.9462 66.3053 38.9777 67.0127 42.1259 67.0127C46.4647 67.0127 50.8147 65.7256 54.7055 63.2905C54.7722 63.2497 54.8481 63.2275 54.9259 63.2275H91.0555C91.4777 63.2275 91.8888 62.8867 91.9518 62.4849C91.9777 62.3219 91.9407 62.1701 91.8462 62.059C91.7462 61.9405 91.5888 61.8756 91.4036 61.8756H57.9203C57.7444 61.8756 57.5888 61.7664 57.5296 61.6016C57.4703 61.4368 57.5184 61.2534 57.6518 61.1405C60.5518 58.696 62.8499 55.6553 64.2962 52.3479C64.3629 52.196 64.5129 52.0979 64.6777 52.0979H92.8314C93.2536 52.0979 93.6647 51.759 93.7277 51.3571C93.7536 51.1923 93.7166 51.0405 93.6222 50.9293C93.5222 50.8108 93.3647 50.746 93.1796 50.746H65.5036C65.3703 50.746 65.2462 50.683 65.1666 50.5756C65.0888 50.4682 65.0666 50.3293 65.1055 50.2034C66.0333 47.2942 66.2907 44.2664 65.8518 41.4497C65.8333 41.3293 65.8684 41.2071 65.9462 41.1145C66.024 41.0219 66.1407 40.9682 66.2629 40.9682H94.6036C95.0259 40.9682 95.437 40.6293 95.4999 40.2275C95.5258 40.0627 95.4888 39.9108 95.3944 39.7997C95.2944 39.6812 95.137 39.6164 94.9518 39.6164H65.7777C65.5925 39.6164 65.4296 39.4942 65.3777 39.3164C64.7184 37.0664 63.6055 35.0368 62.0703 33.2849C58.8092 29.5701 54.0073 27.5238 48.5462 27.5238C45.3907 27.5238 42.1222 28.2349 39.0944 29.5812C38.9555 29.6423 38.7925 29.6238 38.6703 29.5312C38.5481 29.4386 38.4888 29.2868 38.5129 29.1349L40.0925 19.2256C40.124 19.0238 40.2999 18.8738 40.5036 18.8738H58.6073L61.3907 1.41823C61.4055 1.32009 61.4573 1.22934 61.5333 1.16453L61.9036 0.851566C61.9796 0.788603 62.074 0.753418 62.1722 0.753418H113.704C113.826 0.753418 113.941 0.807123 114.02 0.899716C114.1 0.992308 114.133 1.11453 114.115 1.2349L99.787 91.0719C99.7555 91.2794 99.5814 91.4275 99.3759 91.4275ZM29.5555 90.5942H99.0203L113.215 1.59046H62.3277L62.1925 1.70527L59.3777 19.359C59.3462 19.5608 59.1703 19.7108 58.9666 19.7108H40.8629L39.4573 28.5238C42.3925 27.3238 45.5184 26.6923 48.5481 26.6923C54.2518 26.6923 59.2777 28.8386 62.6981 32.7368C64.2444 34.5034 65.3833 36.5349 66.087 38.7831H94.9555C95.3814 38.7831 95.774 38.9571 96.0314 39.259C96.287 39.559 96.3925 39.9497 96.3259 40.359C96.1962 41.1682 95.4407 41.8016 94.6055 41.8016H66.7444C67.0814 44.4293 66.8481 47.2127 66.0647 49.9127H93.1796C93.6055 49.9127 93.9981 50.0868 94.2555 50.3886C94.511 50.6886 94.6166 51.0794 94.5499 51.4886C94.4203 52.2979 93.6647 52.9312 92.8296 52.9312H64.9481C63.5907 55.9349 61.5573 58.7145 59.024 61.0423H91.4036C91.8296 61.0423 92.2221 61.2164 92.4796 61.5182C92.7351 61.8182 92.8388 62.2071 92.774 62.6164C92.6444 63.4256 91.8888 64.0608 91.0536 64.0608H55.0444C51.0462 66.5386 46.5814 67.846 42.124 67.846C39.0481 67.846 36.0759 67.196 33.4851 65.959L29.5555 90.5942ZM89.2814 75.1886H45.3296C44.9055 75.1886 44.5129 75.0164 44.2555 74.7127C43.9999 74.4127 43.8944 74.0219 43.961 73.6108C44.0907 72.8016 44.8444 72.1682 45.6777 72.1682H89.6296C90.0555 72.1682 90.4481 72.3423 90.7055 72.6442C90.961 72.9442 91.0647 73.3331 90.9999 73.7423C90.8721 74.5534 90.1166 75.1886 89.2814 75.1886ZM45.6777 73.0034C45.2573 73.0034 44.8481 73.3423 44.7833 73.7442C44.7573 73.909 44.7944 74.0627 44.8888 74.1738C44.9888 74.2923 45.1462 74.3571 45.3277 74.3571H89.2796C89.7018 74.3571 90.1129 74.0164 90.1758 73.6145C90.2018 73.4516 90.1647 73.2997 90.0703 73.1886C89.9703 73.0701 89.8129 73.0053 89.6277 73.0053H45.6777V73.0034ZM96.3814 30.6738H66.587C66.161 30.6738 65.7703 30.5016 65.5129 30.1997C65.2573 29.8997 65.1536 29.5108 65.2185 29.1016C65.3481 28.2905 66.1018 27.6571 66.9351 27.6571H96.7296C97.1555 27.6571 97.5481 27.8312 97.8055 28.1331C98.061 28.4331 98.1666 28.8238 98.0999 29.2331C97.9722 30.0405 97.2166 30.6738 96.3814 30.6738ZM66.9351 28.4886C66.5147 28.4886 66.1055 28.8293 66.0407 29.2312C66.0147 29.396 66.0518 29.5479 66.1462 29.6571C66.2462 29.7738 66.4018 29.8386 66.587 29.8386H96.3814C96.8036 29.8386 97.2147 29.4997 97.2777 29.0979C97.3036 28.933 97.2666 28.7812 97.1721 28.6701C97.0721 28.5516 96.9147 28.4868 96.7296 28.4868H66.9351V28.4886Z" fill="#F5F6F7"/>
<g opacity="0.5">
<g opacity="0.6">
<path d="M37.6129 37.4292L37.1703 40.2088C37.1017 40.2607 37.0332 40.3125 36.9666 40.3699C35.461 41.6255 35.1369 43.6662 36.2406 44.9236C36.2888 44.9792 36.3406 45.0329 36.3943 45.0829L34.4758 57.1088C34.3388 56.9681 34.2036 56.8236 34.074 56.6755C31.7962 54.0773 30.9925 50.6718 31.5369 47.2681C32.0795 43.8625 33.9684 40.4588 37.0758 37.8625C37.2499 37.7144 37.4314 37.5699 37.6129 37.4292Z" fill="#CEB1E7"/>
</g>
</g>
<path d="M93.1796 50.3291C93.8074 50.3291 94.2351 50.818 94.1388 51.4235C94.0425 52.0254 93.4574 52.5143 92.8314 52.5143H64.6777C64.9944 51.7939 65.2703 51.0643 65.5018 50.3291H93.1796Z" fill="#CEB1E7"/>
<path d="M92.8314 52.9307H64.6777C64.537 52.9307 64.4055 52.8604 64.3296 52.7418C64.2537 52.6233 64.2407 52.4752 64.2962 52.3474C64.6092 51.6326 64.8814 50.9122 65.1055 50.2048C65.1592 50.0307 65.3203 49.9141 65.5037 49.9141H93.1796C93.6055 49.9141 93.9981 50.0881 94.2555 50.39C94.5111 50.69 94.6166 51.0807 94.5499 51.49C94.4222 52.2974 93.6666 52.9307 92.8314 52.9307ZM65.3074 52.0974H92.8314C93.2537 52.0974 93.6648 51.7585 93.7277 51.3567C93.7537 51.1918 93.7166 51.04 93.6222 50.9289C93.5222 50.8104 93.3648 50.7455 93.1796 50.7455H65.8055C65.6574 51.1937 65.4907 51.6455 65.3074 52.0974Z" fill="#CEB1E7"/>
<path d="M91.4054 61.4561C92.0332 61.4561 92.461 61.9449 92.3647 62.5468C92.2684 63.1505 91.6832 63.6412 91.0554 63.6412H54.924C55.9258 63.0153 56.8999 62.3098 57.8351 61.5283C57.8628 61.5042 57.8925 61.4801 57.9203 61.4579H91.4054V61.4561Z" fill="#CEB1E7"/>
<path d="M91.0554 64.0587H54.924C54.7388 64.0587 54.574 63.9364 54.524 63.7568C54.4721 63.579 54.5462 63.3864 54.7036 63.2883C55.698 62.6661 56.661 61.9661 57.5684 61.2087L57.6462 61.1438C57.7221 61.0809 57.8221 61.042 57.9203 61.042H91.4054C91.8314 61.042 92.224 61.2161 92.4814 61.5179C92.7369 61.8179 92.8406 62.2068 92.7758 62.6161C92.6462 63.4235 91.8925 64.0587 91.0554 64.0587ZM56.3055 63.2253H91.0554C91.4777 63.2253 91.8888 62.8846 91.9517 62.4827C91.9777 62.3198 91.9406 62.1679 91.8462 62.0568C91.7462 61.9383 91.5888 61.8735 91.4036 61.8735H58.0703C57.5036 62.3475 56.9129 62.7994 56.3055 63.2253Z" fill="#CEB1E7"/>
<path d="M117.909 6.90862L117.25 11.0494L117.122 11.8475L103.709 95.9456H32.6889L29.0685 91.0105H99.3759L112.917 6.11418L113.706 1.17529L117.909 6.90862Z" fill="#E6D8F3"/>
<path d="M103.709 96.3624H32.6907C32.5574 96.3624 32.4333 96.2994 32.3555 96.192L28.7333 91.2569C28.6407 91.1309 28.6259 90.9624 28.6981 90.8217C28.7685 90.6809 28.9129 90.5939 29.0703 90.5939H99.0222L112.507 6.0476L113.296 1.10871C113.322 0.942047 113.446 0.808716 113.609 0.769827C113.774 0.730938 113.944 0.792049 114.043 0.929086L118.246 6.66242C118.313 6.75131 118.339 6.86427 118.322 6.97353L117.535 11.9124L104.12 96.0124C104.087 96.2143 103.913 96.3624 103.709 96.3624ZM32.8999 95.5291H103.352L116.711 11.7809L117.47 7.01427L113.959 2.22538L113.328 6.17909L99.787 91.0754C99.7555 91.2772 99.5796 91.4272 99.3759 91.4272H29.8907L32.8999 95.5291Z" fill="#F5F6F7"/>
<path d="M108.041 100.884L112.711 107.25H42.4L37.7296 100.884H108.041Z" fill="#CEB1E7"/>
<path d="M112.711 107.668H42.4C42.2666 107.668 42.1426 107.605 42.0648 107.497L37.3944 101.131C37.3018 101.005 37.287 100.836 37.3592 100.696C37.4296 100.555 37.574 100.468 37.7314 100.468H108.043C108.176 100.468 108.3 100.531 108.378 100.638L113.048 107.005C113.141 107.131 113.156 107.299 113.083 107.44C113.011 107.579 112.868 107.668 112.711 107.668ZM42.6111 106.834H111.889L107.83 101.301H38.5518L42.6111 106.834Z" fill="#F5F6F7"/>
<path d="M122.368 11.0498L108.041 100.885H37.7296L38.5167 95.9461H103.709L117.248 11.0498H122.368Z" fill="#F5F6F7"/>
<path d="M108.041 101.301H37.7297C37.6075 101.301 37.4927 101.248 37.413 101.155C37.3334 101.062 37.3001 100.94 37.3186 100.82L38.1056 95.8828C38.1371 95.681 38.313 95.531 38.5167 95.531H103.354L116.837 10.9847C116.869 10.7828 117.045 10.6328 117.248 10.6328H122.369C122.491 10.6328 122.606 10.6865 122.685 10.7791C122.765 10.8717 122.798 10.9939 122.78 11.1143L108.452 100.949C108.42 101.151 108.246 101.301 108.041 101.301ZM38.2186 100.468H107.685L121.88 11.4661H117.604L104.12 96.0124C104.089 96.2143 103.913 96.3643 103.709 96.3643H38.8723L38.2186 100.468Z" fill="#F5F6F7"/>
<path d="M122.368 11.0488L127.039 17.4155L112.711 107.251L108.041 100.884L122.368 11.0488Z" fill="#E6D8F3"/>
<path d="M112.711 107.668C112.58 107.668 112.455 107.607 112.376 107.498L107.705 101.131C107.639 101.042 107.613 100.929 107.63 100.818L121.957 10.9827C121.983 10.8161 122.107 10.6827 122.27 10.6439C122.435 10.605 122.605 10.6661 122.704 10.8031L127.374 17.1698C127.441 17.2587 127.467 17.3716 127.45 17.4827L113.122 107.318C113.096 107.485 112.972 107.618 112.809 107.657C112.776 107.664 112.743 107.668 112.711 107.668ZM108.48 100.777L112.455 106.199L126.598 17.5216L122.622 12.0994L108.48 100.777Z" fill="#F5F6F7"/>
<path d="M30.6501 63.7402L6.3871 84.0236C6.32969 84.0717 6.27044 84.1143 6.21118 84.1587C6.1834 84.1791 6.15747 84.1995 6.1297 84.2199C6.08155 84.2532 6.03155 84.2828 5.9834 84.3143C5.94821 84.3365 5.91303 84.3606 5.87784 84.381C5.85192 84.3958 5.82414 84.4087 5.79821 84.4236C5.7334 84.4587 5.66673 84.4939 5.60007 84.5236C5.57599 84.5347 5.55192 84.5439 5.52784 84.5532C5.43895 84.5921 5.35006 84.6254 5.26118 84.655C5.22044 84.6699 5.17784 84.6828 5.13525 84.6958C5.10192 84.705 5.06673 84.7162 5.0334 84.7236C4.9797 84.7365 4.92599 84.7495 4.87229 84.7606C4.83896 84.768 4.80562 84.7736 4.77414 84.7791C4.71488 84.7884 4.65747 84.7958 4.59821 84.8032C4.57044 84.8069 4.54266 84.8106 4.51488 84.8124C4.42969 84.8199 4.34266 84.8236 4.25747 84.8236C3.53155 84.8236 2.85006 84.5569 2.38155 84.0236L1.51673 83.0384C1.47414 82.9902 1.43525 82.9402 1.39636 82.8884L6.06673 89.255C6.10377 89.3069 6.14451 89.3569 6.1871 89.405L7.05192 90.3902C7.52043 90.9236 8.20192 91.1902 8.92784 91.1902C9.01303 91.1902 9.09821 91.1865 9.18525 91.1791C9.21303 91.1773 9.24081 91.1717 9.26858 91.1699C9.32784 91.1624 9.38525 91.155 9.44451 91.1458C9.47784 91.1402 9.51118 91.1328 9.54266 91.1273C9.59636 91.1162 9.65007 91.105 9.70377 91.0902C9.73895 91.081 9.77229 91.0717 9.80562 91.0624C9.8297 91.055 9.85562 91.0495 9.87969 91.0421C9.89636 91.0365 9.91303 91.0291 9.93155 91.0217C10.0223 90.9921 10.1112 90.9569 10.1982 90.9199C10.2149 90.9125 10.2334 90.9069 10.2519 90.8995C10.2593 90.8958 10.2649 90.8921 10.2723 90.8902C10.339 90.8587 10.4038 90.8254 10.4704 90.7902C10.4945 90.7773 10.5186 90.768 10.5427 90.7532C10.5464 90.7513 10.5482 90.7495 10.5501 90.7476C10.5852 90.7273 10.6204 90.7032 10.6556 90.681C10.7001 90.6532 10.7464 90.6273 10.7908 90.5958C10.7945 90.5939 10.7982 90.5902 10.8019 90.5865C10.8297 90.568 10.8556 90.5458 10.8834 90.5254C10.9278 90.4921 10.9741 90.4606 11.0167 90.4254C11.0315 90.4143 11.0445 90.4032 11.0593 90.3902L35.3223 70.1069L30.6501 63.7402Z" fill="#5E2A8C"/>
<path d="M8.92599 91.6072C8.04822 91.6072 7.27044 91.2721 6.7371 90.6647L5.87229 89.6795C5.82229 89.6221 5.77414 89.5628 5.7297 89.5017L1.06118 83.1387C1.06118 83.1369 1.05933 83.1369 1.05933 83.135C0.924141 82.9498 0.963032 82.6887 1.14822 82.5536C1.3334 82.4184 1.59451 82.4573 1.7297 82.6424L1.73155 82.6461C1.76118 82.6869 1.79266 82.7258 1.82599 82.7647L2.69081 83.7498C3.06303 84.1739 3.61858 84.4073 4.25377 84.4073C4.32784 84.4073 4.40007 84.4035 4.47414 84.3961L4.54822 84.3869C4.59822 84.3813 4.64822 84.3758 4.70007 84.3665C4.72044 84.3628 4.74266 84.3591 4.76303 84.3536L4.7871 84.348C4.8334 84.3387 4.88155 84.3276 4.92784 84.3165C4.95747 84.3091 4.98896 84.2998 5.01859 84.2924C5.05562 84.2813 5.09081 84.2702 5.12784 84.2573C5.20562 84.2313 5.2834 84.2017 5.36118 84.1684L5.42414 84.1424C5.4834 84.1147 5.54081 84.085 5.59822 84.0536L5.66858 84.0165C5.6834 84.0073 5.70007 83.998 5.71488 83.9869L5.79266 83.9369C5.82599 83.9165 5.85748 83.8961 5.89081 83.8739C5.90192 83.8665 5.91303 83.8573 5.92414 83.848L5.97784 83.8073C6.02414 83.7721 6.07229 83.7387 6.11673 83.6999L30.3797 63.4165C30.4686 63.3424 30.5815 63.3091 30.6964 63.3221C30.8112 63.335 30.913 63.3962 30.9815 63.4887L35.6519 69.8554C35.7815 70.0332 35.7519 70.2813 35.5834 70.4221L11.276 90.7498C11.2371 90.7813 11.1982 90.811 11.1575 90.8387L11.1038 90.8776C11.0815 90.8943 11.0593 90.911 11.0371 90.9276C10.9871 90.9628 10.9482 90.9869 10.9093 91.011L10.8408 91.0535C10.8149 91.0702 10.789 91.0869 10.763 91.1017C10.7556 91.1073 10.7482 91.111 10.7408 91.1147C10.7241 91.1239 10.7019 91.135 10.6815 91.1443L10.6649 91.1517C10.5908 91.1906 10.5186 91.2295 10.4427 91.2647C10.4445 91.2647 10.4315 91.2702 10.4204 91.2758C10.4019 91.2832 10.3815 91.2924 10.3612 91.2998C10.2612 91.3424 10.1612 91.3813 10.0612 91.4147C10.0445 91.4221 10.0223 91.4295 10.0019 91.4369C9.9834 91.4424 9.96118 91.448 9.94081 91.4536L9.92044 91.4591C9.88155 91.4702 9.84266 91.4813 9.80377 91.4906C9.74266 91.5054 9.6834 91.5202 9.62229 91.5313L9.60192 91.535C9.57044 91.5406 9.54081 91.548 9.50933 91.5536C9.44266 91.5647 9.37599 91.5739 9.31118 91.5813L9.2871 91.585C9.26303 91.5887 9.24081 91.5906 9.21673 91.5924C9.11303 91.6036 9.01859 91.6072 8.92599 91.6072ZM3.58896 85.1739L6.40377 89.011C6.4334 89.0517 6.46673 89.0924 6.50007 89.1313L7.36488 90.1165C7.7797 90.5906 8.43155 90.8258 9.14822 90.7647L9.22044 90.7554C9.27044 90.7498 9.32229 90.7443 9.37229 90.735C9.39266 90.7313 9.41488 90.7276 9.43525 90.7221L9.45747 90.7184C9.50562 90.7091 9.55192 90.698 9.59821 90.6869C9.62784 90.6795 9.65747 90.6702 9.68896 90.6628L9.75192 90.6461C9.76303 90.6406 9.78155 90.6332 9.79821 90.6276C9.87599 90.6017 9.95562 90.5721 10.0334 90.5369C10.0482 90.5295 10.0649 90.5239 10.0815 90.5184L10.0945 90.5128C10.1556 90.485 10.213 90.4536 10.2723 90.4221C10.2871 90.4128 10.3038 90.4054 10.3186 90.398L10.3315 90.3906C10.3353 90.3869 10.3408 90.385 10.3445 90.3832C10.3575 90.3758 10.3741 90.3647 10.3908 90.3554L10.4778 90.3017C10.5038 90.2869 10.5297 90.2702 10.5538 90.2535C10.576 90.2369 10.5871 90.2295 10.5982 90.2202L10.6686 90.1665C10.6964 90.1461 10.7241 90.1258 10.7519 90.1035L10.789 90.0739L34.7538 70.0406L30.5778 64.3462L6.65377 84.3443C6.59451 84.3924 6.53525 84.4387 6.47414 84.4832L6.4334 84.5147C6.41118 84.5313 6.39081 84.548 6.36858 84.5628C6.32414 84.5924 6.2797 84.6202 6.23525 84.648L6.17044 84.6887C6.14266 84.7073 6.11488 84.7239 6.0871 84.7406C6.06488 84.7536 6.04266 84.7647 6.02044 84.7758L5.99636 84.7887C5.92414 84.8276 5.85007 84.8665 5.77599 84.9017C5.75562 84.911 5.73525 84.9202 5.71303 84.9276L5.69266 84.9369C5.59451 84.9795 5.49451 85.0184 5.39266 85.0517C5.34636 85.0684 5.29821 85.0832 5.25192 85.0961C5.21303 85.1073 5.17414 85.1184 5.13525 85.1276C5.07599 85.1424 5.01488 85.1573 4.95377 85.1684L4.9334 85.1721C4.90377 85.1776 4.87229 85.185 4.84266 85.1887C4.77599 85.1998 4.71118 85.2091 4.64451 85.2165L4.61859 85.2202C4.59636 85.2239 4.57229 85.2258 4.54822 85.2276C4.44451 85.2369 4.34822 85.2406 4.25562 85.2406C4.02599 85.2406 3.80192 85.2184 3.58896 85.1739Z" fill="#F5F6F7"/>
<path d="M66.2648 41.3848C66.1499 40.6459 65.987 39.9144 65.7759 39.1996C65.1185 36.9515 63.9925 34.8496 62.3833 33.0107C58.9296 29.0756 53.8944 27.1089 48.5462 27.1089C45.3592 27.1089 42.0648 27.8052 38.9259 29.2033C36.7888 30.1533 34.7259 31.4237 32.8185 33.0181C24.3944 40.0589 21.8814 51.0219 26.3981 58.8922L2.13143 79.1793C0.857351 80.2422 0.583276 81.97 1.51661 83.0385L2.38142 84.0237C2.84809 84.557 3.53328 84.8256 4.2555 84.8256C4.98143 84.8256 5.74994 84.557 6.38513 84.0237L30.6499 63.7422C31.4425 64.3441 32.2833 64.8774 33.1629 65.333C35.8592 66.7274 38.937 67.4274 42.124 67.4274C46.4092 67.4274 50.8925 66.1681 54.924 63.6422C55.9277 63.0163 56.8999 62.3107 57.9222 61.457C60.9796 58.8774 63.2499 55.783 64.6796 52.5107C64.9925 51.7941 65.2703 51.0607 65.5018 50.3256C66.4518 47.3515 66.7166 44.2867 66.2648 41.3848ZM53.624 56.7218C50.4999 59.3348 46.7444 60.6385 43.1962 60.6385C39.6499 60.6385 36.3111 59.333 34.0222 56.7218C29.4388 51.4996 30.7888 43.0367 37.0351 37.8181C40.1592 35.2052 43.9148 33.9015 47.4629 33.9015C51.0092 33.9015 54.3481 35.207 56.637 37.8181C56.7036 37.8941 56.7666 37.9681 56.8259 38.0441C57.124 38.4033 57.3981 38.7793 57.6425 39.1626C58.0851 39.8589 58.4351 40.5904 58.7055 41.357C58.8444 41.7459 58.9592 42.1441 59.0499 42.5478C59.5499 44.7089 59.424 47.0348 58.7055 49.2904C58.5944 49.6422 58.4666 49.9959 58.3259 50.3441C58.024 51.0922 57.6574 51.8274 57.2259 52.5404C57.0185 52.883 56.7981 53.2219 56.5592 53.5552C55.7555 54.6941 54.7722 55.7644 53.624 56.7218Z" fill="#9D62D0"/>
<path d="M4.25555 85.2419C3.37777 85.2419 2.59999 84.9067 2.06851 84.2974L1.2037 83.3123C0.725918 82.7641 0.496289 82.0437 0.555548 81.2845C0.62777 80.3771 1.1037 79.4919 1.86481 78.8586L25.8667 58.7937C23.7537 54.9234 23.2148 50.2345 24.3518 45.5456C25.5278 40.6993 28.4407 36.1363 32.5537 32.6974C34.45 31.1123 36.5389 29.8086 38.7592 28.8215C41.8889 27.4289 45.2741 26.6919 48.55 26.6919C54.2537 26.6919 59.2796 28.8382 62.7 32.7363C64.3185 34.5845 65.4889 36.7197 66.1796 39.0826C66.3926 39.8067 66.5611 40.5586 66.6796 41.3197C67.1389 44.2623 66.8685 47.4215 65.9018 50.453C65.6704 51.1882 65.3889 51.9363 65.0648 52.6771C63.5685 56.1011 61.1907 59.2456 58.1926 61.7752C57.1778 62.6234 56.1815 63.3493 55.1463 63.9937C51.1278 66.5104 46.6259 67.8419 42.1259 67.8419C38.8463 67.8419 35.6815 67.1012 32.9741 65.7012C32.1778 65.29 31.4037 64.8086 30.6667 64.2715L6.65185 84.3437C5.9611 84.9215 5.1111 85.2419 4.25555 85.2419ZM48.5481 27.5252C45.3889 27.5252 42.1204 28.2363 39.0963 29.5826C36.9463 30.5382 34.9241 31.8012 33.087 33.3363C24.913 40.1678 22.2518 50.8289 26.7611 58.6826C26.8611 58.8586 26.8222 59.0808 26.6667 59.2104L2.39814 79.4974C1.80925 79.99 1.43888 80.6641 1.38518 81.3493C1.34259 81.8845 1.49999 82.3863 1.82962 82.7622L2.69444 83.7474C3.06666 84.1734 3.62036 84.4067 4.25555 84.4067C4.91481 84.4067 5.57777 84.1567 6.11851 83.703L30.3833 63.4215C30.5333 63.2974 30.7481 63.2919 30.9037 63.4104C31.6796 64.0011 32.5037 64.5234 33.3555 64.9623C35.9444 66.3011 38.9778 67.0104 42.1259 67.0104C46.4685 67.0104 50.8185 65.7234 54.7037 63.29C55.7055 62.6641 56.6722 61.9604 57.6555 61.1382C60.5555 58.6937 62.8518 55.653 64.2981 52.3456C64.6111 51.6308 64.8815 50.9104 65.1055 50.203C66.0333 47.2919 66.2926 44.266 65.8537 41.4493C65.7407 40.7252 65.5815 40.0086 65.3778 39.3197C64.7222 37.0734 63.6092 35.0437 62.0704 33.2863C58.8111 29.5715 54.0074 27.5252 48.5481 27.5252ZM43.1963 61.0549C39.3722 61.0549 36.0018 59.6141 33.7074 56.9956C31.6592 54.6623 30.6722 51.5734 30.9259 48.2956C31.237 44.2752 33.3667 40.3382 36.7667 37.4974C39.8629 34.9086 43.6611 33.4826 47.4629 33.4826C51.287 33.4826 54.6574 34.9234 56.9518 37.5419C57.0222 37.6215 57.0889 37.7011 57.1537 37.7826C57.4537 38.1437 57.7389 38.5345 57.9963 38.9363C58.4426 39.6363 58.8148 40.403 59.1018 41.2141C59.2444 41.6141 59.3648 42.0308 59.4592 42.453C59.9722 44.666 59.85 47.0734 59.1055 49.4141C58.9889 49.7808 58.8574 50.1456 58.7148 50.4993C58.4055 51.2678 58.0259 52.0252 57.5852 52.7549C57.3611 53.1234 57.1389 53.4641 56.9018 53.7974C56.0574 54.9882 55.0444 56.0789 53.8926 57.0419C50.7963 59.6289 46.9981 61.0549 43.1963 61.0549ZM47.4629 34.316C43.8574 34.316 40.2481 35.6734 37.3018 38.1363C34.0722 40.8345 32.05 44.5623 31.7574 48.3604C31.5204 51.4123 32.437 54.2826 34.3352 56.4456C36.4685 58.8808 39.6167 60.2215 43.1963 60.2215C46.8018 60.2215 50.4111 58.8641 53.3574 56.4011C54.4555 55.4845 55.4185 54.4456 56.2222 53.3141C56.4463 52.9974 56.6592 52.6752 56.8722 52.3234C57.2889 51.6326 57.6481 50.9141 57.9426 50.1863C58.0778 49.853 58.2018 49.5086 58.3111 49.1623C59.0092 46.9641 59.1259 44.7086 58.6463 42.6382C58.5592 42.2474 58.4481 41.8623 58.3166 41.4937C58.05 40.74 57.7055 40.0308 57.2944 39.3845C57.0574 39.0123 56.7926 38.6493 56.5092 38.3086C56.4481 38.2326 56.3889 38.1623 56.3278 38.0919C54.1907 35.6567 51.0426 34.316 47.4629 34.316Z" fill="#F5F6F7"/>
<path d="M43.7036 44.5067C43.6666 44.4011 43.6203 44.3011 43.5573 44.2067C43.5185 44.1419 43.4722 44.0808 43.4203 44.0215C43.1073 43.666 42.6518 43.4863 42.1666 43.4863C42.1277 43.4863 42.0888 43.4882 42.0481 43.49C41.5981 43.516 41.1333 43.6937 40.7407 44.0215C40.2444 44.4363 39.974 45.0011 39.9592 45.5419C39.9481 45.9308 40.0685 46.3067 40.3296 46.6048C40.6425 46.9604 41.0981 47.14 41.5833 47.14C42.0685 47.14 42.5814 46.9623 43.0074 46.6048C43.2092 46.4345 43.3759 46.2419 43.5018 46.0326C43.5611 45.9363 43.6092 45.8363 43.6518 45.7326C43.8185 45.3252 43.8388 44.89 43.7036 44.5067Z" fill="#F5F6F7"/>
<path d="M42.187 41.224C42.1222 41.0388 42.0351 40.8629 41.9296 40.6963C41.8574 40.5833 41.7796 40.4759 41.6888 40.3722C41.137 39.7426 40.3314 39.4277 39.4777 39.4277C38.6981 39.4277 37.8796 39.6888 37.1703 40.2111C37.1018 40.2629 37.0333 40.3148 36.9666 40.3703C35.4611 41.6259 35.137 43.6666 36.2407 44.924C36.2907 44.9796 36.3407 45.0333 36.3944 45.0833C36.9351 45.6055 37.6722 45.8648 38.4518 45.8648C38.9518 45.8648 39.4703 45.7574 39.9648 45.5426C40.3148 45.3907 40.6518 45.1833 40.9648 44.924C41.3203 44.624 41.6129 44.2833 41.8333 43.9166C41.9166 43.7777 41.9907 43.6351 42.0518 43.4907C42.0666 43.4555 42.0814 43.4222 42.0944 43.387C42.387 42.6666 42.4222 41.9 42.187 41.224Z" fill="#F5F6F7"/>
<path d="M103.709 95.9449H32.6889L29.0685 91.0098H99.3759L103.709 95.9449Z" fill="#CEB1E7"/>
<path d="M103.709 96.3623H32.6907C32.5574 96.3623 32.4333 96.2993 32.3555 96.1919L28.7333 91.2567C28.6407 91.1308 28.6259 90.9623 28.6981 90.8215C28.7685 90.6808 28.9129 90.5938 29.0703 90.5938H99.3777C99.4981 90.5938 99.6111 90.6456 99.6907 90.7363L104.024 95.6715C104.131 95.7938 104.157 95.9697 104.091 96.1178C104.02 96.2678 103.872 96.3623 103.709 96.3623ZM32.8999 95.5289H102.787L99.1851 91.4271H29.8888L32.8999 95.5289Z" fill="#F5F6F7"/>
<path d="M94.9536 39.1992C95.5814 39.1992 96.0092 39.6881 95.9129 40.2937C95.8166 40.8955 95.2314 41.3844 94.6055 41.3844H66.2647C66.1499 40.6455 65.987 39.9122 65.7777 39.1992H94.9536Z" fill="#CEB1E7"/>
<path d="M94.6055 41.8012H66.2647C66.0592 41.8012 65.8851 41.6512 65.8536 41.4475C65.7425 40.7272 65.5833 40.0105 65.3777 39.316C65.3407 39.1901 65.3647 39.0531 65.4444 38.9494C65.5222 38.8438 65.6462 38.7827 65.7777 38.7827H94.9555C95.3814 38.7827 95.774 38.9568 96.0314 39.2586C96.287 39.5586 96.3925 39.9494 96.3259 40.3586C96.1962 41.1679 95.4407 41.8012 94.6055 41.8012ZM66.6185 40.9679H94.6055C95.0277 40.9679 95.4388 40.629 95.5018 40.2272C95.5277 40.0623 95.4907 39.9105 95.3962 39.7994C95.2962 39.6809 95.1388 39.616 94.9536 39.616H66.324C66.4407 40.0623 66.5388 40.5142 66.6185 40.9679Z" fill="#CEB1E7"/>
<path d="M96.7295 28.0718C97.3573 28.0718 97.7851 28.5607 97.6888 29.1662C97.5925 29.7681 97.0073 30.257 96.3813 30.257H66.5869C65.961 30.257 65.5332 29.7681 65.6295 29.1662C65.7258 28.5625 66.3091 28.0718 66.9351 28.0718H96.7295Z" fill="#CEB1E7"/>
<path d="M96.3813 30.6739H66.5869C66.161 30.6739 65.7702 30.5017 65.5128 30.1998C65.2573 29.8998 65.1536 29.5109 65.2184 29.1017C65.348 28.2924 66.1017 27.6572 66.9351 27.6572H96.7295C97.1554 27.6572 97.548 27.8313 97.8054 28.1332C98.061 28.4332 98.1665 28.8239 98.0999 29.2332C97.9721 30.0406 97.2165 30.6739 96.3813 30.6739ZM66.9351 28.4887C66.5147 28.4887 66.1054 28.8294 66.0406 29.2313C66.0147 29.3961 66.0517 29.548 66.1462 29.6591C66.2462 29.7757 66.4017 29.8406 66.5869 29.8406H96.3813C96.8036 29.8406 97.2147 29.5017 97.2777 29.0998C97.3036 28.935 97.2665 28.7832 97.1721 28.672C97.0721 28.5535 96.9147 28.4887 96.7295 28.4887H66.9351Z" fill="#CEB1E7"/>
<path d="M89.6297 72.5869C90.2574 72.5869 90.6852 73.0758 90.5889 73.6776C90.4926 74.2813 89.9074 74.7721 89.2796 74.7721H45.3297C44.7056 74.7721 44.276 74.2832 44.3723 73.6776C44.4686 73.0758 45.0537 72.5869 45.6778 72.5869H89.6297Z" fill="#CEB1E7"/>
<path d="M89.2815 75.1884H45.3297C44.9056 75.1884 44.5149 75.0162 44.2574 74.7144C44.0019 74.4144 43.8963 74.0236 43.963 73.6125C44.0926 72.8033 44.8463 72.1699 45.6797 72.1699H89.6297C90.0556 72.1699 90.4482 72.344 90.7056 72.6458C90.9612 72.9458 91.0648 73.3347 91 73.744C90.8723 74.5533 90.1167 75.1884 89.2815 75.1884ZM45.6778 73.0033C45.2574 73.0033 44.8482 73.3421 44.7834 73.744C44.7574 73.9088 44.7945 74.0625 44.8889 74.1736C44.9889 74.2921 45.1445 74.357 45.3278 74.357H89.2797C89.7019 74.357 90.113 74.0162 90.176 73.6144C90.2019 73.4514 90.1649 73.2996 90.0704 73.1884C89.9704 73.0699 89.813 73.0051 89.6278 73.0051H45.6778V73.0033Z" fill="#CEB1E7"/>
<path d="M70.9352 47.7516C70.9019 47.5386 70.8648 47.3257 70.8241 47.1146C70.8204 47.0942 70.8167 47.0738 70.813 47.0535C70.8056 47.0146 70.7945 46.9757 70.7871 46.9349C70.7519 46.7627 70.713 46.5905 70.6723 46.4201C70.6574 46.3572 70.6426 46.2923 70.626 46.2294C70.5704 46.0072 70.5111 45.7868 70.4482 45.5683C70.3611 45.2701 70.2611 44.9757 70.1574 44.6831C70.1445 44.646 70.1352 44.609 70.1204 44.572C70.1074 44.5331 70.0889 44.496 70.0759 44.459C69.9778 44.1923 69.8741 43.9294 69.7611 43.6683C69.7519 43.6442 69.7426 43.622 69.7315 43.5979C69.6093 43.3183 69.476 43.0423 69.3389 42.7683C69.3222 42.7368 69.3093 42.7053 69.2945 42.6738C69.2722 42.6294 69.2445 42.5849 69.2222 42.5405C69.1278 42.3609 69.0297 42.1849 68.9297 42.0072C68.8871 41.9349 68.8482 41.8609 68.8037 41.7886C68.6611 41.5479 68.513 41.309 68.3556 41.0738C68.3556 41.072 68.3537 41.072 68.3537 41.0701C68.2222 40.8738 68.0871 40.6794 67.9463 40.4868L63.276 34.1201C63.4185 34.3127 63.5537 34.509 63.6871 34.7072C63.8445 34.9423 63.9926 35.1812 64.1352 35.422C64.1778 35.4942 64.2185 35.5683 64.2611 35.6405C64.3611 35.8164 64.4593 35.9942 64.5537 36.172C64.5945 36.2479 64.6334 36.3238 64.6722 36.3997C64.8111 36.6738 64.9426 36.9497 65.0648 37.2294C65.0741 37.2516 65.0834 37.2757 65.0926 37.2997C65.2056 37.5609 65.3093 37.8238 65.4074 38.0905C65.4352 38.1646 65.463 38.2405 65.4889 38.3146C65.5926 38.6072 65.6908 38.9016 65.7778 39.1997C65.8426 39.4183 65.9 39.6386 65.9556 39.8609C65.9722 39.9257 65.9871 39.9886 66.0019 40.0535C66.0426 40.2238 66.0796 40.3942 66.1148 40.5664C66.1278 40.6275 66.1408 40.6868 66.1519 40.7479C66.1926 40.959 66.2315 41.172 66.263 41.3849C66.7148 44.2868 66.45 47.3497 65.5019 50.3294C65.2704 51.0646 64.9926 51.7942 64.6778 52.5146C64.613 52.6627 64.5445 52.809 64.4778 52.9553C64.4241 53.0701 64.3704 53.1849 64.3148 53.2997C64.2685 53.3942 64.2222 53.4905 64.176 53.5849C64.1185 53.6997 64.0593 53.8127 64 53.9275C63.9519 54.022 63.9019 54.1146 63.8519 54.2072C63.7908 54.322 63.7278 54.4349 63.663 54.5497C63.6111 54.6423 63.5593 54.7331 63.5074 54.8257C63.4408 54.9386 63.3741 55.0534 63.3056 55.1664C63.2556 55.2497 63.2074 55.3312 63.1556 55.4146C62.9778 55.7016 62.7945 55.9868 62.6037 56.2683C62.5667 56.3238 62.5278 56.3794 62.4889 56.4368C62.2926 56.7238 62.0889 57.0071 61.8778 57.2886C61.8519 57.322 61.8259 57.3553 61.8019 57.3868C61.6334 57.6072 61.4611 57.8257 61.2852 58.0423C61.2371 58.1016 61.1889 58.1609 61.1389 58.222C60.9389 58.4627 60.7334 58.7034 60.5222 58.9386C60.4889 58.9757 60.4556 59.0108 60.4222 59.0479C60.25 59.2386 60.0741 59.4257 59.8945 59.6127C59.8352 59.6757 59.7741 59.7368 59.713 59.7979C59.5241 59.9905 59.3296 60.1831 59.1334 60.3701C59.1056 60.3979 59.0778 60.4257 59.05 60.4516C58.9315 60.5627 58.8111 60.672 58.6908 60.7831C58.6259 60.8423 58.5611 60.9034 58.4945 60.9627C58.3056 61.1312 58.1148 61.296 57.9204 61.4609C57.6778 61.6646 57.4371 61.8572 57.1982 62.0442C57.1815 62.0572 57.1648 62.0701 57.1482 62.0831C56.9241 62.2571 56.7019 62.4238 56.4797 62.5868C56.4426 62.6146 56.4037 62.6423 56.3667 62.6701C56.1667 62.8146 55.9667 62.9553 55.7667 63.0905C55.4871 63.2812 55.2056 63.4664 54.9241 63.6442C54.6463 63.8183 54.3667 63.9849 54.0834 64.146C54.0093 64.1886 53.9352 64.2275 53.8611 64.2701C53.613 64.409 53.3648 64.5442 53.1148 64.6738C53.0204 64.722 52.9259 64.772 52.8315 64.8201C52.5574 64.959 52.2815 65.0905 52.0037 65.2183C51.9537 65.2405 51.9056 65.2646 51.8556 65.2868C51.7908 65.3164 51.7241 65.3442 51.6593 65.372C51.4778 65.4516 51.2963 65.5312 51.113 65.6053C51.0222 65.6423 50.9315 65.6775 50.8408 65.7146C50.6815 65.7775 50.5204 65.8405 50.3611 65.9016C50.2648 65.9386 50.1667 65.9738 50.0704 66.009C49.913 66.0664 49.7556 66.1201 49.5982 66.1738C49.5019 66.2072 49.4056 66.2386 49.3074 66.2701C49.1778 66.3127 49.0463 66.3516 48.9167 66.3923C48.7574 66.4405 48.5963 66.4886 48.4371 66.5349C48.313 66.5701 48.1889 66.6034 48.063 66.6368C47.9037 66.6794 47.7463 66.7201 47.5871 66.759C47.4611 66.7905 47.3352 66.8201 47.2111 66.8479C47.0519 66.8849 46.8926 66.9183 46.7334 66.9516C46.6093 66.9775 46.4834 67.0034 46.3593 67.0257C46.1982 67.0553 46.0371 67.0849 45.876 67.1109C45.7537 67.1312 45.6297 67.1516 45.5074 67.1701C45.3426 67.1942 45.1778 67.2164 45.0148 67.2386C44.8963 67.2534 44.7759 67.2701 44.6574 67.2849C44.4852 67.3053 44.3148 67.3201 44.1445 67.3349C44.0334 67.3442 43.9204 67.3571 43.8093 67.3646C43.6204 67.3794 43.4334 67.3886 43.2463 67.3979C43.1519 67.4034 43.0593 67.409 42.9648 67.4127C42.6834 67.4238 42.4037 67.4294 42.1241 67.4294C38.9371 67.4294 35.8611 66.7312 33.163 65.3349C32.2815 64.8794 31.4408 64.3479 30.65 63.7423L35.3204 70.109C36.1111 70.7146 36.9519 71.2442 37.8334 71.7016C40.5297 73.0979 43.6074 73.796 46.7926 73.796C47.0722 73.796 47.3519 73.7905 47.6334 73.7794C47.7278 73.7757 47.8204 73.7683 47.9148 73.7646C48.1019 73.7553 48.2908 73.746 48.4778 73.7312C48.5889 73.722 48.7 73.7108 48.8111 73.7016C48.9834 73.6868 49.1537 73.6701 49.326 73.6516C49.4445 73.6386 49.563 73.622 49.6815 73.6072C49.8463 73.5849 50.0111 73.5645 50.176 73.5386C50.2982 73.5201 50.4222 73.4997 50.5445 73.4794C50.7056 73.4516 50.8667 73.4238 51.0278 73.3942C51.1519 73.3701 51.2778 73.346 51.4019 73.3201C51.5611 73.2868 51.7204 73.2534 51.8797 73.2164C52.0056 73.1886 52.1297 73.159 52.2537 73.1275C52.413 73.0886 52.5722 73.0479 52.7315 73.0053C52.8556 72.972 52.9797 72.9386 53.1037 72.9034C53.2648 72.8571 53.4241 72.809 53.5852 72.7609C53.6648 72.7368 53.7463 72.7146 53.8259 72.6905C53.8759 72.6738 53.9259 72.6571 53.9759 72.6405C54.0722 72.609 54.1685 72.5757 54.2667 72.5442C54.4241 72.4905 54.5815 72.4368 54.7389 72.3794C54.8352 72.3442 54.9334 72.309 55.0297 72.272C55.1908 72.2127 55.35 72.1497 55.5093 72.0849C55.6 72.0479 55.6908 72.0127 55.7815 71.9757C55.9648 71.8997 56.1463 71.822 56.3278 71.7423C56.3926 71.7127 56.4593 71.6868 56.5241 71.6571C56.5352 71.6516 56.5482 71.646 56.5593 71.6423C56.5963 71.6257 56.6334 71.6053 56.6704 71.5886C56.9482 71.4609 57.2241 71.3294 57.4982 71.1905C57.5926 71.1423 57.6871 71.0942 57.7815 71.0442C58.0315 70.9146 58.2815 70.7794 58.5278 70.6405C58.5815 70.6109 58.6352 70.5849 58.6871 70.5534C58.7074 70.5423 58.7297 70.5275 58.75 70.5164C59.0315 70.3553 59.313 70.1886 59.5908 70.0146C59.8741 69.8368 60.1537 69.6516 60.4334 69.4609C60.4593 69.4442 60.4834 69.4275 60.5093 69.4108C60.6834 69.2905 60.8593 69.1664 61.0334 69.0405C61.0704 69.0127 61.1093 68.9849 61.1463 68.9571C61.3685 68.7942 61.5908 68.6275 61.813 68.4534C61.8297 68.4405 61.8463 68.4275 61.863 68.4146C61.9815 68.322 62.1019 68.2275 62.2204 68.1294C62.3408 68.0312 62.463 67.9312 62.5834 67.8294C62.7778 67.6646 62.9685 67.4997 63.1574 67.3312C63.2241 67.272 63.2871 67.2127 63.3519 67.1534C63.4722 67.0423 63.5945 66.9331 63.713 66.8201C63.7185 66.8146 63.7259 66.809 63.7315 66.8034C63.7537 66.7831 63.7741 66.7609 63.7945 66.7405C63.9926 66.5516 64.1852 66.359 64.376 66.1664C64.4371 66.1053 64.4963 66.0423 64.5556 65.9812C64.7352 65.7942 64.9111 65.6071 65.0834 65.4164C65.1093 65.3886 65.1371 65.3608 65.1611 65.3331C65.1685 65.3257 65.1741 65.3164 65.1815 65.309C65.3926 65.072 65.5982 64.8331 65.7982 64.5923C65.8482 64.5331 65.8963 64.4738 65.9445 64.4146C66.1204 64.1979 66.2945 63.9794 66.4611 63.759C66.4796 63.7331 66.5019 63.709 66.5204 63.6831C66.5259 63.6757 66.5315 63.6683 66.5371 63.6609C66.7482 63.3794 66.9519 63.096 67.1482 62.809C67.1871 62.7534 67.2241 62.6979 67.263 62.6423C67.4537 62.359 67.6389 62.0738 67.8167 61.7868C67.8278 61.7683 67.8408 61.7516 67.8519 61.7331C67.8908 61.6683 67.9278 61.6034 67.9667 61.5386C68.0352 61.4257 68.1019 61.3127 68.1685 61.1979C68.2222 61.1053 68.2722 61.0127 68.3241 60.922C68.3871 60.809 68.45 60.696 68.5111 60.5812C68.5611 60.4886 68.6111 60.3942 68.6593 60.2997C68.7185 60.1868 68.7778 60.072 68.8334 59.9572C68.8815 59.8627 68.9278 59.7683 68.9741 59.672C69.0296 59.5572 69.0834 59.4423 69.1371 59.3275C69.1593 59.2775 69.1852 59.2294 69.2074 59.1794C69.2519 59.0812 69.2945 58.9849 69.3371 58.8868C69.6537 58.1664 69.9297 57.4368 70.1611 56.7016C71.1222 53.7183 71.3871 50.6553 70.9352 47.7516Z" fill="#CEB1E7"/>
<path d="M46.7925 74.2127C43.511 74.2127 40.348 73.472 37.6406 72.0701C36.7314 71.5997 35.8666 71.0516 35.0647 70.4386C35.0332 70.4146 35.0055 70.3868 34.9814 70.3534L30.311 63.9868C30.1888 63.8201 30.2073 63.5886 30.3555 63.4423C30.5036 63.2979 30.7351 63.2831 30.8999 63.409C31.661 63.9923 32.4851 64.5146 33.3517 64.9627C35.9406 66.3034 38.9721 67.0108 42.1203 67.0108C42.3814 67.0108 42.6592 67.0053 42.9443 66.9942C42.998 66.9923 43.0499 66.9886 43.1036 66.9849L43.2203 66.9775C43.4055 66.9683 43.5888 66.959 43.774 66.9442C43.8462 66.9386 43.9184 66.9312 43.9888 66.9257L44.1017 66.9146C44.274 66.8997 44.4406 66.8831 44.6055 66.8646C44.6925 66.8553 44.7795 66.8423 44.8666 66.8312L44.9573 66.8201C45.1184 66.7997 45.2795 66.7775 45.4425 66.7534C45.5499 66.7368 45.6592 66.7183 45.7666 66.6997L45.8036 66.6942C45.961 66.6683 46.1203 66.6405 46.2777 66.6109C46.3999 66.5868 46.5221 66.5627 46.6462 66.5368C46.8018 66.5053 46.9592 66.4701 47.1147 66.4349C47.2388 66.4071 47.361 66.3775 47.4851 66.3479C47.6406 66.309 47.798 66.2701 47.9536 66.2275C48.0758 66.1942 48.198 66.1627 48.3203 66.1275C48.4777 66.0831 48.6351 66.0349 48.7925 65.9868L48.8443 65.9701C48.9555 65.9368 49.0666 65.9016 49.1758 65.8664C49.2721 65.8349 49.3666 65.8034 49.461 65.772C49.6166 65.7201 49.7703 65.6664 49.9258 65.609C50.0203 65.5738 50.1166 65.5405 50.211 65.5034C50.3684 65.4442 50.5258 65.3831 50.6832 65.3201L50.7555 65.2923C50.8203 65.2664 50.8869 65.2405 50.9518 65.2146C51.1314 65.1405 51.3092 65.0627 51.4888 64.9849L51.574 64.9479C51.6092 64.9331 51.6462 64.9164 51.6814 64.9016L51.8258 64.8331C52.0925 64.7109 52.3666 64.5794 52.6388 64.4423C52.7314 64.396 52.8258 64.3479 52.9184 64.2997C53.1629 64.1738 53.4092 64.0405 53.6536 63.9034L53.7443 63.8534C53.7869 63.8294 53.8295 63.8071 53.8721 63.7831C54.1758 63.609 54.4462 63.4479 54.698 63.2886C54.9555 63.1275 55.2258 62.9497 55.5277 62.7442C55.724 62.609 55.9221 62.472 56.1184 62.3294L56.2295 62.2479C56.4703 62.072 56.6851 61.909 56.8869 61.7516L56.9369 61.7108C57.1869 61.5146 57.4203 61.3257 57.6462 61.1368C57.8369 60.9757 58.024 60.8127 58.2092 60.6479C58.248 60.6127 58.2851 60.5775 58.324 60.5423L58.4499 60.4275C58.5518 60.3349 58.6555 60.2405 58.7555 60.146L58.8388 60.0664C59.0258 59.8868 59.2129 59.7034 59.411 59.5016C59.4703 59.4405 59.5295 59.3794 59.5888 59.3183C59.7647 59.1349 59.9388 58.9497 60.1073 58.7627L60.2055 58.6571C60.4018 58.4386 60.5999 58.2071 60.8129 57.9516L60.9573 57.7757C61.1406 57.5516 61.3073 57.3405 61.4647 57.1312L61.5406 57.0349C61.7332 56.7794 61.9295 56.5053 62.1406 56.1979L62.2536 56.0331C62.4462 55.7497 62.6277 55.4664 62.7962 55.1942C62.8388 55.1238 62.8814 55.0534 62.924 54.9831L62.9425 54.9516C63.0092 54.8405 63.0758 54.7294 63.1406 54.6164C63.1869 54.5368 63.2314 54.4571 63.2758 54.3775L63.2943 54.3442C63.3573 54.2331 63.4184 54.1201 63.4795 54.009C63.5295 53.9183 63.5777 53.8257 63.6258 53.7331C63.6832 53.622 63.7406 53.509 63.798 53.3979C63.8443 53.3053 63.8906 53.2127 63.9351 53.1183C63.9888 53.0053 64.0425 52.8942 64.0943 52.7812L64.111 52.7423C64.1721 52.6109 64.2332 52.4794 64.2906 52.3479C64.6036 51.6331 64.8777 50.9127 65.0999 50.2034C66.0277 47.2923 66.2851 44.2664 65.8462 41.4497C65.8166 41.2572 65.7814 41.0534 65.7369 40.8275L65.6999 40.6497C65.6647 40.4812 65.6295 40.3146 65.5888 40.1479L65.5425 39.959C65.4814 39.7127 65.4258 39.5072 65.3684 39.3164C65.2925 39.059 65.2036 38.7849 65.0851 38.4516C65.0592 38.3794 65.0332 38.3053 65.0055 38.2331C64.8999 37.9497 64.7999 37.6979 64.6981 37.4627L64.6703 37.3942C64.5629 37.1479 64.4388 36.8849 64.2869 36.5868C64.2499 36.5127 64.211 36.4386 64.1721 36.3646C64.0795 36.1905 63.9851 36.0183 63.8869 35.846L63.848 35.7794C63.8203 35.7312 63.7925 35.6812 63.7629 35.6331C63.6073 35.372 63.4647 35.1442 63.3258 34.9368C63.1962 34.7423 63.061 34.5497 62.9258 34.3646C62.7906 34.1794 62.8295 33.9183 63.0147 33.7831C63.1999 33.6479 63.461 33.6868 63.5962 33.872L63.5981 33.8738L68.2666 40.2386C68.4092 40.4331 68.5499 40.6349 68.6851 40.8368C68.6869 40.8405 68.6888 40.8442 68.6925 40.8479C68.8388 41.0683 68.9869 41.3053 69.148 41.5738C69.1795 41.6257 69.2073 41.6775 69.2369 41.7275L69.2758 41.796C69.3795 41.9775 69.4795 42.159 69.5758 42.3423L69.6018 42.3905C69.6184 42.4201 69.6351 42.4497 69.6499 42.4794C69.661 42.4997 69.6703 42.522 69.6795 42.5423L69.6943 42.5757C69.8518 42.8868 69.9832 43.1646 70.098 43.4275L70.1277 43.4979C70.2369 43.7534 70.3425 44.0183 70.4518 44.3109L70.4666 44.3497C70.4777 44.3757 70.4888 44.4016 70.4981 44.4294C70.5073 44.4534 70.5147 44.4794 70.5221 44.5053L70.5351 44.5442C70.6573 44.8868 70.7518 45.1757 70.8314 45.4497C70.8906 45.6516 70.948 45.8664 71.0147 46.1257C71.0277 46.1757 71.0388 46.2275 71.0518 46.2775L71.0629 46.322C71.1055 46.4979 71.1443 46.6738 71.1795 46.8497L71.1906 46.896C71.1962 46.9201 71.2017 46.9442 71.2073 46.9701L71.2184 47.0349C71.2647 47.2757 71.3017 47.4886 71.3332 47.6886C71.7906 50.6331 71.524 53.7905 70.5573 56.822C70.3258 57.5553 70.0425 58.3053 69.7166 59.0479C69.674 59.146 69.6295 59.246 69.5851 59.3442C69.5703 59.3757 69.5573 59.4053 69.5425 59.4349L69.5129 59.496C69.4592 59.6127 69.4036 59.7294 69.348 59.8442C69.3018 59.9423 69.2536 60.0386 69.2055 60.1349C69.148 60.2516 69.0888 60.3664 69.0277 60.4831C68.9777 60.5794 68.9277 60.6738 68.8758 60.7701C68.8129 60.8868 68.7499 61.0016 68.6851 61.1164L68.6573 61.1664C68.6147 61.2442 68.5703 61.322 68.5258 61.3979C68.4592 61.5146 68.3906 61.6294 68.3203 61.7442L68.2721 61.8238C68.2499 61.8627 68.2258 61.9016 68.2036 61.9405L68.1777 61.9812C67.9925 62.2794 67.8036 62.572 67.6055 62.8646L67.4888 63.0331C67.2684 63.3534 67.0647 63.6368 66.8666 63.8997L66.7888 64.0016C66.6258 64.2146 66.4499 64.4405 66.2629 64.6683L66.2443 64.6923C66.2018 64.7442 66.1592 64.7979 66.1147 64.8497C65.8943 65.1146 65.6906 65.3534 65.4869 65.5794L65.4647 65.6053C65.4499 65.622 65.4332 65.6405 65.4166 65.6571L65.3851 65.6905C65.2092 65.8831 65.0314 66.0738 64.8499 66.2627C64.7888 66.3257 64.7277 66.3886 64.6666 66.4516C64.461 66.6609 64.2666 66.8516 64.0758 67.0349L64.0536 67.0571C64.0388 67.072 64.0258 67.0849 64.011 67.0997C64.0092 67.1016 63.9962 67.1127 63.9943 67.1145C63.8906 67.2127 63.7851 67.309 63.6795 67.4053L63.5518 67.5238C63.511 67.5608 63.4703 67.5997 63.4277 67.6368C63.2369 67.8071 63.0425 67.9757 62.8443 68.1423C62.7203 68.246 62.5981 68.3479 62.4758 68.446C62.3536 68.5442 62.2332 68.6405 62.1129 68.7349L62.0629 68.7757C61.8517 68.9405 61.6295 69.109 61.3851 69.2868L61.2703 69.372C61.0925 69.4997 60.9147 69.6275 60.7369 69.7497C60.7203 69.7609 60.7036 69.772 60.6869 69.7831L60.6592 69.8016C60.3499 70.0127 60.0684 70.196 59.8018 70.3646C59.5369 70.5312 59.2573 70.6979 58.948 70.8757L58.8832 70.9146C58.8518 70.9331 58.8184 70.9497 58.7869 70.9664C58.7647 70.9775 58.7425 70.9886 58.7221 71.0016C58.4684 71.1442 58.2129 71.2812 57.9629 71.4108C57.8666 71.4608 57.7703 71.5108 57.674 71.559C57.3906 71.7016 57.1073 71.8368 56.8332 71.9627L56.7906 71.9831C56.7666 71.9942 56.7425 72.0071 56.7184 72.0164L56.6925 72.0275C56.6425 72.0497 56.6017 72.0683 56.561 72.0849L56.4832 72.1183C56.298 72.1997 56.1129 72.2794 55.9277 72.3553C55.8629 72.3831 55.7962 72.409 55.7295 72.4349L55.6518 72.4664C55.4888 72.5312 55.3258 72.5942 55.1629 72.6553C55.0647 72.6923 54.9666 72.7275 54.8684 72.7645C54.7092 72.822 54.548 72.8775 54.3888 72.9331C54.2869 72.9664 54.1906 72.9997 54.0943 73.0312L54.0314 73.0516C54.0018 73.0627 53.9703 73.072 53.9406 73.0812C53.8925 73.096 53.8443 73.1108 53.7943 73.1238L53.6962 73.1534C53.5332 73.2034 53.3703 73.2516 53.2073 73.2979C53.0814 73.3331 52.9555 73.3683 52.8295 73.4016C52.6666 73.4442 52.5055 73.4868 52.3425 73.5257C52.2166 73.5572 52.0888 73.5868 51.961 73.6164C51.798 73.6534 51.6369 73.6886 51.474 73.722C51.3462 73.7479 51.2203 73.7738 51.0925 73.7979C50.9295 73.8294 50.7647 73.8572 50.5999 73.8849L50.5573 73.8923C50.4462 73.9109 50.3369 73.9294 50.2258 73.946C50.0573 73.972 49.8906 73.9942 49.7221 74.0145L49.6314 74.0257C49.5406 74.0368 49.4499 74.0497 49.361 74.059C49.1869 74.0794 49.0129 74.0942 48.8388 74.1108L48.7277 74.122C48.6499 74.1294 48.574 74.1368 48.4962 74.1423C48.3036 74.1571 48.1129 74.1664 47.9221 74.1757L47.8147 74.1812C47.7555 74.1849 47.6962 74.1886 47.6369 74.1905C47.3536 74.2071 47.0647 74.2127 46.7925 74.2127ZM35.6203 69.8127C36.3684 70.3812 37.1777 70.8905 38.0258 71.3294C40.6147 72.6701 43.6462 73.3775 46.7943 73.3775C47.0555 73.3775 47.3332 73.372 47.6184 73.3609C47.6721 73.359 47.7258 73.3553 47.7795 73.3516L47.8943 73.3442C48.0795 73.3349 48.2629 73.3257 48.448 73.3108C48.5203 73.3053 48.5925 73.2979 48.6647 73.2923L48.7777 73.2812C48.948 73.2664 49.1147 73.2497 49.2832 73.2312C49.3684 73.222 49.4536 73.2109 49.5406 73.1997L49.6332 73.1868C49.7943 73.1664 49.9573 73.1442 50.1184 73.1201C50.224 73.1034 50.3314 73.0868 50.4369 73.0683L50.4795 73.0609C50.6388 73.0349 50.7962 73.0071 50.9536 72.9775C51.0758 72.9534 51.198 72.9294 51.3221 72.9034C51.4795 72.872 51.6351 72.8368 51.7925 72.8016C51.9147 72.7738 52.0388 72.7442 52.161 72.7146C52.3184 72.6757 52.474 72.6349 52.6314 72.5942C52.7536 72.5608 52.8758 72.5294 52.9962 72.4942C53.1536 72.4497 53.311 72.4016 53.4684 72.3534L53.5795 72.3201C53.6221 72.3071 53.6629 72.296 53.7036 72.2831L53.8518 72.2331C53.9443 72.2034 54.0388 72.172 54.1314 72.1405C54.2906 72.0868 54.4462 72.0331 54.5999 71.9775C54.6943 71.9423 54.7906 71.909 54.8851 71.872C55.0425 71.8127 55.1999 71.7516 55.3573 71.6886L55.4369 71.6571C55.4999 71.6331 55.561 71.6071 55.624 71.5831C55.8036 71.509 55.9832 71.4312 56.161 71.3534L56.2462 71.3164C56.2832 71.3016 56.3184 71.2849 56.3536 71.2701L56.4351 71.2331C56.4573 71.222 56.4777 71.2127 56.4999 71.2016C56.7647 71.0794 57.0388 70.9479 57.3147 70.8108C57.4092 70.7646 57.5018 70.7164 57.5943 70.6683C57.8369 70.5423 58.0832 70.409 58.3295 70.272C58.3573 70.2572 58.3851 70.2423 58.4129 70.2275C58.4369 70.2146 58.461 70.2016 58.4851 70.1886L58.5462 70.1516C58.848 69.9794 59.1184 69.8164 59.374 69.6571C59.6314 69.496 59.9036 69.3183 60.2036 69.1127L60.2777 69.0646C60.4499 68.946 60.6221 68.8238 60.7943 68.6997L60.9073 68.6164C61.1443 68.4423 61.3592 68.2812 61.5629 68.1201L61.6129 68.0794C61.7277 67.9886 61.8462 67.896 61.9647 67.7997C62.0832 67.7034 62.2036 67.6053 62.3221 67.5053C62.5129 67.3442 62.6999 67.1812 62.8851 67.0164C62.924 66.9831 62.961 66.9479 62.9962 66.9146L63.1295 66.7923C63.2295 66.6997 63.3314 66.609 63.4295 66.5146C63.4314 66.5127 63.4406 66.5034 63.4443 66.5016L63.5129 66.4349C63.698 66.259 63.8851 66.0738 64.0851 65.8701C64.1443 65.809 64.2036 65.7479 64.2629 65.6868C64.4388 65.5034 64.6129 65.3183 64.7814 65.1312L64.8795 65.0238C65.074 64.8053 65.274 64.5757 65.4869 64.3183C65.5295 64.2683 65.5703 64.2183 65.611 64.1664L65.6314 64.1423C65.811 63.922 65.9832 63.7034 66.1406 63.4979L66.2166 63.3997C66.4073 63.1479 66.6036 62.8738 66.8166 62.5646L66.9277 62.4016C67.1203 62.1183 67.3018 61.8349 67.4721 61.5608L67.5055 61.509C67.5258 61.4757 67.5462 61.4405 67.5666 61.4053L67.6184 61.3183C67.6851 61.2071 67.7517 61.096 67.8166 60.9849C67.8592 60.9109 67.9017 60.8368 67.9425 60.7608L67.9703 60.7109C68.0314 60.5997 68.0943 60.4886 68.1536 60.3775C68.2036 60.2849 68.2517 60.1942 68.2999 60.1016C68.3573 59.9905 68.4147 59.8794 68.4703 59.7664C68.5166 59.672 68.5629 59.5794 68.6092 59.4849C68.6629 59.3738 68.7166 59.2609 68.7684 59.1479L68.8388 59.0016C68.8814 58.9071 68.924 58.8127 68.9666 58.7164C69.2814 57.9997 69.5536 57.2794 69.7758 56.572C70.7036 53.6608 70.961 50.6349 70.5221 47.8183C70.4925 47.6294 70.4573 47.4275 70.4129 47.1979L70.3777 47.022C70.3425 46.8534 70.3055 46.6868 70.2666 46.5201L70.2555 46.4738C70.2444 46.4275 70.2332 46.3794 70.2221 46.3331C70.1592 46.0849 70.1036 45.8794 70.048 45.6886C69.9721 45.4275 69.8814 45.1534 69.7647 44.8257C69.7573 44.8016 69.7499 44.7812 69.7425 44.759C69.7388 44.746 69.7332 44.7312 69.7295 44.7183C69.724 44.7034 69.7184 44.6905 69.7129 44.6775C69.7036 44.6553 69.6943 44.6312 69.6851 44.609C69.5814 44.3312 69.4814 44.0775 69.3777 43.8386L69.3499 43.7701C69.2425 43.522 69.1166 43.2572 68.9666 42.9609C68.9573 42.9423 68.9462 42.9201 68.9369 42.8997L68.9221 42.8664C68.9129 42.8479 68.9017 42.8275 68.8906 42.809C68.8777 42.7868 68.8647 42.7627 68.8518 42.7386C68.7592 42.5627 68.6647 42.3905 68.5666 42.2183L68.5258 42.146C68.4999 42.0997 68.4721 42.0516 68.4443 42.0053C68.2888 41.7442 68.1462 41.5146 68.0073 41.309C68.0055 41.3072 68.0036 41.3035 68.0017 41.2997C67.874 41.109 67.7406 40.9201 67.6073 40.7368L66.0129 38.5627C66.0758 38.7497 66.1295 38.922 66.1777 39.0868C66.2369 39.2886 66.2962 39.5034 66.361 39.7627L66.4092 39.959C66.4499 40.1349 66.4888 40.309 66.5258 40.4849L66.5647 40.6701C66.611 40.9072 66.648 41.1201 66.6795 41.3238C67.1369 44.2683 66.8684 47.4257 65.9036 50.4572C65.6721 51.1923 65.3888 51.9423 65.0629 52.6831C65.0036 52.8201 64.9388 52.9572 64.8758 53.0942L64.8592 53.1312C64.8055 53.2479 64.7499 53.3646 64.6943 53.4812C64.648 53.5775 64.5999 53.6738 64.5517 53.772C64.4925 53.8886 64.4332 54.0053 64.374 54.1201C64.324 54.2146 64.274 54.3109 64.224 54.4053C64.161 54.522 64.0962 54.6368 64.0314 54.7534L64.0129 54.7868C63.9666 54.8701 63.9203 54.9516 63.8721 55.0349C63.8055 55.1516 63.7369 55.2664 63.6666 55.3812L63.648 55.4127C63.6036 55.4868 63.5592 55.5608 63.5147 55.6331C63.3406 55.9164 63.1518 56.209 62.9518 56.5034L62.8351 56.6738C62.6166 56.9923 62.4129 57.2757 62.2129 57.5405L62.1351 57.6405C61.9703 57.8571 61.7981 58.0757 61.6092 58.3071L61.4592 58.4886C61.2406 58.7534 61.0351 58.9905 60.8314 59.2164L60.7295 59.3257C60.5536 59.5183 60.3758 59.709 60.1925 59.8997C60.1314 59.9627 60.0703 60.0257 60.0092 60.0886C59.8055 60.296 59.6129 60.4868 59.4184 60.672L59.3332 60.7553C59.2295 60.8534 59.124 60.9497 59.0166 61.0479L58.8962 61.159C58.8536 61.1979 58.8129 61.2368 58.7703 61.2738C58.5795 61.4442 58.3851 61.6127 58.1869 61.7794C57.9517 61.9757 57.7129 62.1701 57.4536 62.372L57.4036 62.4127C57.1943 62.5757 56.9721 62.7442 56.7258 62.9238L56.611 63.009C56.4073 63.1571 56.2036 63.2979 56.0018 63.4368C55.6925 63.6479 55.411 63.8312 55.1443 63.9997C54.8814 64.1646 54.6018 64.3312 54.2906 64.5108C54.2443 64.5368 54.198 64.5627 54.1499 64.5886L54.0647 64.6368C53.8129 64.7775 53.5573 64.9164 53.3055 65.046C53.2092 65.096 53.1129 65.146 53.0166 65.1942C52.7332 65.3368 52.4518 65.472 52.1758 65.5979L52.111 65.6275C52.0832 65.6405 52.0536 65.6553 52.0258 65.6683C51.9851 65.6868 51.9443 65.7034 51.9036 65.722L51.824 65.7553C51.6388 65.8368 51.4536 65.9164 51.2684 65.9923C51.1999 66.0201 51.1314 66.0479 51.061 66.0757L50.9906 66.1034C50.8277 66.1683 50.6666 66.2312 50.5017 66.2923C50.4036 66.3294 50.3055 66.3646 50.2055 66.4016C50.0462 66.459 49.8851 66.5146 49.7258 66.5683C49.6277 66.6016 49.5295 66.6349 49.4314 66.6664C49.3166 66.7034 49.1999 66.7386 49.0851 66.7738L49.0332 66.7886C48.8703 66.8386 48.7073 66.8868 48.5443 66.9331C48.4184 66.9683 48.2906 67.0034 48.1647 67.0368C48.0036 67.0794 47.8425 67.122 47.6795 67.1608C47.5518 67.1923 47.424 67.222 47.2962 67.2516C47.1351 67.2886 46.9721 67.3238 46.811 67.3572C46.6851 67.3831 46.5573 67.409 46.4295 67.4331C46.2647 67.4646 46.1017 67.4923 45.9369 67.5201L45.8999 67.5257C45.7869 67.5442 45.674 67.5627 45.561 67.5812C45.3925 67.6071 45.2258 67.6294 45.0592 67.6497L44.9703 67.6608C44.8777 67.6738 44.7869 67.6849 44.6962 67.696C44.524 67.7164 44.3518 67.7312 44.1795 67.7479L44.0647 67.759C43.9869 67.7664 43.9092 67.7738 43.8332 67.7794C43.6425 67.7942 43.4518 67.8034 43.261 67.8127L43.1518 67.8183C43.0925 67.822 43.0332 67.8257 42.974 67.8275C42.6777 67.8386 42.3906 67.8442 42.1184 67.8442C38.8369 67.8442 35.674 67.1034 32.9666 65.7016C32.761 65.596 32.5592 65.4849 32.3592 65.372L35.6203 69.8127Z" fill="#F5F6F7"/>
</svg>
