<svg width="40" height="40" viewBox="0 0 40 40" fill="none" xmlns="http://www.w3.org/2000/svg">
<path d="M0 20C0 8.95431 8.95431 0 20 0C31.0457 0 40 8.95431 40 20C40 31.0457 31.0457 40 20 40C8.95431 40 0 31.0457 0 20Z" fill="#F3EBF9"/>
<path d="M20.1334 19.0587C20.05 19.0503 19.95 19.0503 19.8584 19.0587C17.875 18.992 16.3 17.367 16.3 15.367C16.3 13.3253 17.95 11.667 20 11.667C22.0417 11.667 23.7001 13.3253 23.7001 15.367C23.6917 17.367 22.1167 18.992 20.1334 19.0587Z" stroke="#5E2A8C" stroke-width="1.25" stroke-linecap="round" stroke-linejoin="round"/>
<path d="M15.9666 22.133C13.9499 23.483 13.9499 25.683 15.9666 27.0247C18.2583 28.558 22.0166 28.558 24.3083 27.0247C26.3249 25.6747 26.3249 23.4747 24.3083 22.133C22.0249 20.608 18.2666 20.608 15.9666 22.133Z" stroke="#5E2A8C" stroke-width="1.25" stroke-linecap="round" stroke-linejoin="round"/>
</svg>
