<svg width="40" height="41" viewBox="0 0 40 41" fill="none" xmlns="http://www.w3.org/2000/svg">
<path d="M13.334 19.5C13.334 20.7833 14.334 21.8333 15.5507 21.8333H18.0507C19.1173 21.8333 19.984 20.9167 19.984 19.8C19.984 18.5833 19.4507 18.15 18.6673 17.8667L14.6673 16.4667C13.8673 16.1833 13.334 15.75 13.334 14.5333C13.334 13.4167 14.2007 12.5 15.2673 12.5H17.7673C19.0007 12.5167 20.0007 13.55 20.0007 14.8333" stroke="#5A42DE" stroke-width="2.5" stroke-linecap="round" stroke-linejoin="round"/>
<path d="M16.666 21.917V23.1503" stroke="#5A42DE" stroke-width="2.5" stroke-linecap="round" stroke-linejoin="round"/>
<path d="M16.666 11.1836V12.4836" stroke="#5A42DE" stroke-width="2.5" stroke-linecap="round" stroke-linejoin="round"/>
<path d="M16.6507 30.4663C24.0052 30.4663 29.9673 24.5043 29.9673 17.1497C29.9673 9.79508 24.0052 3.83301 16.6507 3.83301C9.29606 3.83301 3.33398 9.79508 3.33398 17.1497C3.33398 24.5043 9.29606 30.4663 16.6507 30.4663Z" stroke="#5A42DE" stroke-width="2.5" stroke-linecap="round" stroke-linejoin="round"/>
<path d="M21.6328 33.6337C23.1328 35.7503 25.5828 37.1337 28.3828 37.1337C32.9328 37.1337 36.6328 33.4337 36.6328 28.8837C36.6328 26.117 35.2661 23.667 33.1828 22.167" stroke="#5A42DE" stroke-width="2.5" stroke-linecap="round" stroke-linejoin="round"/>
</svg>
