<svg width="16" height="16" viewBox="0 0 16 16" fill="none" xmlns="http://www.w3.org/2000/svg">
<path d="M15.9566 7.99979C15.9566 12.3948 12.3938 15.9577 7.99887 15.9577C3.60384 15.9577 0.0410156 12.3948 0.0410156 7.99979C0.0410156 3.60482 3.60384 0.0419922 7.99887 0.0419922C12.3938 0.0419922 15.9566 3.60482 15.9566 7.99979Z" fill="#00A478"/>
<path d="M7.1812 7.86055V6.46836H5.29297V5.24805H10.5694V6.48555H8.6812V7.86055H7.1812Z" fill="white"/>
<path d="M7.88477 7.17383C9.773 7.17383 11.291 7.55156 11.291 8.01562C11.291 8.47969 9.773 8.85742 7.88477 8.85742C5.99654 8.85742 4.47852 8.47969 4.47852 8.01562C4.47852 7.55156 5.99654 7.17383 7.88477 7.17383ZM7.88477 7.31055C5.90861 7.31063 4.88524 7.82658 4.76172 8.01562C4.88524 8.18749 5.90861 8.44527 7.88477 8.44531C9.87888 8.44531 10.8853 8.1875 11.0088 8.01562C10.8853 7.84375 9.86124 7.31055 7.88477 7.31055Z" fill="white"/>
<path d="M8.67767 8.28984V7.32734C8.43061 7.31016 8.1659 7.29297 7.90119 7.29297C7.65414 7.29297 7.42472 7.29297 7.19531 7.31016V8.27266C7.40708 8.27266 7.65414 8.28984 7.90119 8.28984C8.1659 8.30703 8.43061 8.30703 8.67767 8.28984Z" fill="white"/>
<path d="M7.88557 8.85664C7.63851 8.85664 7.4091 8.85664 7.17969 8.83945V11.4004H8.66204V8.82227C8.41498 8.83945 8.15028 8.85664 7.88557 8.85664Z" fill="white"/>
</svg>
