<svg width="18" height="18" viewBox="0 0 18 18" fill="none" xmlns="http://www.w3.org/2000/svg">
<path d="M6 1.5V3.75" stroke="#7F8C9F" stroke-width="1.125" stroke-miterlimit="10" stroke-linecap="round" stroke-linejoin="round"/>
<path d="M12 1.5V3.75" stroke="#7F8C9F" stroke-width="1.125" stroke-miterlimit="10" stroke-linecap="round" stroke-linejoin="round"/>
<path d="M5.25 9.75H11.25" stroke="#7F8C9F" stroke-width="1.125" stroke-miterlimit="10" stroke-linecap="round" stroke-linejoin="round"/>
<path d="M5.25 12.75H9" stroke="#7F8C9F" stroke-width="1.125" stroke-miterlimit="10" stroke-linecap="round" stroke-linejoin="round"/>
<path d="M15.75 9.375V7.2375C15.75 3.7125 14.4975 2.76 12 2.625H6C3.5025 2.7675 2.25 3.7125 2.25 7.2375V11.8725C2.25 14.9625 3 16.5075 6.75 16.5075H9" stroke="#7F8C9F" stroke-width="1.125" stroke-miterlimit="10" stroke-linecap="round" stroke-linejoin="round"/>
<path d="M14.4083 11.8053L11.7532 14.4603C11.6482 14.5653 11.5508 14.7603 11.5283 14.9028L11.3858 15.9152C11.3333 16.2827 11.5883 16.5378 11.9558 16.4853L12.9682 16.3427C13.1107 16.3202 13.3133 16.2228 13.4108 16.1178L16.0657 13.4628C16.5232 13.0053 16.7407 12.4728 16.0657 11.7978C15.3982 11.1303 14.8658 11.3478 14.4083 11.8053Z" stroke="#7F8C9F" stroke-width="1.125" stroke-miterlimit="10" stroke-linecap="round" stroke-linejoin="round"/>
<path d="M14.0254 12.1877C14.2504 12.9977 14.8804 13.6277 15.6904 13.8527" stroke="#7F8C9F" stroke-width="1.125" stroke-miterlimit="10" stroke-linecap="round" stroke-linejoin="round"/>
</svg>
