<svg width="36" height="36" viewBox="0 0 36 36" fill="none" xmlns="http://www.w3.org/2000/svg">
<g clip-path="url(#clip0_1714_71546)">
<path d="M18 0C27.942 0 36 8.05958 36 18C36 27.942 27.942 36 18 36C8.05958 36 0 27.9412 0 18C0 8.05958 8.05958 0 18 0Z" fill="#F4B731"/>
<path d="M18.6633 19.2701H25.503C25.6488 19.2701 25.7177 19.2701 25.7282 19.0789C25.7841 18.3831 25.7841 17.6833 25.7282 16.9867C25.7282 16.8514 25.661 16.7955 25.5143 16.7955H11.9022C11.7337 16.7955 11.6883 16.8514 11.6883 17.0093V19.0117C11.6883 19.2701 11.6883 19.2701 11.958 19.2701H18.6633ZM24.9643 14.4554C24.9838 14.4044 24.9838 14.3485 24.9643 14.2982C24.8501 14.0496 24.7149 13.8122 24.5577 13.5895C24.3212 13.2088 24.0426 12.858 23.725 12.543C23.5752 12.3526 23.4018 12.1817 23.2074 12.0367C22.2338 11.2081 21.0763 10.6216 19.8321 10.3268C19.2044 10.1858 18.5629 10.1186 17.9197 10.1243H11.8787C11.7102 10.1243 11.6875 10.1915 11.6875 10.3381V14.3315C11.6875 14.4999 11.6875 14.5453 11.9013 14.5453H24.8833C24.8833 14.5453 24.9959 14.5226 25.0186 14.4554H24.9635H24.9643ZM24.9643 21.6102C24.7732 21.5891 24.5804 21.5891 24.3892 21.6102H11.9135C11.745 21.6102 11.6883 21.6102 11.6883 21.8354V25.7396C11.6883 25.9194 11.6883 25.9648 11.9135 25.9648H17.6735C17.9489 25.9858 18.2243 25.9664 18.494 25.9089C19.3299 25.849 20.1521 25.6675 20.9362 25.3686C21.2213 25.2698 21.4967 25.141 21.7567 24.9863H21.8353C23.1856 24.284 24.2823 23.1808 24.9741 21.8265C24.9741 21.8265 25.0526 21.6564 24.9643 21.6118V21.6102ZM9.42758 27.989V27.9218V25.3006V24.412V21.7681C9.42758 21.6215 9.42758 21.5997 9.24776 21.5997H6.8064C6.67112 21.5997 6.61523 21.5997 6.61523 21.4198V19.2822H9.22508C9.37088 19.2822 9.42758 19.2822 9.42758 19.0911V16.9761C9.42758 16.8409 9.42758 16.8076 9.24776 16.8076H6.8064C6.67112 16.8076 6.61523 16.8076 6.61523 16.6278V14.6482C6.61523 14.5242 6.61523 14.491 6.79506 14.491H9.21374C9.38222 14.491 9.42758 14.491 9.42758 14.2772V8.21346C9.42758 8.03364 9.42758 7.98828 9.65276 7.98828H18.0898C18.7022 8.01258 19.3105 8.07981 19.9123 8.19078C21.1525 8.42002 22.344 8.86309 23.4334 9.49571C24.156 9.92096 24.821 10.4345 25.4131 11.0258C25.8586 11.4883 26.2604 11.9889 26.6168 12.5219C26.9707 13.0622 27.2648 13.6397 27.4956 14.2432C27.524 14.4003 27.6746 14.5064 27.8318 14.4797H29.8455C30.1038 14.4797 30.1038 14.4797 30.1152 14.7275V16.5727C30.1152 16.7526 30.048 16.7979 29.8673 16.7979H28.3145C28.1574 16.7979 28.112 16.7979 28.1234 17.0004C28.1849 17.6857 28.1849 18.3734 28.1234 19.0587C28.1234 19.2498 28.1234 19.2725 28.338 19.2725H30.1144C30.1929 19.3738 30.1144 19.475 30.1144 19.5771C30.1257 19.7075 30.1257 19.8395 30.1144 19.9699V21.3315C30.1144 21.5227 30.0585 21.5794 29.8892 21.5794H27.7629C27.6147 21.5511 27.4705 21.6458 27.4365 21.7932C26.9302 23.1095 26.1202 24.2897 25.0737 25.2358C24.6914 25.58 24.2896 25.904 23.87 26.2029C23.4197 26.4621 22.9814 26.7319 22.5197 26.9457C21.67 27.328 20.779 27.6099 19.8645 27.7889C18.9962 27.9444 18.1157 28.0149 17.232 28.0028H9.42434V27.9914L9.42758 27.989Z" fill="white"/>
</g>
<defs>
<clipPath id="clip0_1714_71546">
<rect width="36" height="36" fill="white"/>
</clipPath>
</defs>
</svg>
