<svg width="16" height="17" viewBox="0 0 16 17" fill="none" xmlns="http://www.w3.org/2000/svg">
<path d="M14 4.48656C11.78 4.26656 9.54667 4.15323 7.32 4.15323C6 4.15323 4.68 4.2199 3.36 4.35323L2 4.48656" stroke="#C64242" stroke-linecap="round" stroke-linejoin="round"/>
<path d="M5.66602 3.81325L5.81268 2.93992C5.91935 2.30659 5.99935 1.83325 7.12602 1.83325H8.87268C9.99935 1.83325 10.086 2.33325 10.186 2.94659L10.3327 3.81325" stroke="#C64242" stroke-linecap="round" stroke-linejoin="round"/>
<path d="M12.5669 6.59326L12.1336 13.3066C12.0603 14.3533 12.0003 15.1666 10.1403 15.1666H5.86026C4.00026 15.1666 3.94026 14.3533 3.86693 13.3066L3.43359 6.59326" stroke="#C64242" stroke-linecap="round" stroke-linejoin="round"/>
<path d="M6.88672 11.4999H9.10672" stroke="#C64242" stroke-linecap="round" stroke-linejoin="round"/>
<path d="M6.33398 8.83325H9.66732" stroke="#C64242" stroke-linecap="round" stroke-linejoin="round"/>
</svg>
