<svg width="40" height="41" viewBox="0 0 40 41" fill="none" xmlns="http://www.w3.org/2000/svg">
<path d="M14.4531 24.3834C14.4531 26.5334 16.1031 28.2667 18.1531 28.2667H22.3365C24.1198 28.2667 25.5698 26.7501 25.5698 24.8834C25.5698 22.8501 24.6865 22.1334 23.3698 21.6667L16.6531 19.3334C15.3365 18.8667 14.4531 18.1501 14.4531 16.1167C14.4531 14.2501 15.9031 12.7334 17.6865 12.7334H21.8698C23.9198 12.7334 25.5698 14.4667 25.5698 16.6167" stroke="#5A42DE" stroke-width="2.5" stroke-linecap="round" stroke-linejoin="round"/>
<path d="M20 10.5V30.5" stroke="#5A42DE" stroke-width="2.5" stroke-linecap="round" stroke-linejoin="round"/>
<path d="M20.0007 37.1663C29.2054 37.1663 36.6673 29.7044 36.6673 20.4997C36.6673 11.2949 29.2054 3.83301 20.0007 3.83301C10.7959 3.83301 3.33398 11.2949 3.33398 20.4997C3.33398 29.7044 10.7959 37.1663 20.0007 37.1663Z" stroke="#5A42DE" stroke-width="2.5" stroke-linecap="round" stroke-linejoin="round"/>
</svg>
