<svg width="120" height="120" viewBox="0 0 120 120" fill="none" xmlns="http://www.w3.org/2000/svg">
<path d="M0 60C0 26.8629 26.8629 0 60 0C93.1371 0 120 26.8629 120 60C120 93.1371 93.1371 120 60 120C26.8629 120 0 93.1371 0 60Z" fill="url(#paint0_linear_14_11233)"/>
<path d="M60 6C89.8234 6 114 30.1766 114 60C114 89.8234 89.8234 114 60 114C30.1766 114 6 89.8234 6 60C6 30.1766 30.1766 6 60 6Z" stroke="white" stroke-opacity="0.72" stroke-width="12"/>
<path d="M34.8314 84.5762C35.2426 84.9875 35.7701 85.2625 36.3427 85.3641C36.9153 85.4656 37.5053 85.3889 38.0328 85.1442L67.3589 72.5183C68.7943 71.8527 69.1297 69.962 68.011 68.8432L50.6278 51.46C49.509 50.3412 47.6183 50.6766 46.9527 52.1121L34.2634 81.3748C34.0188 81.9024 33.9421 82.4923 34.0437 83.0649C34.1452 83.6375 34.4202 84.165 34.8314 84.5762Z" fill="#FFE266"/>
<path d="M59.2607 69.7524L37.7033 79.0336C37.3321 79.2056 36.9184 79.2645 36.5139 79.2032C36.1094 79.1418 35.7319 78.9629 35.4283 78.6886L34.2634 81.3748C34.0188 81.9024 33.9421 82.4923 34.0437 83.0649C34.1452 83.6375 34.4202 84.165 34.8314 84.5762C35.2426 84.9874 35.7702 85.2624 36.3427 85.364C36.9153 85.4656 37.5053 85.3889 38.0328 85.1443L67.0777 72.6394C66.4085 72.3712 59.3695 69.702 59.2607 69.7524Z" fill="#EFAA66"/>
<path d="M68.2121 71.3339C70.2163 69.3297 67.3024 63.1664 61.7037 57.5677C56.105 51.9691 49.9417 49.0552 47.9375 51.0593C45.9333 53.0635 48.8472 59.2269 54.4459 64.8255C60.0446 70.4242 66.2079 73.3381 68.2121 71.3339Z" fill="#FFE266"/>
<path d="M63.1387 68.7512C64.4534 67.4365 62.3239 63.1754 58.3823 59.2338C54.4407 55.2922 50.1796 53.1627 48.8649 54.4774C47.5502 55.7921 49.6797 60.0532 53.6213 63.9948C57.5629 67.9364 61.824 70.066 63.1387 68.7512Z" fill="#EFAA66"/>
<path d="M66.4064 73.0094C63.212 73.0094 58.2649 70.1139 53.7138 65.5628C49.5812 61.4301 46.7493 56.8788 46.3237 53.685C46.2477 53.1143 46.6485 52.5901 47.2192 52.5141C47.7894 52.4383 48.3142 52.8389 48.3901 53.4096C48.7528 56.1301 51.4211 60.3218 55.188 64.0887C60.0011 68.9017 64.4393 71.0003 66.5252 70.9223C67.0997 70.9014 67.5852 71.3473 67.6081 71.9226C67.6309 72.4978 67.1831 72.9827 66.6078 73.0055C66.5407 73.0081 66.4736 73.0094 66.4064 73.0094Z" fill="#D0844B"/>
<path d="M55.2673 56.9171C55.0147 56.6645 54.8296 56.3525 54.729 56.0098L53.7651 52.7471C53.401 51.5149 53.7296 50.1948 54.6224 49.302L56.3746 47.5498C57.2676 46.6568 58.5877 46.3284 59.8198 46.6925L63.3295 47.6831L62.1458 43.4598C61.8103 42.3245 62.4588 41.1323 63.5941 40.7969C64.7294 40.4615 65.9215 41.1099 66.2571 42.2452L67.221 45.5079C67.585 46.7401 67.2565 48.0602 66.3637 48.9529L64.6115 50.7052C63.7187 51.598 62.3986 51.9265 61.1664 51.5625L57.6208 50.4062L58.8403 54.7952C59.1758 55.9304 58.5273 57.1226 57.392 57.4581C56.6118 57.6885 55.8047 57.4544 55.2673 56.9171Z" fill="#CAB4EF"/>
<path d="M63.3298 47.6831L59.82 46.6925C58.7609 46.3796 57.6372 46.5787 56.7754 47.2076C57.0167 48.1725 57.3237 49.4561 57.621 50.4061L61.1666 51.5624C62.2759 51.8901 63.4562 51.6563 64.3321 50.955C64.0219 49.9839 63.625 48.6588 63.3298 47.6831Z" fill="#A183E2"/>
<path d="M68.8384 55.3916C69.091 55.6442 69.403 55.8292 69.7457 55.9299L73.0084 56.8938C74.2404 57.2578 75.5606 56.9293 76.4534 56.0365L78.2057 54.2843C79.0986 53.3913 79.4271 52.0712 79.063 50.8391L78.0724 47.3294L82.2957 48.513C83.4309 48.8485 84.6232 48.2 84.9587 47.0647C85.2941 45.9294 84.6457 44.7372 83.5104 44.4018L80.2477 43.4379C79.0155 43.0739 77.6954 43.4025 76.8027 44.2952L75.0504 46.0474C74.1576 46.9403 73.8291 48.2603 74.1931 49.4925L75.3492 53.0381L70.9603 51.8186C69.8251 51.4831 68.6329 52.1316 68.2974 53.2669C68.0668 54.0471 68.3011 54.8542 68.8384 55.3916Z" fill="#F7C4DB"/>
<path d="M79.0646 50.8391L78.074 47.3293C77.0529 47.1093 75.6244 46.8277 74.6052 46.5991C74.0595 47.4388 73.8998 48.4944 74.1947 49.4925L75.3509 53.0381C76.408 53.2991 77.5265 53.4792 78.5414 53.8948C79.1768 53.0314 79.3789 51.9026 79.0646 50.8391Z" fill="#EF8BBD"/>
<path d="M73.8304 37.7655C73.1508 38.4451 72.0488 38.4451 71.3691 37.7655C70.6895 37.0858 70.6895 35.9838 71.3691 35.3042C72.0488 34.6245 73.1508 34.6245 73.8304 35.3042C74.5101 35.9839 74.5101 37.0858 73.8304 37.7655Z" fill="#FFA585"/>
<path d="M76.4591 66.6793C77.4203 66.6793 78.1995 65.9001 78.1995 64.9389C78.1995 63.9777 77.4203 63.1985 76.4591 63.1985C75.4979 63.1985 74.7188 63.9777 74.7188 64.9389C74.7188 65.9001 75.4979 66.6793 76.4591 66.6793Z" fill="#78EAC4"/>
<path d="M66.932 66.4857C66.2523 67.1653 65.1503 67.1653 64.4707 66.4857C63.791 65.806 63.791 64.704 64.4707 64.0244C65.1503 63.3447 66.2523 63.3447 66.932 64.0244C67.6116 64.7041 67.6116 65.806 66.932 66.4857Z" fill="#78EAC4"/>
<path d="M66.932 66.4857C66.2523 67.1653 65.1503 67.1653 64.4707 66.4857C63.791 65.806 63.791 64.704 64.4707 64.0244C65.1503 63.3447 66.2523 63.3447 66.932 64.0244C67.6116 64.7041 67.6116 65.806 66.932 66.4857Z" fill="#8BB6EF"/>
<path d="M43.4718 71.5879C43.3302 71.5879 43.1901 71.5588 43.0602 71.5027C42.5313 71.275 42.2872 70.6619 42.515 70.1331L43.8351 67.0669C44.0627 66.5382 44.6761 66.2937 45.2047 66.5218C45.7335 66.7494 45.9776 67.3626 45.7499 67.8914L44.4298 70.9575C44.3492 71.1447 44.2155 71.3042 44.0452 71.4162C43.875 71.5283 43.6756 71.588 43.4718 71.5879ZM46.2693 65.0909C46.1277 65.0908 45.9875 65.0618 45.8575 65.0056C45.3288 64.7779 45.0847 64.1648 45.3125 63.6359L45.7148 62.7013C45.9425 62.1727 46.5554 61.9281 47.0845 62.1562C47.6132 62.3839 47.8574 62.997 47.6297 63.5259L47.2273 64.4605C47.1467 64.6477 47.013 64.8071 46.8427 64.9192C46.6724 65.0312 46.4731 65.0909 46.2693 65.0909Z" fill="white"/>
<path d="M54.452 34.8475L55.3082 37.2552C55.3449 37.3583 55.4174 37.44 55.5091 37.4813L57.6482 38.4451C57.9503 38.5812 57.9503 39.0627 57.6482 39.199L55.5091 40.1628C55.4174 40.204 55.3449 40.2858 55.3082 40.3887L54.452 42.7965C54.331 43.1366 53.9031 43.1366 53.7822 42.7965L52.926 40.3887C52.8893 40.2857 52.8167 40.2039 52.7251 40.1628L50.586 39.199C50.2838 39.0628 50.2838 38.5813 50.586 38.4451L52.7251 37.4813C52.8167 37.44 52.8893 37.3583 52.926 37.2552L53.7822 34.8475C53.9031 34.5072 54.331 34.5072 54.452 34.8475Z" fill="#F7C4DB"/>
<path d="M83.4577 56.4924L84.0928 58.2784C84.12 58.3549 84.1738 58.4154 84.2418 58.4461L85.8285 59.161C86.0527 59.262 86.0527 59.6191 85.8285 59.7201L84.2418 60.435C84.1738 60.4656 84.12 60.5262 84.0928 60.6027L83.4577 62.3886C83.3679 62.641 83.0506 62.641 82.9609 62.3886L82.3257 60.6027C82.2985 60.5262 82.2447 60.4656 82.1768 60.435L80.59 59.7201C80.3658 59.6191 80.3658 59.262 80.59 59.161L82.1768 58.4461C82.2447 58.4154 82.2985 58.3549 82.3257 58.2784L82.9609 56.4924C83.0506 56.2402 83.3679 56.2402 83.4577 56.4924Z" fill="#CAB4EF"/>
<path d="M71.6483 43.0432C72.0937 43.0432 72.4548 42.6821 72.4548 42.2367C72.4548 41.7913 72.0937 41.4302 71.6483 41.4302C71.2029 41.4302 70.8418 41.7913 70.8418 42.2367C70.8418 42.6821 71.2029 43.0432 71.6483 43.0432Z" fill="#78EAC4"/>
<path d="M83.8381 37.2436C83.9383 36.4275 83.3579 35.6847 82.5418 35.5845C81.7257 35.4843 80.9828 36.0647 80.8826 36.8807C80.7824 37.6968 81.3628 38.4396 82.1789 38.5398C82.9951 38.6401 83.7379 38.0597 83.8381 37.2436Z" fill="#8BB6EF"/>
<defs>
<linearGradient id="paint0_linear_14_11233" x1="60" y1="0" x2="60" y2="120" gradientUnits="userSpaceOnUse">
<stop stop-color="#9C4DE2"/>
<stop offset="1" stop-color="#561391"/>
</linearGradient>
</defs>
</svg>
