<svg width="16" height="16" viewBox="0 0 16 16" fill="none" xmlns="http://www.w3.org/2000/svg">
<path fill-rule="evenodd" clip-rule="evenodd" d="M10.8111 2.5488L13.4508 5.18846C13.7762 5.5139 13.7762 6.04156 13.4508 6.367L6.82509 12.9929C6.71954 13.0985 6.58756 13.1738 6.44297 13.2109L2.89226 14.122C2.2785 14.2795 1.72049 13.7215 1.87798 13.1077L2.78904 9.55689C2.82614 9.41229 2.90141 9.28031 3.00696 9.17475L9.63264 2.54881C9.95806 2.22337 10.4857 2.22337 10.8111 2.5488ZM10.2219 3.37379L3.74631 9.84962L2.9166 13.0833L6.15025 12.2536L12.6258 5.77774L10.2219 3.37379Z" fill="#5E2A8C"/>
<path fill-rule="evenodd" clip-rule="evenodd" d="M10.4584 5.54199C10.5886 5.67217 10.5886 5.88322 10.4584 6.0134L6.45857 10.0134C6.32839 10.1436 6.11734 10.1436 5.98716 10.0134C5.85698 9.88323 5.85698 9.67218 5.98715 9.542L9.987 5.542C10.1172 5.41182 10.3282 5.41182 10.4584 5.54199Z" fill="#5E2A8C"/>
<path fill-rule="evenodd" clip-rule="evenodd" d="M4.65354 10.8757C4.78372 10.7456 4.99478 10.7456 5.12495 10.8757L6.45823 12.2091C6.5884 12.3393 6.5884 12.5503 6.45822 12.6805C6.32804 12.8107 6.11699 12.8106 5.98682 12.6805L4.65353 11.3471C4.52336 11.217 4.52337 11.0059 4.65354 10.8757Z" fill="#5E2A8C"/>
<path fill-rule="evenodd" clip-rule="evenodd" d="M11.6469 0.979722C11.8422 0.784464 12.1588 0.78447 12.354 0.979736L15.0206 3.6464C15.2159 3.84167 15.2159 4.15825 15.0206 4.35351C14.8253 4.54877 14.5087 4.54876 14.3135 4.3535L11.6469 1.68683C11.4517 1.49156 11.4517 1.17498 11.6469 0.979722Z" fill="#5E2A8C"/>
</svg>
