<svg width="128" height="108" viewBox="0 0 128 108" fill="none" xmlns="http://www.w3.org/2000/svg">
<path d="M61.8059 1.48438L58.9651 19.2918H40.5059L61.8059 1.48438Z" fill="#C2BAF3"/>
<path d="M58.9663 19.7094H40.5071C40.3312 19.7094 40.1756 19.6001 40.1145 19.4353C40.0552 19.2705 40.1052 19.0853 40.2386 18.9742L61.5386 1.16494C61.6719 1.05383 61.8608 1.03716 62.0108 1.12235C62.1626 1.20753 62.2441 1.3779 62.2163 1.55013L59.3756 19.3594C59.346 19.5612 59.1719 19.7094 58.9663 19.7094ZM41.6552 18.8761H58.6108L61.22 2.51864L41.6552 18.8761Z" fill="#F5F6F7"/>
<path d="M63.5103 34.9613C63.3825 34.9613 63.2547 34.9021 63.1732 34.791L62.0492 33.2576C61.9232 33.0854 61.9473 32.8447 62.1066 32.7002C62.2658 32.5576 62.5084 32.5576 62.6658 32.7039C62.6732 32.7113 62.6825 32.7188 62.6899 32.728C62.6973 32.7354 62.7047 32.7447 62.7103 32.7521C62.7288 32.7743 62.7492 32.8039 62.7695 32.8317L63.8455 34.2984C63.9806 34.4836 63.9418 34.7447 63.7566 34.8799C63.6825 34.9354 63.5973 34.9613 63.5103 34.9613Z" fill="#F5F6F7"/>
<mask id="mask0_1515_64672" style="mask-type:luminance" maskUnits="userSpaceOnUse" x="61" y="32" width="3" height="3">
<path d="M63.5103 34.9613C63.3825 34.9613 63.2547 34.9021 63.1732 34.791L62.0492 33.2576C61.9232 33.0854 61.9473 32.8447 62.1066 32.7002C62.2658 32.5576 62.5084 32.5576 62.6658 32.7039C62.6732 32.7113 62.6825 32.7188 62.6899 32.728C62.6973 32.7354 62.7047 32.7447 62.7103 32.7521C62.7288 32.7743 62.7492 32.8039 62.7695 32.8317L63.8455 34.2984C63.9806 34.4836 63.9418 34.7447 63.7566 34.8799C63.6825 34.9354 63.5973 34.9613 63.5103 34.9613Z" fill="white"/>
</mask>
<g mask="url(#mask0_1515_64672)">
<path d="M63.2749 34.1205L67.9453 40.4872C67.6675 40.1075 67.3712 39.739 67.0564 39.3797C63.6027 35.4446 58.5675 33.476 53.2193 33.476C50.899 33.476 48.5212 33.8464 46.186 34.5872L41.5156 28.2205C43.8508 27.4797 46.2286 27.1094 48.549 27.1094C53.8971 27.1094 58.9323 29.0779 62.386 33.0131C62.7008 33.3723 62.9971 33.7409 63.2749 34.1205Z" fill="#5A42DE"/>
<path d="M67.9467 40.9045C67.8189 40.9045 67.6911 40.8452 67.6096 40.7341C67.3393 40.3637 67.0467 40.0008 66.743 39.6545C63.4819 35.9397 58.68 33.8934 53.2189 33.8934C50.9171 33.8934 48.5948 34.26 46.3115 34.9841C46.1411 35.0378 45.956 34.9767 45.8485 34.8341L41.1782 28.4674C41.0985 28.36 41.0763 28.2193 41.1189 28.0915C41.1597 27.9637 41.2615 27.8637 41.3893 27.823C43.7541 27.073 46.1615 26.6934 48.5485 26.6934C54.2523 26.6934 59.2782 28.8397 62.6985 32.7378C63.0189 33.1026 63.3245 33.486 63.6115 33.8748L68.2782 40.2378C68.28 40.2397 68.28 40.2415 68.2819 40.2415C68.4171 40.4267 68.3782 40.6878 68.193 40.8248C68.1189 40.8785 68.0337 40.9045 67.9467 40.9045ZM53.2208 33.06C57.4967 33.06 61.3911 34.2674 64.5152 36.5137L62.9411 34.3674C62.6708 33.9971 62.3782 33.6341 62.0745 33.2878C58.8134 29.573 54.0115 27.5267 48.5504 27.5267C46.4356 27.5267 44.3023 27.836 42.2004 28.4489L46.3467 34.1026C48.6189 33.41 50.93 33.06 53.2208 33.06Z" fill="#F5F6F7"/>
</g>
<path d="M38.8082 63.5339C38.6934 63.5339 38.5804 63.4876 38.4971 63.395L38.4322 63.3209C38.2174 63.0746 38.0119 62.8191 37.8211 62.5598L33.1508 56.1932C33.0156 56.008 33.0545 55.7469 33.2396 55.6117C33.4248 55.4765 33.6859 55.5154 33.823 55.7006L33.8267 55.7061C34.0026 55.945 34.1915 56.1802 34.3896 56.4061L34.4489 56.4728C34.4582 56.4839 34.4674 56.4932 34.4748 56.5043L39.1452 62.8709C39.2767 63.0506 39.2452 63.3006 39.0711 63.4413C38.9933 63.5043 38.8989 63.5339 38.8082 63.5339Z" fill="#F5F6F7"/>
<mask id="mask1_1515_64672" style="mask-type:luminance" maskUnits="userSpaceOnUse" x="33" y="55" width="7" height="9">
<path d="M38.8082 63.5339C38.6934 63.5339 38.5804 63.4876 38.4971 63.395L38.4322 63.3209C38.2174 63.0746 38.0119 62.8191 37.8211 62.5598L33.1508 56.1932C33.0156 56.008 33.0545 55.7469 33.2396 55.6117C33.4248 55.4765 33.6859 55.5154 33.823 55.7006L33.8267 55.7061C34.0026 55.945 34.1915 56.1802 34.3896 56.4061L34.4489 56.4728C34.4582 56.4839 34.4674 56.4932 34.4748 56.5043L39.1452 62.8709C39.2767 63.0506 39.2452 63.3006 39.0711 63.4413C38.9933 63.5043 38.8989 63.5339 38.8082 63.5339Z" fill="white"/>
</mask>
<g mask="url(#mask1_1515_64672)">
<g opacity="0.6">
<path d="M34.4771 57.1139L39.1474 63.4806C39.0104 63.3398 38.8752 63.1954 38.7456 63.0473C38.5363 62.8102 38.34 62.5639 38.1567 62.3139L33.4863 55.9473C33.6697 56.1973 33.866 56.4436 34.0752 56.6806C34.2049 56.8287 34.34 56.9732 34.4771 57.1139Z" fill="#5A42DE"/>
<path d="M39.145 63.8969C39.0357 63.8969 38.9283 63.8543 38.8468 63.7709C38.7024 63.6246 38.5617 63.4728 38.4283 63.3209C38.2135 63.0765 38.008 62.8209 37.8172 62.5598L33.1469 56.1932C33.0117 56.008 33.0506 55.7469 33.2357 55.6117C33.4209 55.4765 33.682 55.5154 33.8191 55.7006L33.8228 55.7061C33.9987 55.945 34.1876 56.1802 34.3857 56.4061C34.5098 56.5469 34.6394 56.6876 34.7728 56.8228C34.7876 56.8376 34.7987 56.8524 34.8117 56.8672L39.482 63.2339C39.6117 63.4098 39.582 63.6561 39.4154 63.7987C39.3376 63.8654 39.2413 63.8969 39.145 63.8969Z" fill="#F5F6F7"/>
</g>
</g>
<path d="M39.1459 63.8958C39.0366 63.8958 38.9292 63.8532 38.8478 63.7699C38.7274 63.6476 38.6089 63.5217 38.494 63.3921C38.4903 63.3865 38.4848 63.3828 38.4811 63.3773C38.4329 63.318 38.3774 63.2402 38.3255 63.168L38.2681 63.0884L33.7977 56.9939C33.6663 56.8143 33.6977 56.5643 33.8718 56.4236C34.044 56.2828 34.2959 56.3032 34.444 56.4699C34.5515 56.5884 34.6607 56.705 34.7718 56.8199C34.7848 56.8347 34.7977 56.8495 34.8107 56.8643L39.4811 63.231C39.6107 63.4069 39.5811 63.6532 39.4144 63.7958C39.3366 63.8643 39.2422 63.8958 39.1459 63.8958Z" fill="#F5F6F7"/>
<mask id="mask2_1515_64672" style="mask-type:luminance" maskUnits="userSpaceOnUse" x="33" y="56" width="7" height="8">
<path d="M39.1459 63.8958C39.0366 63.8958 38.9292 63.8532 38.8478 63.7699C38.7274 63.6476 38.6089 63.5217 38.494 63.3921C38.4903 63.3865 38.4848 63.3828 38.4811 63.3773C38.4329 63.318 38.3774 63.2402 38.3255 63.168L38.2681 63.0884L33.7977 56.9939C33.6663 56.8143 33.6977 56.5643 33.8718 56.4236C34.044 56.2828 34.2959 56.3032 34.444 56.4699C34.5515 56.5884 34.6607 56.705 34.7718 56.8199C34.7848 56.8347 34.7977 56.8495 34.8107 56.8643L39.4811 63.231C39.6107 63.4069 39.5811 63.6532 39.4144 63.7958C39.3366 63.8643 39.2422 63.8958 39.1459 63.8958Z" fill="white"/>
</mask>
<g mask="url(#mask2_1515_64672)">
<g opacity="0.6">
<path d="M34.4771 57.1139L39.1474 63.4806C39.0104 63.3398 38.8752 63.1954 38.7456 63.0473C38.5363 62.8102 38.34 62.5639 38.1567 62.3139L33.4863 55.9473C33.6697 56.1973 33.866 56.4436 34.0752 56.6806C34.2049 56.8287 34.34 56.9732 34.4771 57.1139Z" fill="#5A42DE"/>
<path d="M39.145 63.8969C39.0357 63.8969 38.9283 63.8543 38.8469 63.7709C38.7024 63.6246 38.5617 63.4728 38.4283 63.3209C38.2135 63.0765 38.008 62.8209 37.8172 62.5598L33.1469 56.1932C33.0117 56.008 33.0506 55.7469 33.2357 55.6117C33.4209 55.4765 33.682 55.5154 33.8191 55.7006L33.8228 55.7061C33.9987 55.945 34.1876 56.1802 34.3857 56.4061C34.5098 56.5469 34.6394 56.6876 34.7728 56.8228C34.7876 56.8376 34.7987 56.8524 34.8117 56.8672L39.482 63.2339C39.6117 63.4098 39.582 63.6561 39.4154 63.7987C39.3376 63.8654 39.2413 63.8969 39.145 63.8969Z" fill="#F5F6F7"/>
</g>
</g>
<path d="M58.7102 49.2893C58.5991 49.6411 58.4713 49.9948 58.3306 50.343C58.0287 51.0911 57.662 51.8263 57.2306 52.5393C57.0232 52.8819 56.8028 53.2208 56.5639 53.5541C55.7565 54.693 54.775 55.7634 53.6269 56.7208C50.5028 59.3337 46.7472 60.6374 43.1991 60.6374C39.6528 60.6374 36.3139 59.3319 34.025 56.7208C29.4417 51.4985 30.7917 43.0356 37.038 37.8171C40.1621 35.2041 43.9176 33.9004 47.4658 33.9004C51.0121 33.9004 54.3509 35.206 56.6398 37.8171C56.7065 37.893 56.7695 37.9671 56.8287 38.043C57.1269 38.4022 57.4009 38.7782 57.6454 39.1615C58.088 39.8578 58.438 40.5893 58.7083 41.3559C58.8472 41.7448 58.9621 42.143 59.0528 42.5467C59.5546 44.7059 59.4269 47.0319 58.7102 49.2893Z" fill="#E8E5FA"/>
<path d="M59.0509 42.5469H46.8361C45.5472 42.5469 44.6602 41.5413 44.8602 40.2969C45.0583 39.0524 46.2639 38.0469 47.5546 38.0469H56.8287C57.1269 38.4061 57.4009 38.7821 57.6454 39.1654C58.088 39.8617 58.438 40.5932 58.7083 41.3598C58.8454 41.745 58.9602 42.1432 59.0509 42.5469Z" fill="#8674E7"/>
<path d="M58.7069 49.289C58.5958 49.6408 58.468 49.9945 58.3273 50.3427C58.0255 51.0908 57.6588 51.826 57.2273 52.539C57.0199 52.8816 56.7995 53.2204 56.5606 53.5538H44.9532C43.7292 53.5538 42.8958 52.5982 43.0829 51.4204C43.2717 50.2427 44.4125 49.2871 45.6329 49.2871H58.7069V49.289Z" fill="#8674E7"/>
<path d="M62.1777 1.17578H113.706L112.918 6.11282L99.3777 91.0128H34.1888H29.0703L33.1648 65.335C35.8611 66.7313 38.9388 67.4295 42.1259 67.4295C46.4092 67.4295 50.8925 66.1684 54.9277 63.6443H91.0573C91.6851 63.6443 92.2685 63.1554 92.3666 62.5499C92.4629 61.948 92.0333 61.4591 91.4073 61.4591H57.9222C60.9814 58.8813 63.2499 55.785 64.6796 52.5147H92.8333C93.4611 52.5147 94.0444 52.0258 94.1407 51.4239C94.237 50.8202 93.8073 50.3295 93.1814 50.3295H65.5055C66.4555 47.3499 66.7185 44.2887 66.2666 41.385H94.6074C95.2351 41.385 95.8185 40.8962 95.9148 40.2943C96.0111 39.6906 95.5814 39.1999 94.9555 39.1999H65.7796C65.1203 36.9536 63.9962 34.8499 62.387 33.011C58.9333 29.0758 53.8981 27.1073 48.5499 27.1073C45.3648 27.1073 42.0703 27.8054 38.9296 29.1999L40.5092 19.2906H58.9685L61.8092 1.48504L62.1777 1.17578ZM89.2833 74.7721C89.9111 74.7721 90.4944 74.2832 90.5925 73.6776C90.6888 73.0758 90.2592 72.5869 89.6333 72.5869H45.6796C45.0555 72.5869 44.4703 73.0758 44.374 73.6776C44.2777 74.2813 44.7073 74.7721 45.3314 74.7721H89.2833ZM96.3833 30.2573C97.011 30.2573 97.5944 29.7684 97.6907 29.1665C97.787 28.5628 97.3573 28.0721 96.7314 28.0721H66.937C66.311 28.0721 65.7277 28.561 65.6314 29.1665C65.5351 29.7684 65.961 30.2573 66.5888 30.2573H96.3833Z" fill="#F5F6F7"/>
<path d="M99.3778 91.428H29.0704C28.9482 91.428 28.8334 91.3743 28.7537 91.2817C28.6741 91.1891 28.6408 91.0669 28.6593 90.9465L32.7556 65.2687C32.776 65.1372 32.8593 65.0224 32.9797 64.9632C33.0982 64.9021 33.2408 64.9039 33.3593 64.965C35.9482 66.3058 38.9797 67.0132 42.1278 67.0132C46.4667 67.0132 50.8167 65.7261 54.7074 63.2909C54.7741 63.2502 54.85 63.228 54.9278 63.228H91.0574C91.4797 63.228 91.8908 62.8872 91.9537 62.4854C91.9797 62.3224 91.9426 62.1706 91.8482 62.0595C91.7482 61.9409 91.5908 61.8761 91.4056 61.8761H57.9223C57.7463 61.8761 57.5908 61.7669 57.5315 61.6021C57.4723 61.4372 57.5204 61.2539 57.6537 61.141C60.5537 58.6965 62.8519 55.6558 64.2982 52.3484C64.3648 52.1965 64.5148 52.0984 64.6797 52.0984H92.8334C93.2556 52.0984 93.6667 51.7595 93.7297 51.3576C93.7556 51.1928 93.7185 51.0409 93.6241 50.9298C93.5241 50.8113 93.3667 50.7465 93.1815 50.7465H65.5056C65.3723 50.7465 65.2482 50.6835 65.1685 50.5761C65.0908 50.4687 65.0685 50.3298 65.1074 50.2039C66.0352 47.2946 66.2926 44.2669 65.8537 41.4502C65.8352 41.3298 65.8704 41.2076 65.9482 41.115C66.026 41.0224 66.1426 40.9687 66.2648 40.9687H94.6056C95.0278 40.9687 95.4389 40.6298 95.5019 40.228C95.5278 40.0632 95.4908 39.9113 95.3963 39.8002C95.2963 39.6817 95.1389 39.6169 94.9537 39.6169H65.7797C65.5945 39.6169 65.4315 39.4946 65.3797 39.3169C64.7204 37.0669 63.6074 35.0372 62.0723 33.2854C58.8111 29.5706 54.0093 27.5243 48.5482 27.5243C45.3926 27.5243 42.1241 28.2354 39.0963 29.5817C38.9574 29.6428 38.7945 29.6243 38.6723 29.5317C38.55 29.4391 38.4908 29.2872 38.5148 29.1354L40.0945 19.2261C40.126 19.0243 40.3019 18.8743 40.5056 18.8743H58.6093L61.3926 1.41872C61.4074 1.32058 61.4593 1.22983 61.5352 1.16502L61.9056 0.852054C61.9815 0.789091 62.076 0.753906 62.1741 0.753906H113.706C113.828 0.753906 113.943 0.807612 114.022 0.900204C114.102 0.992797 114.135 1.11502 114.117 1.23539L99.7889 91.0724C99.7574 91.2798 99.5834 91.428 99.3778 91.428ZM29.5574 90.5947H99.0222L113.217 1.59094H62.3297L62.1945 1.70576L59.3797 19.3595C59.3482 19.5613 59.1723 19.7113 58.9686 19.7113H40.8648L39.4593 28.5243C42.3945 27.3243 45.5204 26.6928 48.55 26.6928C54.2537 26.6928 59.2797 28.8391 62.7 32.7372C64.2463 34.5039 65.3852 36.5354 66.0889 38.7835H94.9574C95.3834 38.7835 95.7759 38.9576 96.0334 39.2595C96.2889 39.5595 96.3945 39.9502 96.3278 40.3595C96.1982 41.1687 95.4426 41.8021 94.6074 41.8021H66.7463C67.0834 44.4298 66.85 47.2132 66.0667 49.9132H93.1815C93.6074 49.9132 94 50.0872 94.2574 50.3891C94.513 50.6891 94.6185 51.0798 94.5519 51.4891C94.4222 52.2984 93.6667 52.9317 92.8315 52.9317H64.95C63.5926 55.9354 61.5593 58.715 59.026 61.0428H91.4056C91.8315 61.0428 92.2241 61.2169 92.4815 61.5187C92.7371 61.8187 92.8408 62.2076 92.776 62.6169C92.6463 63.4261 91.8908 64.0613 91.0556 64.0613H55.0463C51.0482 66.5391 46.5834 67.8465 42.126 67.8465C39.05 67.8465 36.0778 67.1965 33.4871 65.9595L29.5574 90.5947ZM89.2834 75.1891H45.3315C44.9074 75.1891 44.5148 75.0169 44.2574 74.7132C44.0019 74.4132 43.8963 74.0224 43.963 73.6113C44.0926 72.8021 44.8463 72.1687 45.6797 72.1687H89.6315C90.0574 72.1687 90.45 72.3428 90.7074 72.6447C90.963 72.9447 91.0667 73.3335 91.0019 73.7428C90.8741 74.5539 90.1185 75.1891 89.2834 75.1891ZM45.6797 73.0039C45.2593 73.0039 44.85 73.3428 44.7852 73.7447C44.7593 73.9095 44.7963 74.0632 44.8908 74.1743C44.9908 74.2928 45.1482 74.3576 45.3297 74.3576H89.2815C89.7037 74.3576 90.1148 74.0169 90.1778 73.615C90.2037 73.4521 90.1667 73.3002 90.0723 73.1891C89.9723 73.0706 89.8148 73.0058 89.6297 73.0058H45.6797V73.0039ZM96.3834 30.6743H66.5889C66.163 30.6743 65.7722 30.5021 65.5148 30.2002C65.2593 29.9002 65.1556 29.5113 65.2204 29.1021C65.35 28.2909 66.1037 27.6576 66.9371 27.6576H96.7315C97.1574 27.6576 97.55 27.8317 97.8074 28.1335C98.063 28.4335 98.1685 28.8243 98.1019 29.2335C97.9741 30.0409 97.2185 30.6743 96.3834 30.6743ZM66.9371 28.4891C66.5167 28.4891 66.1074 28.8298 66.0426 29.2317C66.0167 29.3965 66.0537 29.5484 66.1482 29.6576C66.2482 29.7743 66.4037 29.8391 66.5889 29.8391H96.3834C96.8056 29.8391 97.2167 29.5002 97.2797 29.0984C97.3056 28.9335 97.2685 28.7817 97.1741 28.6706C97.0741 28.5521 96.9167 28.4872 96.7315 28.4872H66.9371V28.4891Z" fill="#F5F6F7"/>
<g opacity="0.5">
<g opacity="0.6">
<path d="M37.6129 37.4316L37.1703 40.2113C37.1017 40.2631 37.0332 40.315 36.9666 40.3724C35.461 41.6279 35.1369 43.6687 36.2406 44.9261C36.2888 44.9816 36.3406 45.0353 36.3943 45.0853L34.4758 57.1113C34.3388 56.9705 34.2036 56.8261 34.074 56.6779C31.7962 54.0798 30.9925 50.6742 31.5369 47.2705C32.0795 43.865 33.9684 40.4613 37.0758 37.865C37.2499 37.7168 37.4314 37.5724 37.6129 37.4316Z" fill="#C2BAF3"/>
</g>
</g>
<path d="M93.1796 50.3301C93.8074 50.3301 94.2351 50.819 94.1388 51.4245C94.0425 52.0264 93.4574 52.5153 92.8314 52.5153H64.6777C64.9944 51.7949 65.2703 51.0653 65.5018 50.3301H93.1796Z" fill="#C2BAF3"/>
<path d="M92.8311 52.9307H64.6774C64.5366 52.9307 64.4051 52.8604 64.3292 52.7418C64.2533 52.6233 64.2403 52.4752 64.2959 52.3474C64.6088 51.6326 64.8811 50.9122 65.1051 50.2048C65.1588 50.0307 65.32 49.9141 65.5033 49.9141H93.1792C93.6051 49.9141 93.9977 50.0881 94.2551 50.39C94.5107 50.69 94.6162 51.0807 94.5496 51.49C94.4218 52.2974 93.6663 52.9307 92.8311 52.9307ZM65.307 52.0974H92.8311C93.2533 52.0974 93.6644 51.7585 93.7274 51.3567C93.7533 51.1918 93.7163 51.04 93.6218 50.9289C93.5218 50.8104 93.3644 50.7455 93.1792 50.7455H65.8051C65.657 51.1937 65.4903 51.6455 65.307 52.0974Z" fill="#C2BAF3"/>
<path d="M91.4073 61.4609C92.035 61.4609 92.4628 61.9498 92.3665 62.5517C92.2702 63.1554 91.685 63.6461 91.0573 63.6461H54.9258C55.9276 63.0202 56.9017 62.3146 57.8369 61.5332C57.8647 61.5091 57.8943 61.485 57.9221 61.4628H91.4073V61.4609Z" fill="#C2BAF3"/>
<path d="M91.0576 64.0616H54.9262C54.741 64.0616 54.5762 63.9394 54.5262 63.7597C54.4743 63.582 54.5484 63.3894 54.7058 63.2912C55.7002 62.669 56.6632 61.969 57.5706 61.2116L57.6484 61.1468C57.7243 61.0838 57.8243 61.0449 57.9225 61.0449H91.4076C91.8336 61.0449 92.2262 61.219 92.4836 61.5208C92.7391 61.8208 92.8428 62.2097 92.778 62.619C92.6484 63.4264 91.8947 64.0616 91.0576 64.0616ZM56.3077 63.2283H91.0576C91.4799 63.2283 91.891 62.8875 91.9539 62.4857C91.9799 62.3227 91.9428 62.1708 91.8484 62.0597C91.7484 61.9412 91.591 61.8764 91.4058 61.8764H58.0725C57.5058 62.3505 56.9151 62.8023 56.3077 63.2283Z" fill="#C2BAF3"/>
<path d="M117.911 6.90911L117.252 11.0499L117.124 11.848L103.711 95.9461H32.6907L29.0703 91.011H99.3777L112.918 6.11467L113.707 1.17578L117.911 6.90911Z" fill="#E8E5FA"/>
<path d="M103.711 96.3639H32.6925C32.5592 96.3639 32.4351 96.3009 32.3573 96.1935L28.7351 91.2583C28.6425 91.1324 28.6277 90.9639 28.6999 90.8231C28.7703 90.6824 28.9147 90.5954 29.0722 90.5954H99.024L112.509 6.04907L113.298 1.11018C113.324 0.943511 113.448 0.810181 113.611 0.771292C113.776 0.732403 113.946 0.793514 114.044 0.930551L118.248 6.66388C118.315 6.75277 118.341 6.86573 118.324 6.97499L117.537 11.9139L104.122 96.0139C104.089 96.2157 103.915 96.3639 103.711 96.3639ZM32.9018 95.5305H103.354L116.713 11.7824L117.472 7.01573L113.961 2.22685L113.33 6.18055L99.7888 91.0768C99.7573 91.2787 99.5814 91.4287 99.3777 91.4287H29.8925L32.9018 95.5305Z" fill="#F5F6F7"/>
<path d="M108.042 100.885L112.712 107.251H42.4008L37.7305 100.885H108.042Z" fill="#C2BAF3"/>
<path d="M112.712 107.669H42.4008C42.2675 107.669 42.1434 107.606 42.0656 107.498L37.3953 101.132C37.3027 101.006 37.2879 100.837 37.3601 100.697C37.4305 100.556 37.5749 100.469 37.7323 100.469H108.043C108.177 100.469 108.301 100.532 108.379 100.639L113.049 107.006C113.142 107.132 113.156 107.3 113.084 107.441C113.012 107.58 112.869 107.669 112.712 107.669ZM42.6119 106.835H111.89L107.83 101.302H38.5527L42.6119 106.835Z" fill="#F5F6F7"/>
<path d="M122.369 11.0488L108.042 100.884H37.7305L38.5175 95.9451H103.71L117.249 11.0488H122.369Z" fill="#F5F6F7"/>
<path d="M108.042 101.301H37.7306C37.6083 101.301 37.4935 101.248 37.4139 101.155C37.3343 101.062 37.3009 100.94 37.3194 100.82L38.1065 95.8828C38.138 95.681 38.3139 95.531 38.5176 95.531H103.355L116.838 10.9847C116.869 10.7828 117.045 10.6328 117.249 10.6328H122.369C122.492 10.6328 122.606 10.6865 122.686 10.7791C122.766 10.8717 122.799 10.9939 122.781 11.1143L108.453 100.949C108.421 101.151 108.247 101.301 108.042 101.301ZM38.2194 100.468H107.686L121.881 11.4661H117.605L104.121 96.0124C104.09 96.2143 103.914 96.3643 103.71 96.3643H38.8731L38.2194 100.468Z" fill="#F5F6F7"/>
<path d="M122.369 11.0488L127.039 17.4155L112.711 107.251L108.041 100.884L122.369 11.0488Z" fill="#E8E5FA"/>
<path d="M112.711 107.668C112.58 107.668 112.456 107.607 112.376 107.498L107.706 101.131C107.639 101.042 107.613 100.929 107.63 100.818L121.958 10.9832C121.984 10.8166 122.108 10.6832 122.271 10.6443C122.435 10.6054 122.606 10.6666 122.704 10.8036L127.374 17.1703C127.441 17.2592 127.467 17.3721 127.45 17.4832L113.123 107.318C113.097 107.485 112.973 107.618 112.81 107.657C112.776 107.665 112.743 107.668 112.711 107.668ZM108.48 100.778L112.456 106.2L126.598 17.5221L122.623 12.0999L108.48 100.778Z" fill="#F5F6F7"/>
<path d="M30.6541 63.7422L6.39113 84.0255C6.33372 84.0737 6.27446 84.1163 6.21521 84.1607C6.18743 84.1811 6.1615 84.2014 6.13372 84.2218C6.08558 84.2551 6.03558 84.2848 5.98743 84.3163C5.95224 84.3385 5.91706 84.3626 5.88187 84.3829C5.85595 84.3977 5.82817 84.4107 5.80224 84.4255C5.73743 84.4607 5.67076 84.4959 5.60409 84.5255C5.58002 84.5366 5.55595 84.5459 5.53187 84.5551C5.44298 84.594 5.35409 84.6274 5.2652 84.657C5.22446 84.6718 5.18187 84.6848 5.13928 84.6977C5.10595 84.707 5.07076 84.7181 5.03743 84.7255C4.98372 84.7385 4.93002 84.7514 4.87632 84.7626C4.84298 84.77 4.80965 84.7755 4.77817 84.7811C4.71891 84.7903 4.6615 84.7977 4.60224 84.8051C4.57446 84.8088 4.54669 84.8125 4.51891 84.8144C4.43372 84.8218 4.34669 84.8255 4.2615 84.8255C3.53558 84.8255 2.85409 84.5589 2.38557 84.0255L1.52076 83.0403C1.47817 82.9922 1.43928 82.9422 1.40039 82.8903L6.07076 89.257C6.1078 89.3089 6.14854 89.3589 6.19113 89.407L7.05594 90.3922C7.52446 90.9255 8.20595 91.1922 8.93187 91.1922C9.01706 91.1922 9.10224 91.1885 9.18928 91.1811C9.21706 91.1792 9.24483 91.1737 9.27261 91.1718C9.33187 91.1644 9.38928 91.157 9.44854 91.1477C9.48187 91.1422 9.5152 91.1348 9.54668 91.1292C9.60039 91.1181 9.65409 91.107 9.7078 91.0922C9.74298 91.0829 9.77632 91.0737 9.80965 91.0644C9.83372 91.057 9.85965 91.0514 9.88372 91.044C9.90039 91.0385 9.91706 91.0311 9.93557 91.0237C10.0263 90.994 10.1152 90.9589 10.2022 90.9218C10.2189 90.9144 10.2374 90.9088 10.2559 90.9014C10.2634 90.8977 10.2689 90.894 10.2763 90.8922C10.343 90.8607 10.4078 90.8274 10.4745 90.7922C10.4985 90.7792 10.5226 90.77 10.5467 90.7551C10.5504 90.7533 10.5522 90.7514 10.5541 90.7496C10.5893 90.7292 10.6245 90.7051 10.6596 90.6829C10.7041 90.6551 10.7504 90.6292 10.7948 90.5977C10.7985 90.5959 10.8022 90.5922 10.8059 90.5885C10.8337 90.57 10.8596 90.5477 10.8874 90.5274C10.9319 90.494 10.9782 90.4625 11.0208 90.4274C11.0356 90.4162 11.0485 90.4051 11.0634 90.3922L35.3263 70.1089L30.6541 63.7422Z" fill="#5A42DE"/>
<path d="M8.92758 91.6082C8.0498 91.6082 7.27202 91.273 6.73869 90.6656L5.87388 89.6805C5.82388 89.623 5.77573 89.5638 5.73128 89.5027L1.06277 83.1397C1.06277 83.1379 1.06091 83.1379 1.06091 83.136C0.925728 82.9508 0.964619 82.6897 1.1498 82.5545C1.33499 82.4193 1.5961 82.4582 1.73129 82.6434L1.73314 82.6471C1.76277 82.6879 1.79425 82.7267 1.82758 82.7656L2.69239 83.7508C3.06462 84.1749 3.62017 84.4082 4.25536 84.4082C4.32943 84.4082 4.40165 84.4045 4.47573 84.3971L4.5498 84.3879C4.5998 84.3823 4.6498 84.3768 4.70165 84.3675C4.72202 84.3638 4.74425 84.3601 4.76462 84.3545L4.78869 84.349C4.83499 84.3397 4.88313 84.3286 4.92943 84.3175C4.95906 84.3101 4.99054 84.3008 5.02017 84.2934C5.05721 84.2823 5.09239 84.2712 5.12943 84.2582C5.20721 84.2323 5.28499 84.2027 5.36277 84.1693L5.42573 84.1434C5.48499 84.1156 5.5424 84.086 5.5998 84.0545L5.67017 84.0175C5.68499 84.0082 5.70165 83.999 5.71647 83.9879L5.79425 83.9379C5.82758 83.9175 5.85906 83.8971 5.8924 83.8749C5.90351 83.8675 5.91462 83.8582 5.92573 83.849L5.97943 83.8082C6.02573 83.773 6.07387 83.7397 6.11832 83.7008L30.3813 63.4175C30.4702 63.3434 30.5831 63.3101 30.6979 63.3231C30.8128 63.336 30.9146 63.3971 30.9831 63.4897L35.6535 69.8564C35.7831 70.0342 35.7535 70.2823 35.585 70.4231L11.2776 90.7508C11.2387 90.7823 11.1998 90.8119 11.1591 90.8397L11.1054 90.8786C11.0831 90.8953 11.0609 90.9119 11.0387 90.9286C10.9887 90.9638 10.9498 90.9879 10.9109 91.0119L10.8424 91.0545C10.8165 91.0712 10.7905 91.0879 10.7646 91.1027C10.7572 91.1082 10.7498 91.1119 10.7424 91.1156C10.7257 91.1249 10.7035 91.136 10.6831 91.1453L10.6665 91.1527C10.5924 91.1916 10.5202 91.2305 10.4442 91.2656C10.4461 91.2656 10.4331 91.2712 10.422 91.2767C10.4035 91.2842 10.3831 91.2934 10.3628 91.3008C10.2628 91.3434 10.1628 91.3823 10.0628 91.4156C10.0461 91.423 10.0239 91.4305 10.0035 91.4379C9.98499 91.4434 9.96277 91.449 9.94239 91.4545L9.92202 91.4601C9.88314 91.4712 9.84425 91.4823 9.80536 91.4916C9.74425 91.5064 9.68499 91.5212 9.62388 91.5323L9.60351 91.536C9.57202 91.5416 9.54239 91.549 9.51091 91.5545C9.44425 91.5656 9.37758 91.5749 9.31276 91.5823L9.28869 91.586C9.26462 91.5897 9.24239 91.5916 9.21832 91.5934C9.11462 91.6045 9.02017 91.6082 8.92758 91.6082ZM3.59054 85.1749L6.40536 89.0119C6.43499 89.0527 6.46832 89.0934 6.50165 89.1323L7.36647 90.1175C7.78128 90.5916 8.43314 90.8267 9.1498 90.7656L9.22202 90.7564C9.27202 90.7508 9.32387 90.7453 9.37387 90.736C9.39425 90.7323 9.41647 90.7286 9.43684 90.723L9.45906 90.7193C9.50721 90.7101 9.5535 90.699 9.5998 90.6879C9.62943 90.6805 9.65906 90.6712 9.69054 90.6638L9.7535 90.6471C9.76462 90.6416 9.78313 90.6342 9.7998 90.6286C9.87758 90.6027 9.95721 90.573 10.035 90.5379C10.0498 90.5305 10.0665 90.5249 10.0831 90.5193L10.0961 90.5138C10.1572 90.486 10.2146 90.4545 10.2739 90.423C10.2887 90.4138 10.3054 90.4064 10.3202 90.399L10.3331 90.3916C10.3368 90.3879 10.3424 90.386 10.3461 90.3842C10.3591 90.3767 10.3757 90.3656 10.3924 90.3564L10.4794 90.3027C10.5054 90.2879 10.5313 90.2712 10.5554 90.2545C10.5776 90.2379 10.5887 90.2305 10.5998 90.2212L10.6702 90.1675C10.6979 90.1471 10.7257 90.1267 10.7535 90.1045L10.7905 90.0749L34.7554 70.0416L30.5794 64.3471L6.65536 84.3453C6.5961 84.3934 6.53684 84.4397 6.47573 84.4842L6.43499 84.5156C6.41276 84.5323 6.39239 84.549 6.37017 84.5638C6.32573 84.5934 6.28128 84.6212 6.23684 84.649L6.17202 84.6897C6.14425 84.7082 6.11647 84.7249 6.08869 84.7416C6.06647 84.7545 6.04425 84.7656 6.02203 84.7768L5.99795 84.7897C5.92573 84.8286 5.85165 84.8675 5.77758 84.9027C5.75721 84.9119 5.73684 84.9212 5.71462 84.9286L5.69425 84.9379C5.5961 84.9805 5.4961 85.0193 5.39425 85.0527C5.34795 85.0693 5.2998 85.0842 5.2535 85.0971C5.21462 85.1082 5.17573 85.1193 5.13684 85.1286C5.07758 85.1434 5.01647 85.1582 4.95536 85.1693L4.93499 85.173C4.90536 85.1786 4.87388 85.186 4.84425 85.1897C4.77758 85.2008 4.71276 85.2101 4.6461 85.2175L4.62017 85.2212C4.59795 85.2249 4.57388 85.2268 4.5498 85.2286C4.4461 85.2379 4.3498 85.2416 4.25721 85.2416C4.02758 85.2416 3.80351 85.2193 3.59054 85.1749Z" fill="#F5F6F7"/>
<path d="M66.2648 41.3853C66.1499 40.6464 65.987 39.9149 65.7759 39.2001C65.1185 36.952 63.9925 34.8501 62.3833 33.0112C58.9296 29.076 53.8944 27.1094 48.5462 27.1094C45.3592 27.1094 42.0648 27.8057 38.9259 29.2038C36.7888 30.1538 34.7259 31.4242 32.8185 33.0186C24.3944 40.0594 21.8814 51.0223 26.3981 58.8927L2.13143 79.1797C0.857351 80.2427 0.583276 81.9705 1.51661 83.039L2.38142 84.0242C2.84809 84.5575 3.53328 84.826 4.2555 84.826C4.98143 84.826 5.74994 84.5575 6.38513 84.0242L30.6499 63.7427C31.4425 64.3446 32.2833 64.8779 33.1629 65.3334C35.8592 66.7279 38.937 67.4279 42.124 67.4279C46.4092 67.4279 50.8925 66.1686 54.924 63.6427C55.9277 63.0168 56.8999 62.3112 57.9222 61.4575C60.9796 58.8779 63.2499 55.7834 64.6796 52.5112C64.9925 51.7946 65.2703 51.0612 65.5018 50.326C66.4518 47.352 66.7166 44.2872 66.2648 41.3853ZM53.624 56.7223C50.4999 59.3353 46.7444 60.639 43.1962 60.639C39.6499 60.639 36.3111 59.3334 34.0222 56.7223C29.4388 51.5001 30.7888 43.0372 37.0351 37.8186C40.1592 35.2057 43.9148 33.902 47.4629 33.902C51.0092 33.902 54.3481 35.2075 56.637 37.8186C56.7036 37.8946 56.7666 37.9686 56.8259 38.0446C57.124 38.4038 57.3981 38.7797 57.6425 39.1631C58.0851 39.8594 58.4351 40.5909 58.7055 41.3575C58.8444 41.7464 58.9592 42.1446 59.0499 42.5483C59.5499 44.7094 59.424 47.0353 58.7055 49.2909C58.5944 49.6427 58.4666 49.9964 58.3259 50.3446C58.024 51.0927 57.6574 51.8279 57.2259 52.5409C57.0185 52.8835 56.7981 53.2223 56.5592 53.5557C55.7555 54.6946 54.7722 55.7649 53.624 56.7223Z" fill="#8674E7"/>
<path d="M4.25604 85.2433C3.37826 85.2433 2.60048 84.9082 2.069 84.2989L1.20418 83.3137C0.726407 82.7656 0.496777 82.0452 0.556036 81.2859C0.628258 80.3785 1.10419 79.4934 1.8653 78.86L25.8671 58.7952C23.7542 54.9248 23.2153 50.2359 24.3523 45.5471C25.5283 40.7008 28.4412 36.1378 32.5542 32.6989C34.4505 31.1137 36.5394 29.81 38.7597 28.823C41.8894 27.4304 45.2745 26.6934 48.5505 26.6934C54.2542 26.6934 59.2801 28.8397 62.7005 32.7378C64.319 34.5859 65.4894 36.7211 66.1801 39.0841C66.3931 39.8082 66.5616 40.56 66.6801 41.3211C67.1394 44.2637 66.869 47.423 65.9023 50.4545C65.6708 51.1897 65.3894 51.9378 65.0653 52.6785C63.569 56.1026 61.1912 59.2471 58.1931 61.7767C57.1783 62.6248 56.182 63.3508 55.1468 63.9952C51.1282 66.5119 46.6264 67.8434 42.1264 67.8434C38.8468 67.8434 35.682 67.1026 32.9745 65.7026C32.1783 65.2915 31.4042 64.81 30.6671 64.273L6.65233 84.3452C5.96159 84.923 5.11159 85.2433 4.25604 85.2433ZM48.5486 27.5267C45.3894 27.5267 42.1208 28.2378 39.0968 29.5841C36.9468 30.5397 34.9246 31.8026 33.0875 33.3378C24.9134 40.1693 22.2523 50.8304 26.7616 58.6841C26.8616 58.86 26.8227 59.0822 26.6671 59.2119L2.39863 79.4989C1.80974 79.9915 1.43937 80.6656 1.38567 81.3508C1.34308 81.8859 1.50048 82.3878 1.83011 82.7637L2.69493 83.7489C3.06715 84.1748 3.62085 84.4082 4.25604 84.4082C4.9153 84.4082 5.57826 84.1582 6.119 83.7045L30.3838 63.423C30.5338 63.2989 30.7486 63.2933 30.9042 63.4119C31.6801 64.0026 32.5042 64.5248 33.356 64.9637C35.9449 66.3026 38.9783 67.0119 42.1264 67.0119C46.469 67.0119 50.819 65.7248 54.7042 63.2915C55.706 62.6656 56.6727 61.9619 57.656 61.1397C60.556 58.6952 62.8523 55.6545 64.2986 52.3471C64.6116 51.6322 64.8819 50.9119 65.106 50.2045C66.0338 47.2934 66.2931 44.2674 65.8542 41.4508C65.7412 40.7267 65.582 40.01 65.3782 39.3211C64.7227 37.0748 63.6097 35.0452 62.0708 33.2878C58.8116 29.573 54.0079 27.5267 48.5486 27.5267ZM43.1968 61.0563C39.3727 61.0563 36.0023 59.6156 33.7079 56.9971C31.6597 54.6637 30.6727 51.5748 30.9264 48.2971C31.2375 44.2767 33.3671 40.3397 36.7671 37.4989C39.8634 34.91 43.6616 33.4841 47.4634 33.4841C51.2875 33.4841 54.6579 34.9248 56.9523 37.5434C57.0227 37.623 57.0894 37.7026 57.1542 37.7841C57.4542 38.1452 57.7394 38.5359 57.9968 38.9378C58.4431 39.6378 58.8153 40.4045 59.1023 41.2156C59.2449 41.6156 59.3653 42.0322 59.4597 42.4545C59.9727 44.6674 59.8505 47.0748 59.106 49.4156C58.9894 49.7822 58.8579 50.1471 58.7153 50.5008C58.406 51.2693 58.0264 52.0267 57.5857 52.7563C57.3616 53.1248 57.1394 53.4656 56.9023 53.7989C56.0579 54.9896 55.0449 56.0804 53.8931 57.0434C50.7968 59.6304 46.9986 61.0563 43.1968 61.0563ZM47.4634 34.3174C43.8579 34.3174 40.2486 35.6748 37.3023 38.1378C34.0727 40.8359 32.0505 44.5637 31.7579 48.3619C31.5208 51.4137 32.4375 54.2841 34.3357 56.4471C36.469 58.8822 39.6171 60.223 43.1968 60.223C46.8023 60.223 50.4116 58.8656 53.3579 56.4026C54.456 55.4859 55.419 54.4471 56.2227 53.3156C56.4468 52.9989 56.6597 52.6767 56.8727 52.3248C57.2894 51.6341 57.6486 50.9156 57.9431 50.1878C58.0782 49.8545 58.2023 49.51 58.3116 49.1637C59.0097 46.9656 59.1264 44.71 58.6468 42.6396C58.5597 42.2489 58.4486 41.8637 58.3171 41.4952C58.0505 40.7415 57.706 40.0322 57.2949 39.386C57.0579 39.0137 56.7931 38.6508 56.5097 38.31C56.4486 38.2341 56.3894 38.1637 56.3282 38.0934C54.1912 35.6582 51.0431 34.3174 47.4634 34.3174Z" fill="#F5F6F7"/>
<path d="M43.7061 44.5067C43.669 44.4011 43.6227 44.3011 43.5598 44.2067C43.5209 44.1419 43.4746 44.0808 43.4228 44.0215C43.1098 43.666 42.6542 43.4863 42.1691 43.4863C42.1302 43.4863 42.0913 43.4882 42.0505 43.49C41.6005 43.516 41.1357 43.6937 40.7431 44.0215C40.2468 44.4363 39.9765 45.0011 39.9616 45.5419C39.9505 45.9308 40.0709 46.3067 40.332 46.6048C40.645 46.9604 41.1005 47.14 41.5857 47.14C42.0709 47.14 42.5839 46.9623 43.0098 46.6048C43.2116 46.4345 43.3783 46.2419 43.5042 46.0326C43.5635 45.9363 43.6116 45.8363 43.6542 45.7326C43.8209 45.3252 43.8413 44.89 43.7061 44.5067Z" fill="#F5F6F7"/>
<path d="M42.1871 41.226C42.1223 41.0408 42.0353 40.8649 41.9297 40.6982C41.8575 40.5852 41.7797 40.4778 41.689 40.3741C41.1371 39.7445 40.3316 39.4297 39.4778 39.4297C38.6982 39.4297 37.8797 39.6908 37.1704 40.213C37.1019 40.2649 37.0334 40.3167 36.9667 40.3723C35.4612 41.6278 35.1371 43.6686 36.2408 44.926C36.2908 44.9815 36.3408 45.0352 36.3945 45.0852C36.9353 45.6075 37.6723 45.8667 38.4519 45.8667C38.9519 45.8667 39.4704 45.7593 39.9649 45.5445C40.3149 45.3927 40.6519 45.1852 40.9649 44.926C41.3204 44.626 41.613 44.2852 41.8334 43.9186C41.9167 43.7797 41.9908 43.6371 42.0519 43.4927C42.0667 43.4575 42.0816 43.4241 42.0945 43.3889C42.3871 42.6686 42.4223 41.9019 42.1871 41.226Z" fill="#F5F6F7"/>
<path d="M103.711 95.9469H32.6907L29.0703 91.0117H99.3777L103.711 95.9469Z" fill="#C2BAF3"/>
<path d="M103.711 96.3642H32.6925C32.5592 96.3642 32.4351 96.3013 32.3573 96.1939L28.7351 91.2587C28.6425 91.1327 28.6277 90.9642 28.6999 90.8235C28.7703 90.6827 28.9147 90.5957 29.0722 90.5957H99.3796C99.4999 90.5957 99.6129 90.6476 99.6925 90.7383L104.026 95.6735C104.133 95.7957 104.159 95.9716 104.093 96.1198C104.022 96.2698 103.874 96.3642 103.711 96.3642ZM32.9018 95.5309H102.789L99.187 91.429H29.8907L32.9018 95.5309Z" fill="#F5F6F7"/>
<path d="M94.9533 39.2012C95.5811 39.2012 96.0088 39.6901 95.9125 40.2956C95.8162 40.8975 95.2311 41.3864 94.6051 41.3864H66.2644C66.1496 40.6475 65.9866 39.9141 65.7773 39.2012H94.9533Z" fill="#C2BAF3"/>
<path d="M94.6061 41.8037H66.2654C66.0598 41.8037 65.8857 41.6537 65.8542 41.45C65.7431 40.7296 65.5839 40.0129 65.3783 39.3185C65.3413 39.1926 65.3654 39.0555 65.445 38.9518C65.5228 38.8463 65.6468 38.7852 65.7783 38.7852H94.9561C95.382 38.7852 95.7746 38.9592 96.032 39.2611C96.2876 39.5611 96.3931 39.9518 96.3265 40.3611C96.1968 41.1703 95.4413 41.8037 94.6061 41.8037ZM66.6191 40.9703H94.6061C95.0283 40.9703 95.4394 40.6315 95.5024 40.2296C95.5283 40.0648 95.4913 39.9129 95.3968 39.8018C95.2968 39.6833 95.1394 39.6185 94.9542 39.6185H66.3246C66.4413 40.0648 66.5394 40.5166 66.6191 40.9703Z" fill="#C2BAF3"/>
<path d="M96.7288 28.0742C97.3565 28.0742 97.7843 28.5631 97.688 29.1687C97.5917 29.7705 97.0065 30.2594 96.3806 30.2594H66.5862C65.9602 30.2594 65.5325 29.7705 65.6288 29.1687C65.7251 28.565 66.3084 28.0742 66.9343 28.0742H96.7288Z" fill="#C2BAF3"/>
<path d="M96.381 30.6749H66.5865C66.1606 30.6749 65.7699 30.5026 65.5125 30.2008C65.2569 29.9008 65.1532 29.5119 65.218 29.1027C65.3477 28.2934 66.1014 27.6582 66.9347 27.6582H96.7291C97.1551 27.6582 97.5477 27.8323 97.8051 28.1341C98.0606 28.4341 98.1662 28.8249 98.0995 29.2341C97.9717 30.0415 97.2162 30.6749 96.381 30.6749ZM66.9347 28.4897C66.5143 28.4897 66.1051 28.8304 66.0403 29.2323C66.0143 29.3971 66.0514 29.5489 66.1458 29.6601C66.2458 29.7767 66.4014 29.8415 66.5865 29.8415H96.381C96.8032 29.8415 97.2143 29.5026 97.2773 29.1008C97.3032 28.936 97.2662 28.7841 97.1717 28.673C97.0717 28.5545 96.9143 28.4897 96.7291 28.4897H66.9347Z" fill="#C2BAF3"/>
<path d="M89.6322 72.5879C90.26 72.5879 90.6878 73.0768 90.5915 73.6786C90.4952 74.2823 89.91 74.7731 89.2822 74.7731H45.3322C44.7081 74.7731 44.2785 74.2842 44.3748 73.6786C44.4711 73.0768 45.0563 72.5879 45.6804 72.5879H89.6322Z" fill="#C2BAF3"/>
<path d="M89.2834 75.1904H45.3315C44.9074 75.1904 44.5167 75.0182 44.2593 74.7163C44.0037 74.4163 43.8982 74.0256 43.9648 73.6145C44.0945 72.8052 44.8482 72.1719 45.6815 72.1719H89.6315C90.0574 72.1719 90.45 72.346 90.7074 72.6478C90.963 72.9478 91.0667 73.3367 91.0019 73.7459C90.8741 74.5552 90.1185 75.1904 89.2834 75.1904ZM45.6796 73.0052C45.2593 73.0052 44.85 73.3441 44.7852 73.7459C44.7593 73.9108 44.7963 74.0645 44.8908 74.1756C44.9908 74.2941 45.1463 74.3589 45.3297 74.3589H89.2815C89.7037 74.3589 90.1148 74.0182 90.1778 73.6163C90.2037 73.4534 90.1667 73.3015 90.0722 73.1904C89.9722 73.0719 89.8148 73.0071 89.6296 73.0071H45.6796V73.0052Z" fill="#C2BAF3"/>
<path d="M70.9356 47.7526C70.9022 47.5396 70.8652 47.3266 70.8245 47.1155C70.8208 47.0952 70.8171 47.0748 70.8133 47.0544C70.8059 47.0155 70.7948 46.9766 70.7874 46.9359C70.7522 46.7637 70.7134 46.5915 70.6726 46.4211C70.6578 46.3581 70.643 46.2933 70.6263 46.2304C70.5708 46.0081 70.5115 45.7878 70.4485 45.5692C70.3615 45.2711 70.2615 44.9766 70.1578 44.6841C70.1448 44.647 70.1356 44.61 70.1208 44.5729C70.1078 44.5341 70.0893 44.497 70.0763 44.46C69.9782 44.1933 69.8745 43.9303 69.7615 43.6692C69.7522 43.6452 69.743 43.6229 69.7319 43.5989C69.6097 43.3192 69.4763 43.0433 69.3393 42.7692C69.3226 42.7378 69.3097 42.7063 69.2948 42.6748C69.2726 42.6304 69.2448 42.5859 69.2226 42.5415C69.1282 42.3618 69.03 42.1859 68.93 42.0081C68.8874 41.9359 68.8485 41.8618 68.8041 41.7896C68.6615 41.5489 68.5134 41.31 68.3559 41.0748C68.3559 41.0729 68.3541 41.0729 68.3541 41.0711C68.2226 40.8748 68.0874 40.6804 67.9467 40.4878L63.2763 34.1211C63.4189 34.3137 63.5541 34.51 63.6874 34.7081C63.8448 34.9433 63.993 35.1822 64.1356 35.4229C64.1782 35.4952 64.2189 35.5692 64.2615 35.6415C64.3615 35.8174 64.4596 35.9952 64.5541 36.1729C64.5948 36.2489 64.6337 36.3248 64.6726 36.4007C64.8115 36.6748 64.943 36.9507 65.0652 37.2304C65.0745 37.2526 65.0837 37.2767 65.093 37.3007C65.2059 37.5618 65.3096 37.8248 65.4078 38.0915C65.4356 38.1655 65.4633 38.2415 65.4893 38.3155C65.593 38.6081 65.6911 38.9026 65.7782 39.2007C65.843 39.4192 65.9004 39.6396 65.9559 39.8618C65.9726 39.9266 65.9874 39.9896 66.0022 40.0544C66.043 40.2248 66.08 40.3952 66.1152 40.5674C66.1282 40.6285 66.1411 40.6878 66.1522 40.7489C66.193 40.96 66.2319 41.1729 66.2633 41.3859C66.7152 44.2878 66.4504 47.3507 65.5022 50.3304C65.2708 51.0655 64.993 51.7952 64.6782 52.5155C64.6133 52.6637 64.5448 52.81 64.4782 52.9563C64.4245 53.0711 64.3708 53.1859 64.3152 53.3007C64.2689 53.3952 64.2226 53.4915 64.1763 53.5859C64.1189 53.7007 64.0596 53.8137 64.0004 53.9285C63.9522 54.0229 63.9022 54.1155 63.8522 54.2081C63.7911 54.3229 63.7282 54.4359 63.6634 54.5507C63.6115 54.6433 63.5597 54.7341 63.5078 54.8266C63.4411 54.9396 63.3745 55.0544 63.3059 55.1674C63.2559 55.2507 63.2078 55.3322 63.1559 55.4155C62.9782 55.7026 62.7948 55.9878 62.6041 56.2692C62.5671 56.3248 62.5282 56.3803 62.4893 56.4378C62.293 56.7248 62.0893 57.0081 61.8782 57.2896C61.8522 57.3229 61.8263 57.3563 61.8022 57.3878C61.6337 57.6081 61.4615 57.8266 61.2856 58.0433C61.2374 58.1026 61.1893 58.1618 61.1393 58.2229C60.9393 58.4637 60.7337 58.7044 60.5226 58.9396C60.4893 58.9766 60.4559 59.0118 60.4226 59.0489C60.2504 59.2396 60.0745 59.4266 59.8948 59.6137C59.8356 59.6766 59.7745 59.7378 59.7133 59.7989C59.5245 59.9915 59.33 60.184 59.1337 60.3711C59.1059 60.3989 59.0782 60.4266 59.0504 60.4526C58.9319 60.5637 58.8115 60.6729 58.6911 60.7841C58.6263 60.8433 58.5615 60.9044 58.4948 60.9637C58.3059 61.1322 58.1152 61.297 57.9208 61.4618C57.6782 61.6655 57.4374 61.8581 57.1985 62.0452C57.1819 62.0581 57.1652 62.0711 57.1485 62.084C56.9245 62.2581 56.7022 62.4248 56.48 62.5878C56.443 62.6155 56.4041 62.6433 56.3671 62.6711C56.1671 62.8155 55.9671 62.9563 55.7671 63.0915C55.4874 63.2822 55.2059 63.4674 54.9245 63.6452C54.6467 63.8192 54.3671 63.9859 54.0837 64.147C54.0097 64.1896 53.9356 64.2285 53.8615 64.2711C53.6134 64.41 53.3652 64.5452 53.1152 64.6748C53.0208 64.7229 52.9263 64.7729 52.8319 64.8211C52.5578 64.96 52.2819 65.0915 52.0041 65.2192C51.9541 65.2415 51.9059 65.2655 51.8559 65.2877C51.7911 65.3174 51.7245 65.3452 51.6596 65.3729C51.4782 65.4526 51.2967 65.5322 51.1134 65.6063C51.0226 65.6433 50.9319 65.6785 50.8411 65.7155C50.6819 65.7785 50.5208 65.8415 50.3615 65.9026C50.2652 65.9396 50.1671 65.9748 50.0708 66.01C49.9134 66.0674 49.7559 66.1211 49.5985 66.1748C49.5022 66.2081 49.4059 66.2396 49.3078 66.2711C49.1782 66.3137 49.0467 66.3526 48.9171 66.3933C48.7578 66.4415 48.5967 66.4896 48.4374 66.5359C48.3134 66.5711 48.1893 66.6044 48.0634 66.6378C47.9041 66.6803 47.7467 66.7211 47.5874 66.76C47.4615 66.7915 47.3356 66.8211 47.2115 66.8489C47.0522 66.8859 46.893 66.9192 46.7337 66.9526C46.6097 66.9785 46.4837 67.0044 46.3596 67.0266C46.1985 67.0563 46.0374 67.0859 45.8763 67.1118C45.7541 67.1322 45.63 67.1526 45.5078 67.1711C45.343 67.1952 45.1782 67.2174 45.0152 67.2396C44.8967 67.2544 44.7763 67.2711 44.6578 67.2859C44.4856 67.3063 44.3152 67.3211 44.1448 67.3359C44.0337 67.3452 43.9208 67.3581 43.8096 67.3655C43.6208 67.3803 43.4337 67.3896 43.2467 67.3989C43.1522 67.4044 43.0596 67.41 42.9652 67.4137C42.6837 67.4248 42.4041 67.4303 42.1245 67.4303C38.9374 67.4303 35.8615 66.7322 33.1634 65.3359C32.2819 64.8803 31.4411 64.3489 30.6504 63.7433L35.3208 70.11C36.1115 70.7155 36.9522 71.2452 37.8337 71.7026C40.53 73.0989 43.6078 73.797 46.793 73.797C47.0726 73.797 47.3522 73.7915 47.6337 73.7803C47.7282 73.7766 47.8208 73.7692 47.9152 73.7655C48.1022 73.7563 48.2911 73.747 48.4782 73.7322C48.5893 73.7229 48.7004 73.7118 48.8115 73.7026C48.9837 73.6877 49.1541 73.6711 49.3263 73.6526C49.4448 73.6396 49.5634 73.6229 49.6819 73.6081C49.8467 73.5859 50.0115 73.5655 50.1763 73.5396C50.2985 73.5211 50.4226 73.5007 50.5448 73.4803C50.7059 73.4526 50.8671 73.4248 51.0282 73.3952C51.1522 73.3711 51.2782 73.347 51.4022 73.3211C51.5615 73.2877 51.7208 73.2544 51.88 73.2174C52.0059 73.1896 52.13 73.16 52.2541 73.1285C52.4134 73.0896 52.5726 73.0489 52.7319 73.0063C52.8559 72.9729 52.98 72.9396 53.1041 72.9044C53.2652 72.8581 53.4245 72.81 53.5856 72.7618C53.6652 72.7378 53.7467 72.7155 53.8263 72.6915C53.8763 72.6748 53.9263 72.6581 53.9763 72.6415C54.0726 72.61 54.1689 72.5766 54.2671 72.5452C54.4245 72.4915 54.5819 72.4378 54.7393 72.3803C54.8356 72.3452 54.9337 72.31 55.03 72.2729C55.1911 72.2137 55.3504 72.1507 55.5096 72.0859C55.6004 72.0489 55.6911 72.0137 55.7819 71.9766C55.9652 71.9007 56.1467 71.8229 56.3282 71.7433C56.393 71.7137 56.4596 71.6878 56.5245 71.6581C56.5356 71.6526 56.5485 71.647 56.5596 71.6433C56.5967 71.6266 56.6337 71.6063 56.6708 71.5896C56.9485 71.4618 57.2245 71.3303 57.4985 71.1915C57.593 71.1433 57.6874 71.0952 57.7819 71.0452C58.0319 70.9155 58.2819 70.7803 58.5282 70.6415C58.5819 70.6118 58.6356 70.5859 58.6874 70.5544C58.7078 70.5433 58.73 70.5285 58.7504 70.5174C59.0319 70.3563 59.3134 70.1896 59.5911 70.0155C59.8745 69.8378 60.1541 69.6526 60.4337 69.4618C60.4596 69.4452 60.4837 69.4285 60.5097 69.4118C60.6837 69.2915 60.8596 69.1674 61.0337 69.0415C61.0708 69.0137 61.1097 68.9859 61.1467 68.9581C61.3689 68.7952 61.5911 68.6285 61.8134 68.4544C61.83 68.4415 61.8467 68.4285 61.8634 68.4155C61.9819 68.3229 62.1022 68.2285 62.2208 68.1303C62.3411 68.0322 62.4633 67.9322 62.5837 67.8303C62.7782 67.6655 62.9689 67.5007 63.1578 67.3322C63.2245 67.2729 63.2874 67.2137 63.3522 67.1544C63.4726 67.0433 63.5948 66.9341 63.7134 66.8211C63.7189 66.8155 63.7263 66.81 63.7319 66.8044C63.7541 66.784 63.7745 66.7618 63.7948 66.7415C63.993 66.5526 64.1856 66.36 64.3763 66.1674C64.4374 66.1063 64.4967 66.0433 64.5559 65.9822C64.7356 65.7952 64.9115 65.6081 65.0837 65.4174C65.1096 65.3896 65.1374 65.3618 65.1615 65.334C65.1689 65.3266 65.1745 65.3174 65.1819 65.31C65.393 65.0729 65.5985 64.834 65.7985 64.5933C65.8485 64.534 65.8967 64.4748 65.9448 64.4155C66.1208 64.1989 66.2948 63.9803 66.4615 63.76C66.48 63.734 66.5022 63.71 66.5208 63.6841C66.5263 63.6766 66.5319 63.6692 66.5374 63.6618C66.7485 63.3803 66.9522 63.097 67.1485 62.81C67.1874 62.7544 67.2245 62.6989 67.2634 62.6433C67.4541 62.36 67.6393 62.0748 67.8171 61.7878C67.8282 61.7692 67.8411 61.7526 67.8522 61.734C67.8911 61.6692 67.9282 61.6044 67.9671 61.5396C68.0356 61.4266 68.1022 61.3137 68.1689 61.1989C68.2226 61.1063 68.2726 61.0137 68.3245 60.9229C68.3874 60.81 68.4504 60.697 68.5115 60.5822C68.5615 60.4896 68.6115 60.3952 68.6596 60.3007C68.7189 60.1878 68.7782 60.0729 68.8337 59.9581C68.8819 59.8637 68.9282 59.7692 68.9745 59.6729C69.03 59.5581 69.0837 59.4433 69.1374 59.3285C69.1596 59.2785 69.1856 59.2303 69.2078 59.1803C69.2522 59.0822 69.2948 58.9859 69.3374 58.8878C69.6541 58.1674 69.93 57.4378 70.1615 56.7026C71.1226 53.7192 71.3874 50.6563 70.9356 47.7526Z" fill="#C2BAF3"/>
<path d="M46.7925 74.2151C43.511 74.2151 40.348 73.4744 37.6406 72.0725C36.7314 71.6022 35.8666 71.054 35.0647 70.4411C35.0332 70.417 35.0055 70.3892 34.9814 70.3559L30.311 63.9892C30.1888 63.8226 30.2073 63.5911 30.3555 63.4448C30.5036 63.3003 30.7351 63.2855 30.8999 63.4114C31.661 63.9948 32.4851 64.517 33.3517 64.9651C35.9406 66.3059 38.9721 67.0133 42.1203 67.0133C42.3814 67.0133 42.6592 67.0077 42.9443 66.9966C42.998 66.9948 43.0499 66.9911 43.1036 66.9874L43.2203 66.98C43.4055 66.9707 43.5888 66.9614 43.774 66.9466C43.8462 66.9411 43.9184 66.9337 43.9888 66.9281L44.1017 66.917C44.274 66.9022 44.4406 66.8855 44.6055 66.867C44.6925 66.8577 44.7795 66.8448 44.8666 66.8337L44.9573 66.8226C45.1184 66.8022 45.2795 66.78 45.4425 66.7559C45.5499 66.7392 45.6592 66.7207 45.7666 66.7022L45.8036 66.6966C45.961 66.6707 46.1203 66.6429 46.2777 66.6133C46.3999 66.5892 46.5221 66.5651 46.6462 66.5392C46.8018 66.5077 46.9592 66.4725 47.1147 66.4374C47.2388 66.4096 47.361 66.38 47.4851 66.3503C47.6406 66.3114 47.798 66.2726 47.9536 66.23C48.0758 66.1966 48.198 66.1651 48.3203 66.13C48.4777 66.0855 48.6351 66.0374 48.7925 65.9892L48.8443 65.9725C48.9555 65.9392 49.0666 65.904 49.1758 65.8688C49.2721 65.8374 49.3666 65.8059 49.461 65.7744C49.6166 65.7225 49.7703 65.6689 49.9258 65.6114C50.0203 65.5763 50.1166 65.5429 50.211 65.5059C50.3684 65.4466 50.5258 65.3855 50.6832 65.3226L50.7555 65.2948C50.8203 65.2688 50.8869 65.2429 50.9518 65.217C51.1314 65.1429 51.3092 65.0651 51.4888 64.9874L51.574 64.9503C51.6092 64.9355 51.6462 64.9189 51.6814 64.904L51.8258 64.8355C52.0925 64.7133 52.3666 64.5818 52.6388 64.4448C52.7314 64.3985 52.8258 64.3503 52.9184 64.3022C53.1629 64.1763 53.4092 64.0429 53.6536 63.9059L53.7443 63.8559C53.7869 63.8318 53.8295 63.8096 53.8721 63.7855C54.1758 63.6114 54.4462 63.4503 54.698 63.2911C54.9555 63.13 55.2258 62.9522 55.5277 62.7466C55.724 62.6114 55.9221 62.4744 56.1184 62.3318L56.2295 62.2503C56.4703 62.0744 56.6851 61.9114 56.8869 61.754L56.9369 61.7133C57.1869 61.517 57.4203 61.3281 57.6462 61.1392C57.8369 60.9781 58.024 60.8151 58.2092 60.6503C58.248 60.6151 58.2851 60.58 58.324 60.5448L58.4499 60.43C58.5518 60.3374 58.6555 60.2429 58.7555 60.1485L58.8388 60.0688C59.0258 59.8892 59.2129 59.7059 59.411 59.504C59.4703 59.4429 59.5295 59.3818 59.5888 59.3207C59.7647 59.1374 59.9388 58.9522 60.1073 58.7651L60.2055 58.6596C60.4018 58.4411 60.5999 58.2096 60.8129 57.954L60.9573 57.7781C61.1406 57.554 61.3073 57.3429 61.4647 57.1337L61.5406 57.0374C61.7332 56.7818 61.9295 56.5077 62.1406 56.2003L62.2536 56.0355C62.4462 55.7522 62.6277 55.4688 62.7962 55.1966C62.8388 55.1263 62.8814 55.0559 62.924 54.9855L62.9425 54.954C63.0092 54.8429 63.0758 54.7318 63.1406 54.6188C63.1869 54.5392 63.2314 54.4596 63.2758 54.38L63.2943 54.3466C63.3573 54.2355 63.4184 54.1226 63.4795 54.0114C63.5295 53.9207 63.5777 53.8281 63.6258 53.7355C63.6832 53.6244 63.7406 53.5114 63.798 53.4003C63.8443 53.3077 63.8906 53.2151 63.9351 53.1207C63.9888 53.0077 64.0425 52.8966 64.0943 52.7837L64.111 52.7448C64.1721 52.6133 64.2332 52.4818 64.2906 52.3503C64.6036 51.6355 64.8777 50.9151 65.0999 50.2059C66.0277 47.2948 66.2851 44.2689 65.8462 41.4522C65.8166 41.2596 65.7814 41.0559 65.7369 40.83L65.6999 40.6522C65.6647 40.4837 65.6295 40.317 65.5888 40.1503L65.5425 39.9614C65.4814 39.7151 65.4258 39.5096 65.3684 39.3189C65.2925 39.0614 65.2036 38.7874 65.0851 38.454C65.0592 38.3818 65.0332 38.3077 65.0055 38.2355C64.8999 37.9522 64.7999 37.7003 64.6981 37.4652L64.6703 37.3966C64.5629 37.1503 64.4388 36.8874 64.2869 36.5892C64.2499 36.5152 64.211 36.4411 64.1721 36.367C64.0795 36.1929 63.9851 36.0207 63.8869 35.8485L63.848 35.7818C63.8203 35.7337 63.7925 35.6837 63.7629 35.6355C63.6073 35.3744 63.4647 35.1466 63.3258 34.9392C63.1962 34.7448 63.061 34.5522 62.9258 34.367C62.7906 34.1818 62.8295 33.9207 63.0147 33.7855C63.1999 33.6503 63.461 33.6892 63.5962 33.8744L63.5981 33.8763L68.2666 40.2411C68.4092 40.4355 68.5499 40.6374 68.6851 40.8392C68.6869 40.8429 68.6888 40.8466 68.6925 40.8503C68.8388 41.0707 68.9869 41.3077 69.148 41.5763C69.1795 41.6281 69.2073 41.68 69.2369 41.73L69.2758 41.7985C69.3795 41.98 69.4795 42.1614 69.5758 42.3448L69.6018 42.3929C69.6184 42.4226 69.6351 42.4522 69.6499 42.4818C69.661 42.5022 69.6703 42.5244 69.6795 42.5448L69.6943 42.5781C69.8518 42.8892 69.9832 43.167 70.098 43.43L70.1277 43.5003C70.2369 43.7559 70.3425 44.0207 70.4518 44.3133L70.4666 44.3522C70.4777 44.3781 70.4888 44.404 70.4981 44.4318C70.5073 44.4559 70.5147 44.4818 70.5221 44.5077L70.5351 44.5466C70.6573 44.8892 70.7518 45.1781 70.8314 45.4522C70.8906 45.654 70.948 45.8689 71.0147 46.1281C71.0277 46.1781 71.0388 46.23 71.0518 46.28L71.0629 46.3244C71.1055 46.5003 71.1443 46.6763 71.1795 46.8522L71.1906 46.8985C71.1962 46.9226 71.2017 46.9466 71.2073 46.9726L71.2184 47.0374C71.2647 47.2781 71.3017 47.4911 71.3332 47.6911C71.7906 50.6355 71.524 53.7929 70.5573 56.8244C70.3258 57.5577 70.0425 58.3077 69.7166 59.0503C69.674 59.1485 69.6295 59.2485 69.5851 59.3466C69.5703 59.3781 69.5573 59.4077 69.5425 59.4374L69.5129 59.4985C69.4592 59.6151 69.4036 59.7318 69.348 59.8466C69.3018 59.9448 69.2536 60.0411 69.2055 60.1374C69.148 60.254 69.0888 60.3688 69.0277 60.4855C68.9777 60.5818 68.9277 60.6763 68.8758 60.7726C68.8129 60.8892 68.7499 61.004 68.6851 61.1189L68.6573 61.1688C68.6147 61.2466 68.5703 61.3244 68.5258 61.4003C68.4592 61.517 68.3906 61.6318 68.3203 61.7466L68.2721 61.8263C68.2499 61.8652 68.2258 61.904 68.2036 61.9429L68.1777 61.9837C67.9925 62.2818 67.8036 62.5744 67.6055 62.867L67.4888 63.0355C67.2684 63.3559 67.0647 63.6392 66.8666 63.9022L66.7888 64.004C66.6258 64.217 66.4499 64.4429 66.2629 64.6707L66.2443 64.6948C66.2018 64.7466 66.1592 64.8003 66.1147 64.8522C65.8943 65.117 65.6906 65.3559 65.4869 65.5818L65.4647 65.6077C65.4499 65.6244 65.4332 65.6429 65.4166 65.6596L65.3851 65.6929C65.2092 65.8855 65.0314 66.0763 64.8499 66.2651C64.7888 66.3281 64.7277 66.3911 64.6666 66.454C64.461 66.6633 64.2666 66.854 64.0758 67.0374L64.0536 67.0596C64.0388 67.0744 64.0258 67.0874 64.011 67.1022C64.0092 67.104 63.9962 67.1151 63.9943 67.117C63.8906 67.2151 63.7851 67.3114 63.6795 67.4077L63.5518 67.5263C63.511 67.5633 63.4703 67.6022 63.4277 67.6392C63.2369 67.8096 63.0425 67.9781 62.8443 68.1448C62.7203 68.2485 62.5981 68.3503 62.4758 68.4485C62.3536 68.5466 62.2332 68.6429 62.1129 68.7374L62.0629 68.7781C61.8517 68.9429 61.6295 69.1114 61.3851 69.2892L61.2703 69.3744C61.0925 69.5022 60.9147 69.63 60.7369 69.7522C60.7203 69.7633 60.7036 69.7744 60.6869 69.7855L60.6592 69.804C60.3499 70.0151 60.0684 70.1985 59.8018 70.367C59.5369 70.5337 59.2573 70.7003 58.948 70.8781L58.8832 70.917C58.8518 70.9355 58.8184 70.9522 58.7869 70.9689C58.7647 70.98 58.7425 70.9911 58.7221 71.004C58.4684 71.1466 58.2129 71.2837 57.9629 71.4133C57.8666 71.4633 57.7703 71.5133 57.674 71.5614C57.3906 71.704 57.1073 71.8392 56.8332 71.9651L56.7906 71.9855C56.7666 71.9966 56.7425 72.0096 56.7184 72.0188L56.6925 72.03C56.6425 72.0522 56.6017 72.0707 56.561 72.0874L56.4832 72.1207C56.298 72.2022 56.1129 72.2818 55.9277 72.3577C55.8629 72.3855 55.7962 72.4114 55.7295 72.4374L55.6518 72.4688C55.4888 72.5337 55.3258 72.5966 55.1629 72.6577C55.0647 72.6948 54.9666 72.73 54.8684 72.767C54.7092 72.8244 54.548 72.88 54.3888 72.9355C54.2869 72.9688 54.1906 73.0022 54.0943 73.0337L54.0314 73.054C54.0018 73.0651 53.9703 73.0744 53.9406 73.0837C53.8925 73.0985 53.8443 73.1133 53.7943 73.1263L53.6962 73.1559C53.5332 73.2059 53.3703 73.254 53.2073 73.3003C53.0814 73.3355 52.9555 73.3707 52.8295 73.404C52.6666 73.4466 52.5055 73.4892 52.3425 73.5281C52.2166 73.5596 52.0888 73.5892 51.961 73.6188C51.798 73.6559 51.6369 73.6911 51.474 73.7244C51.3462 73.7503 51.2203 73.7763 51.0925 73.8003C50.9295 73.8318 50.7647 73.8596 50.5999 73.8874L50.5573 73.8948C50.4462 73.9133 50.3369 73.9318 50.2258 73.9485C50.0573 73.9744 49.8906 73.9966 49.7221 74.017L49.6314 74.0281C49.5406 74.0392 49.4499 74.0522 49.361 74.0614C49.1869 74.0818 49.0129 74.0966 48.8388 74.1133L48.7277 74.1244C48.6499 74.1318 48.574 74.1392 48.4962 74.1448C48.3036 74.1596 48.1129 74.1688 47.9221 74.1781L47.8147 74.1837C47.7555 74.1874 47.6962 74.1911 47.6369 74.1929C47.3536 74.2096 47.0647 74.2151 46.7925 74.2151ZM35.6203 69.8151C36.3684 70.3837 37.1777 70.8929 38.0258 71.3318C40.6147 72.6725 43.6462 73.38 46.7943 73.38C47.0555 73.38 47.3332 73.3744 47.6184 73.3633C47.6721 73.3614 47.7258 73.3577 47.7795 73.354L47.8943 73.3466C48.0795 73.3374 48.2629 73.3281 48.448 73.3133C48.5203 73.3077 48.5925 73.3003 48.6647 73.2948L48.7777 73.2837C48.948 73.2688 49.1147 73.2522 49.2832 73.2337C49.3684 73.2244 49.4536 73.2133 49.5406 73.2022L49.6332 73.1892C49.7943 73.1688 49.9573 73.1466 50.1184 73.1226C50.224 73.1059 50.3314 73.0892 50.4369 73.0707L50.4795 73.0633C50.6388 73.0374 50.7962 73.0096 50.9536 72.98C51.0758 72.9559 51.198 72.9318 51.3221 72.9059C51.4795 72.8744 51.6351 72.8392 51.7925 72.804C51.9147 72.7763 52.0388 72.7466 52.161 72.717C52.3184 72.6781 52.474 72.6374 52.6314 72.5966C52.7536 72.5633 52.8758 72.5318 52.9962 72.4966C53.1536 72.4522 53.311 72.404 53.4684 72.3559L53.5795 72.3226C53.6221 72.3096 53.6629 72.2985 53.7036 72.2855L53.8518 72.2355C53.9443 72.2059 54.0388 72.1744 54.1314 72.1429C54.2906 72.0892 54.4462 72.0355 54.5999 71.98C54.6943 71.9448 54.7906 71.9114 54.8851 71.8744C55.0425 71.8151 55.1999 71.754 55.3573 71.6911L55.4369 71.6596C55.4999 71.6355 55.561 71.6096 55.624 71.5855C55.8036 71.5114 55.9832 71.4337 56.161 71.3559L56.2462 71.3188C56.2832 71.304 56.3184 71.2874 56.3536 71.2725L56.4351 71.2355C56.4573 71.2244 56.4777 71.2151 56.4999 71.204C56.7647 71.0818 57.0388 70.9503 57.3147 70.8133C57.4092 70.767 57.5018 70.7188 57.5943 70.6707C57.8369 70.5448 58.0832 70.4114 58.3295 70.2744C58.3573 70.2596 58.3851 70.2448 58.4129 70.23C58.4369 70.217 58.461 70.204 58.4851 70.1911L58.5462 70.154C58.848 69.9818 59.1184 69.8188 59.374 69.6596C59.6314 69.4985 59.9036 69.3207 60.2036 69.1151L60.2777 69.067C60.4499 68.9485 60.6221 68.8263 60.7943 68.7022L60.9073 68.6189C61.1443 68.4448 61.3592 68.2837 61.5629 68.1226L61.6129 68.0818C61.7277 67.9911 61.8462 67.8985 61.9647 67.8022C62.0832 67.7059 62.2036 67.6077 62.3221 67.5077C62.5129 67.3466 62.6999 67.1837 62.8851 67.0188C62.924 66.9855 62.961 66.9503 62.9962 66.917L63.1295 66.7948C63.2295 66.7022 63.3314 66.6114 63.4295 66.517C63.4314 66.5151 63.4406 66.5059 63.4443 66.504L63.5129 66.4374C63.698 66.2614 63.8851 66.0763 64.0851 65.8726C64.1443 65.8114 64.2036 65.7503 64.2629 65.6892C64.4388 65.5059 64.6129 65.3207 64.7814 65.1337L64.8795 65.0263C65.074 64.8077 65.274 64.5781 65.4869 64.3207C65.5295 64.2707 65.5703 64.2207 65.611 64.1688L65.6314 64.1448C65.811 63.9244 65.9832 63.7059 66.1406 63.5003L66.2166 63.4022C66.4073 63.1503 66.6036 62.8763 66.8166 62.567L66.9277 62.404C67.1203 62.1207 67.3018 61.8374 67.4721 61.5633L67.5055 61.5114C67.5258 61.4781 67.5462 61.4429 67.5666 61.4077L67.6184 61.3207C67.6851 61.2096 67.7517 61.0985 67.8166 60.9874C67.8592 60.9133 67.9017 60.8392 67.9425 60.7633L67.9703 60.7133C68.0314 60.6022 68.0943 60.4911 68.1536 60.38C68.2036 60.2874 68.2517 60.1966 68.2999 60.104C68.3573 59.9929 68.4147 59.8818 68.4703 59.7688C68.5166 59.6744 68.5629 59.5818 68.6092 59.4874C68.6629 59.3763 68.7166 59.2633 68.7684 59.1503L68.8388 59.004C68.8814 58.9096 68.924 58.8151 68.9666 58.7188C69.2814 58.0022 69.5536 57.2818 69.7758 56.5744C70.7036 53.6633 70.961 50.6374 70.5221 47.8207C70.4925 47.6318 70.4573 47.43 70.4129 47.2003L70.3777 47.0244C70.3425 46.8559 70.3055 46.6892 70.2666 46.5226L70.2555 46.4763C70.2444 46.43 70.2332 46.3818 70.2221 46.3355C70.1592 46.0874 70.1036 45.8818 70.048 45.6911C69.9721 45.43 69.8814 45.1559 69.7647 44.8281C69.7573 44.804 69.7499 44.7837 69.7425 44.7614C69.7388 44.7485 69.7332 44.7337 69.7295 44.7207C69.724 44.7059 69.7184 44.6929 69.7129 44.68C69.7036 44.6577 69.6943 44.6337 69.6851 44.6114C69.5814 44.3337 69.4814 44.08 69.3777 43.8411L69.3499 43.7726C69.2425 43.5244 69.1166 43.2596 68.9666 42.9633C68.9573 42.9448 68.9462 42.9226 68.9369 42.9022L68.9221 42.8689C68.9129 42.8503 68.9017 42.83 68.8906 42.8114C68.8777 42.7892 68.8647 42.7651 68.8518 42.7411C68.7592 42.5651 68.6647 42.3929 68.5666 42.2207L68.5258 42.1485C68.4999 42.1022 68.4721 42.054 68.4443 42.0077C68.2888 41.7466 68.1462 41.517 68.0073 41.3114C68.0055 41.3096 68.0036 41.3059 68.0017 41.3022C67.874 41.1114 67.7406 40.9226 67.6073 40.7392L66.0129 38.5652C66.0758 38.7522 66.1295 38.9244 66.1777 39.0892C66.2369 39.2911 66.2962 39.5059 66.361 39.7651L66.4092 39.9614C66.4499 40.1374 66.4888 40.3114 66.5258 40.4874L66.5647 40.6726C66.611 40.9096 66.648 41.1226 66.6795 41.3263C67.1369 44.2707 66.8684 47.4281 65.9036 50.4596C65.6721 51.1948 65.3888 51.9448 65.0629 52.6855C65.0036 52.8226 64.9388 52.9596 64.8758 53.0966L64.8592 53.1337C64.8055 53.2503 64.7499 53.367 64.6943 53.4837C64.648 53.58 64.5999 53.6763 64.5517 53.7744C64.4925 53.8911 64.4332 54.0077 64.374 54.1226C64.324 54.217 64.274 54.3133 64.224 54.4077C64.161 54.5244 64.0962 54.6392 64.0314 54.7559L64.0129 54.7892C63.9666 54.8726 63.9203 54.954 63.8721 55.0374C63.8055 55.154 63.7369 55.2688 63.6666 55.3837L63.648 55.4152C63.6036 55.4892 63.5592 55.5633 63.5147 55.6355C63.3406 55.9188 63.1518 56.2114 62.9518 56.5059L62.8351 56.6763C62.6166 56.9948 62.4129 57.2781 62.2129 57.5429L62.1351 57.6429C61.9703 57.8596 61.7981 58.0781 61.6092 58.3096L61.4592 58.4911C61.2406 58.7559 61.0351 58.9929 60.8314 59.2189L60.7295 59.3281C60.5536 59.5207 60.3758 59.7114 60.1925 59.9022C60.1314 59.9651 60.0703 60.0281 60.0092 60.0911C59.8055 60.2985 59.6129 60.4892 59.4184 60.6744L59.3332 60.7577C59.2295 60.8559 59.124 60.9522 59.0166 61.0503L58.8962 61.1614C58.8536 61.2003 58.8129 61.2392 58.7703 61.2763C58.5795 61.4466 58.3851 61.6151 58.1869 61.7818C57.9517 61.9781 57.7129 62.1726 57.4536 62.3744L57.4036 62.4151C57.1943 62.5781 56.9721 62.7466 56.7258 62.9263L56.611 63.0114C56.4073 63.1596 56.2036 63.3003 56.0018 63.4392C55.6925 63.6503 55.411 63.8337 55.1443 64.0022C54.8814 64.167 54.6018 64.3337 54.2906 64.5133C54.2443 64.5392 54.198 64.5651 54.1499 64.5911L54.0647 64.6392C53.8129 64.78 53.5573 64.9188 53.3055 65.0485C53.2092 65.0985 53.1129 65.1485 53.0166 65.1966C52.7332 65.3392 52.4518 65.4744 52.1758 65.6003L52.111 65.63C52.0832 65.6429 52.0536 65.6577 52.0258 65.6707C51.9851 65.6892 51.9443 65.7059 51.9036 65.7244L51.824 65.7577C51.6388 65.8392 51.4536 65.9188 51.2684 65.9948C51.1999 66.0225 51.1314 66.0503 51.061 66.0781L50.9906 66.1059C50.8277 66.1707 50.6666 66.2337 50.5017 66.2948C50.4036 66.3318 50.3055 66.367 50.2055 66.404C50.0462 66.4614 49.8851 66.517 49.7258 66.5707C49.6277 66.604 49.5295 66.6374 49.4314 66.6688C49.3166 66.7059 49.1999 66.7411 49.0851 66.7763L49.0332 66.7911C48.8703 66.8411 48.7073 66.8892 48.5443 66.9355C48.4184 66.9707 48.2906 67.0059 48.1647 67.0392C48.0036 67.0818 47.8425 67.1244 47.6795 67.1633C47.5518 67.1948 47.424 67.2244 47.2962 67.254C47.1351 67.2911 46.9721 67.3263 46.811 67.3596C46.6851 67.3855 46.5573 67.4114 46.4295 67.4355C46.2647 67.467 46.1017 67.4948 45.9369 67.5225L45.8999 67.5281C45.7869 67.5466 45.674 67.5651 45.561 67.5837C45.3925 67.6096 45.2258 67.6318 45.0592 67.6522L44.9703 67.6633C44.8777 67.6763 44.7869 67.6874 44.6962 67.6985C44.524 67.7188 44.3518 67.7337 44.1795 67.7503L44.0647 67.7614C43.9869 67.7689 43.9092 67.7763 43.8332 67.7818C43.6425 67.7966 43.4518 67.8059 43.261 67.8151L43.1518 67.8207C43.0925 67.8244 43.0332 67.8281 42.974 67.83C42.6777 67.8411 42.3906 67.8466 42.1184 67.8466C38.8369 67.8466 35.674 67.1059 32.9666 65.704C32.761 65.5985 32.5592 65.4874 32.3592 65.3744L35.6203 69.8151Z" fill="#F5F6F7"/>
</svg>
