<svg width="200" height="201" viewBox="0 0 200 201" fill="none" xmlns="http://www.w3.org/2000/svg">
<path d="M161.124 89.1399C163.248 89.1399 164.97 87.4178 164.97 85.2936C164.97 83.1693 163.248 81.4473 161.124 81.4473C158.999 81.4473 157.277 83.1693 157.277 85.2936C157.277 87.4178 158.999 89.1399 161.124 89.1399Z" fill="#F5F6F7"/>
<path d="M99.9994 169.887C137.758 169.887 168.368 157.879 168.368 143.066C168.368 128.254 137.758 116.246 99.9994 116.246C62.2405 116.246 31.6309 128.254 31.6309 143.066C31.6309 157.879 62.2405 169.887 99.9994 169.887Z" fill="#F5F6F7"/>
<path d="M97.8059 46.4844L94.9651 64.2918H76.5059L97.8059 46.4844Z" fill="#C2BAF3"/>
<path d="M94.9663 64.7094H76.5071C76.3312 64.7094 76.1756 64.6001 76.1145 64.4353C76.0552 64.2705 76.1052 64.0853 76.2386 63.9742L97.5386 46.1649C97.6719 46.0538 97.8608 46.0372 98.0108 46.1223C98.1626 46.2075 98.2441 46.3779 98.2163 46.5501L95.3756 64.3594C95.346 64.5612 95.1719 64.7094 94.9663 64.7094ZM77.6552 63.8761H94.6108L97.22 47.5186L77.6552 63.8761Z" fill="#F5F6F7"/>
<path d="M99.5103 79.9613C99.3825 79.9613 99.2547 79.9021 99.1732 79.791L98.0492 78.2576C97.9232 78.0854 97.9473 77.8447 98.1066 77.7002C98.2658 77.5576 98.5084 77.5576 98.6658 77.7039C98.6732 77.7113 98.6825 77.7188 98.6899 77.728C98.6973 77.7354 98.7047 77.7447 98.7103 77.7521C98.7288 77.7743 98.7492 77.8039 98.7695 77.8317L99.8455 79.2984C99.9806 79.4836 99.9418 79.7447 99.7566 79.8799C99.6825 79.9354 99.5973 79.9613 99.5103 79.9613Z" fill="#F5F6F7"/>
<mask id="mask0_1019_63750" style="mask-type:luminance" maskUnits="userSpaceOnUse" x="97" y="77" width="3" height="3">
<path d="M99.5103 79.9613C99.3825 79.9613 99.2547 79.9021 99.1732 79.791L98.0492 78.2576C97.9232 78.0854 97.9473 77.8447 98.1066 77.7002C98.2658 77.5576 98.5084 77.5576 98.6658 77.7039C98.6732 77.7113 98.6825 77.7188 98.6899 77.728C98.6973 77.7354 98.7047 77.7447 98.7103 77.7521C98.7288 77.7743 98.7492 77.8039 98.7695 77.8317L99.8455 79.2984C99.9806 79.4836 99.9418 79.7447 99.7566 79.8799C99.6825 79.9354 99.5973 79.9613 99.5103 79.9613Z" fill="white"/>
</mask>
<g mask="url(#mask0_1019_63750)">
<path d="M99.2749 79.1205L103.945 85.4872C103.667 85.1075 103.371 84.739 103.056 84.3797C99.6027 80.4446 94.5675 78.476 89.2193 78.476C86.899 78.476 84.5212 78.8464 82.186 79.5872L77.5156 73.2205C79.8508 72.4797 82.2286 72.1094 84.549 72.1094C89.8971 72.1094 94.9323 74.0779 98.386 78.0131C98.7008 78.3723 98.9971 78.7409 99.2749 79.1205Z" fill="#5A42DE"/>
<path d="M103.947 85.9045C103.819 85.9045 103.691 85.8452 103.61 85.7341C103.339 85.3637 103.047 85.0008 102.743 84.6545C99.4819 80.9397 94.68 78.8934 89.2189 78.8934C86.9171 78.8934 84.5948 79.26 82.3115 79.9841C82.1411 80.0378 81.956 79.9767 81.8485 79.8341L77.1782 73.4674C77.0985 73.36 77.0763 73.2193 77.1189 73.0915C77.1597 72.9637 77.2615 72.8637 77.3893 72.823C79.7541 72.073 82.1615 71.6934 84.5485 71.6934C90.2523 71.6934 95.2782 73.8397 98.6985 77.7378C99.0189 78.1026 99.3245 78.486 99.6115 78.8748L104.278 85.2378C104.28 85.2397 104.28 85.2415 104.282 85.2415C104.417 85.4267 104.378 85.6878 104.193 85.8248C104.119 85.8785 104.034 85.9045 103.947 85.9045ZM89.2208 78.06C93.4967 78.06 97.3911 79.2674 100.515 81.5137L98.9411 79.3674C98.6708 78.9971 98.3782 78.6341 98.0745 78.2878C94.8134 74.573 90.0115 72.5267 84.5504 72.5267C82.4356 72.5267 80.3023 72.836 78.2004 73.4489L82.3467 79.1026C84.6189 78.41 86.93 78.06 89.2208 78.06Z" fill="#F5F6F7"/>
</g>
<path d="M74.8082 108.534C74.6934 108.534 74.5804 108.488 74.4971 108.395L74.4322 108.321C74.2174 108.075 74.0119 107.819 73.8211 107.56L69.1508 101.193C69.0156 101.008 69.0545 100.747 69.2396 100.612C69.4248 100.477 69.6859 100.515 69.823 100.701L69.8267 100.706C70.0026 100.945 70.1915 101.18 70.3896 101.406L70.4489 101.473C70.4582 101.484 70.4674 101.493 70.4748 101.504L75.1452 107.871C75.2767 108.051 75.2452 108.301 75.0711 108.441C74.9933 108.504 74.8989 108.534 74.8082 108.534Z" fill="#F5F6F7"/>
<mask id="mask1_1019_63750" style="mask-type:luminance" maskUnits="userSpaceOnUse" x="69" y="100" width="7" height="9">
<path d="M74.8082 108.534C74.6934 108.534 74.5804 108.488 74.4971 108.395L74.4322 108.321C74.2174 108.075 74.0119 107.819 73.8211 107.56L69.1508 101.193C69.0156 101.008 69.0545 100.747 69.2396 100.612C69.4248 100.477 69.6859 100.515 69.823 100.701L69.8267 100.706C70.0026 100.945 70.1915 101.18 70.3896 101.406L70.4489 101.473C70.4582 101.484 70.4674 101.493 70.4748 101.504L75.1452 107.871C75.2767 108.051 75.2452 108.301 75.0711 108.441C74.9933 108.504 74.8989 108.534 74.8082 108.534Z" fill="white"/>
</mask>
<g mask="url(#mask1_1019_63750)">
<g opacity="0.6">
<path d="M70.4771 102.114L75.1474 108.481C75.0104 108.34 74.8752 108.195 74.7456 108.047C74.5363 107.81 74.34 107.564 74.1567 107.314L69.4863 100.947C69.6697 101.197 69.866 101.444 70.0752 101.681C70.2049 101.829 70.34 101.973 70.4771 102.114Z" fill="#5A42DE"/>
<path d="M75.145 108.897C75.0357 108.897 74.9283 108.854 74.8468 108.771C74.7024 108.625 74.5617 108.473 74.4283 108.321C74.2135 108.076 74.008 107.821 73.8172 107.56L69.1469 101.193C69.0117 101.008 69.0506 100.747 69.2357 100.612C69.4209 100.477 69.682 100.515 69.8191 100.701L69.8228 100.706C69.9987 100.945 70.1876 101.18 70.3857 101.406C70.5098 101.547 70.6394 101.688 70.7728 101.823C70.7876 101.838 70.7987 101.852 70.8117 101.867L75.482 108.234C75.6117 108.41 75.582 108.656 75.4154 108.799C75.3376 108.865 75.2413 108.897 75.145 108.897Z" fill="#F5F6F7"/>
</g>
</g>
<path d="M75.1459 108.896C75.0366 108.896 74.9292 108.853 74.8478 108.77C74.7274 108.648 74.6089 108.522 74.494 108.392C74.4903 108.387 74.4848 108.383 74.4811 108.377C74.4329 108.318 74.3774 108.24 74.3255 108.168L74.2681 108.088L69.7977 101.994C69.6663 101.814 69.6977 101.564 69.8718 101.424C70.044 101.283 70.2959 101.303 70.444 101.47C70.5515 101.588 70.6607 101.705 70.7718 101.82C70.7848 101.835 70.7977 101.849 70.8107 101.864L75.4811 108.231C75.6107 108.407 75.5811 108.653 75.4144 108.796C75.3366 108.864 75.2422 108.896 75.1459 108.896Z" fill="#F5F6F7"/>
<mask id="mask2_1019_63750" style="mask-type:luminance" maskUnits="userSpaceOnUse" x="69" y="101" width="7" height="8">
<path d="M75.1459 108.896C75.0366 108.896 74.9292 108.853 74.8478 108.77C74.7274 108.648 74.6089 108.522 74.494 108.392C74.4903 108.387 74.4848 108.383 74.4811 108.377C74.4329 108.318 74.3774 108.24 74.3255 108.168L74.2681 108.088L69.7977 101.994C69.6663 101.814 69.6977 101.564 69.8718 101.424C70.044 101.283 70.2959 101.303 70.444 101.47C70.5515 101.588 70.6607 101.705 70.7718 101.82C70.7848 101.835 70.7977 101.849 70.8107 101.864L75.4811 108.231C75.6107 108.407 75.5811 108.653 75.4144 108.796C75.3366 108.864 75.2422 108.896 75.1459 108.896Z" fill="white"/>
</mask>
<g mask="url(#mask2_1019_63750)">
<g opacity="0.6">
<path d="M70.4771 102.114L75.1474 108.481C75.0104 108.34 74.8752 108.195 74.7456 108.047C74.5363 107.81 74.34 107.564 74.1567 107.314L69.4863 100.947C69.6697 101.197 69.866 101.444 70.0752 101.681C70.2049 101.829 70.34 101.973 70.4771 102.114Z" fill="#5A42DE"/>
<path d="M75.145 108.897C75.0357 108.897 74.9283 108.854 74.8469 108.771C74.7024 108.625 74.5617 108.473 74.4283 108.321C74.2135 108.076 74.008 107.821 73.8172 107.56L69.1469 101.193C69.0117 101.008 69.0506 100.747 69.2357 100.612C69.4209 100.477 69.682 100.515 69.8191 100.701L69.8228 100.706C69.9987 100.945 70.1876 101.18 70.3857 101.406C70.5098 101.547 70.6394 101.688 70.7728 101.823C70.7876 101.838 70.7987 101.852 70.8117 101.867L75.482 108.234C75.6117 108.41 75.582 108.656 75.4154 108.799C75.3376 108.865 75.2413 108.897 75.145 108.897Z" fill="#F5F6F7"/>
</g>
</g>
<path d="M94.7102 94.2893C94.5991 94.6411 94.4713 94.9948 94.3306 95.343C94.0287 96.0911 93.662 96.8263 93.2306 97.5393C93.0232 97.8819 92.8028 98.2208 92.5639 98.5541C91.7565 99.693 90.775 100.763 89.6269 101.721C86.5028 104.334 82.7472 105.637 79.1991 105.637C75.6528 105.637 72.3139 104.332 70.025 101.721C65.4417 96.4985 66.7917 88.0356 73.038 82.8171C76.1621 80.2041 79.9176 78.9004 83.4658 78.9004C87.0121 78.9004 90.3509 80.206 92.6398 82.8171C92.7065 82.893 92.7695 82.9671 92.8287 83.043C93.1269 83.4022 93.4009 83.7782 93.6454 84.1615C94.088 84.8578 94.438 85.5893 94.7083 86.3559C94.8472 86.7448 94.9621 87.143 95.0528 87.5467C95.5546 89.7059 95.4269 92.0319 94.7102 94.2893Z" fill="#E8E5FA"/>
<path d="M95.0509 87.5469H82.8361C81.5472 87.5469 80.6602 86.5413 80.8602 85.2969C81.0583 84.0524 82.2639 83.0469 83.5546 83.0469H92.8287C93.1269 83.4061 93.4009 83.7821 93.6454 84.1654C94.088 84.8617 94.438 85.5932 94.7083 86.3598C94.8454 86.745 94.9602 87.1432 95.0509 87.5469Z" fill="#8674E7"/>
<path d="M94.7069 94.289C94.5958 94.6408 94.468 94.9945 94.3273 95.3427C94.0255 96.0908 93.6588 96.826 93.2273 97.539C93.0199 97.8816 92.7995 98.2204 92.5606 98.5538H80.9532C79.7292 98.5538 78.8958 97.5982 79.0829 96.4204C79.2717 95.2427 80.4125 94.2871 81.6329 94.2871H94.7069V94.289Z" fill="#8674E7"/>
<path d="M98.1777 46.1758H149.706L148.918 51.1128L135.378 136.013H70.1888H65.0703L69.1648 110.335C71.8611 111.731 74.9388 112.429 78.1259 112.429C82.4092 112.429 86.8925 111.168 90.9277 108.644H127.057C127.685 108.644 128.268 108.155 128.367 107.55C128.463 106.948 128.033 106.459 127.407 106.459H93.9222C96.9814 103.881 99.2499 100.785 100.68 97.5147H128.833C129.461 97.5147 130.044 97.0258 130.141 96.4239C130.237 95.8202 129.807 95.3295 129.181 95.3295H101.505C102.455 92.3499 102.718 89.2887 102.267 86.385H130.607C131.235 86.385 131.818 85.8962 131.915 85.2943C132.011 84.6906 131.581 84.1999 130.956 84.1999H101.78C101.12 81.9536 99.9962 79.8499 98.387 78.011C94.9333 74.0758 89.8981 72.1073 84.5499 72.1073C81.3648 72.1073 78.0703 72.8054 74.9296 74.1999L76.5092 64.2906H94.9685L97.8092 46.485L98.1777 46.1758ZM125.283 119.772C125.911 119.772 126.494 119.283 126.593 118.678C126.689 118.076 126.259 117.587 125.633 117.587H81.6796C81.0555 117.587 80.4703 118.076 80.374 118.678C80.2777 119.281 80.7073 119.772 81.3314 119.772H125.283ZM132.383 75.2573C133.011 75.2573 133.594 74.7684 133.691 74.1665C133.787 73.5628 133.357 73.0721 132.731 73.0721H102.937C102.311 73.0721 101.728 73.561 101.631 74.1665C101.535 74.7684 101.961 75.2573 102.589 75.2573H132.383Z" fill="#F5F6F7"/>
<path d="M135.378 136.428H65.0704C64.9482 136.428 64.8334 136.374 64.7537 136.282C64.6741 136.189 64.6408 136.067 64.6593 135.946L68.7556 110.269C68.776 110.137 68.8593 110.022 68.9797 109.963C69.0982 109.902 69.2408 109.904 69.3593 109.965C71.9482 111.306 74.9797 112.013 78.1278 112.013C82.4667 112.013 86.8167 110.726 90.7074 108.291C90.7741 108.25 90.85 108.228 90.9278 108.228H127.057C127.48 108.228 127.891 107.887 127.954 107.485C127.98 107.322 127.943 107.171 127.848 107.059C127.748 106.941 127.591 106.876 127.406 106.876H93.9223C93.7463 106.876 93.5908 106.767 93.5315 106.602C93.4723 106.437 93.5204 106.254 93.6537 106.141C96.5537 103.697 98.8519 100.656 100.298 97.3484C100.365 97.1965 100.515 97.0984 100.68 97.0984H128.833C129.256 97.0984 129.667 96.7595 129.73 96.3576C129.756 96.1928 129.719 96.0409 129.624 95.9298C129.524 95.8113 129.367 95.7465 129.182 95.7465H101.506C101.372 95.7465 101.248 95.6835 101.169 95.5761C101.091 95.4687 101.069 95.3298 101.107 95.2039C102.035 92.2946 102.293 89.2669 101.854 86.4502C101.835 86.3298 101.87 86.2076 101.948 86.115C102.026 86.0224 102.143 85.9687 102.265 85.9687H130.606C131.028 85.9687 131.439 85.6298 131.502 85.228C131.528 85.0632 131.491 84.9113 131.396 84.8002C131.296 84.6817 131.139 84.6169 130.954 84.6169H101.78C101.594 84.6169 101.432 84.4946 101.38 84.3169C100.72 82.0669 99.6074 80.0372 98.0723 78.2854C94.8111 74.5706 90.0093 72.5243 84.5482 72.5243C81.3926 72.5243 78.1241 73.2354 75.0963 74.5817C74.9574 74.6428 74.7945 74.6243 74.6723 74.5317C74.55 74.4391 74.4908 74.2872 74.5148 74.1354L76.0945 64.2261C76.126 64.0243 76.3019 63.8743 76.5056 63.8743H94.6093L97.3926 46.4187C97.4074 46.3206 97.4593 46.2298 97.5352 46.165L97.9056 45.8521C97.9815 45.7891 98.076 45.7539 98.1741 45.7539H149.706C149.828 45.7539 149.943 45.8076 150.022 45.9002C150.102 45.9928 150.135 46.115 150.117 46.2354L135.789 136.072C135.757 136.28 135.583 136.428 135.378 136.428ZM65.5574 135.595H135.022L149.217 46.5909H98.3297L98.1945 46.7058L95.3797 64.3595C95.3482 64.5613 95.1723 64.7113 94.9686 64.7113H76.8648L75.4593 73.5243C78.3945 72.3243 81.5204 71.6928 84.55 71.6928C90.2537 71.6928 95.2797 73.8391 98.7 77.7372C100.246 79.5039 101.385 81.5354 102.089 83.7835H130.957C131.383 83.7835 131.776 83.9576 132.033 84.2595C132.289 84.5595 132.394 84.9502 132.328 85.3595C132.198 86.1687 131.443 86.8021 130.607 86.8021H102.746C103.083 89.4298 102.85 92.2132 102.067 94.9132H129.182C129.607 94.9132 130 95.0872 130.257 95.3891C130.513 95.6891 130.619 96.0798 130.552 96.4891C130.422 97.2984 129.667 97.9317 128.832 97.9317H100.95C99.5926 100.935 97.5593 103.715 95.026 106.043H127.406C127.832 106.043 128.224 106.217 128.482 106.519C128.737 106.819 128.841 107.208 128.776 107.617C128.646 108.426 127.891 109.061 127.056 109.061H91.0463C87.0482 111.539 82.5834 112.846 78.126 112.846C75.05 112.846 72.0778 112.196 69.4871 110.959L65.5574 135.595ZM125.283 120.189H81.3315C80.9074 120.189 80.5148 120.017 80.2574 119.713C80.0019 119.413 79.8963 119.022 79.963 118.611C80.0926 117.802 80.8463 117.169 81.6797 117.169H125.632C126.057 117.169 126.45 117.343 126.707 117.645C126.963 117.945 127.067 118.334 127.002 118.743C126.874 119.554 126.119 120.189 125.283 120.189ZM81.6797 118.004C81.2593 118.004 80.85 118.343 80.7852 118.745C80.7593 118.909 80.7963 119.063 80.8908 119.174C80.9908 119.293 81.1482 119.358 81.3297 119.358H125.282C125.704 119.358 126.115 119.017 126.178 118.615C126.204 118.452 126.167 118.3 126.072 118.189C125.972 118.071 125.815 118.006 125.63 118.006H81.6797V118.004ZM132.383 75.6743H102.589C102.163 75.6743 101.772 75.5021 101.515 75.2002C101.259 74.9002 101.156 74.5113 101.22 74.1021C101.35 73.2909 102.104 72.6576 102.937 72.6576H132.732C133.157 72.6576 133.55 72.8317 133.807 73.1335C134.063 73.4335 134.169 73.8243 134.102 74.2335C133.974 75.0409 133.219 75.6743 132.383 75.6743ZM102.937 73.4891C102.517 73.4891 102.107 73.8298 102.043 74.2317C102.017 74.3965 102.054 74.5484 102.148 74.6576C102.248 74.7743 102.404 74.8391 102.589 74.8391H132.383C132.806 74.8391 133.217 74.5002 133.28 74.0984C133.306 73.9335 133.269 73.7817 133.174 73.6706C133.074 73.5521 132.917 73.4872 132.732 73.4872H102.937V73.4891Z" fill="#F5F6F7"/>
<g opacity="0.5">
<g opacity="0.6">
<path d="M73.6129 82.4316L73.1703 85.2113C73.1017 85.2631 73.0332 85.315 72.9666 85.3724C71.461 86.6279 71.1369 88.6687 72.2406 89.9261C72.2888 89.9816 72.3406 90.0353 72.3943 90.0853L70.4758 102.111C70.3388 101.971 70.2036 101.826 70.074 101.678C67.7962 99.0798 66.9925 95.6742 67.5369 92.2705C68.0795 88.865 69.9684 85.4613 73.0758 82.865C73.2499 82.7168 73.4314 82.5724 73.6129 82.4316Z" fill="#C2BAF3"/>
</g>
</g>
<path d="M129.18 95.3301C129.807 95.3301 130.235 95.819 130.139 96.4245C130.043 97.0264 129.457 97.5153 128.831 97.5153H100.678C100.994 96.7949 101.27 96.0653 101.502 95.3301H129.18Z" fill="#C2BAF3"/>
<path d="M128.831 97.9307H100.677C100.537 97.9307 100.405 97.8604 100.329 97.7418C100.253 97.6233 100.24 97.4752 100.296 97.3474C100.609 96.6326 100.881 95.9122 101.105 95.2048C101.159 95.0307 101.32 94.9141 101.503 94.9141H129.179C129.605 94.9141 129.998 95.0881 130.255 95.39C130.511 95.69 130.616 96.0807 130.55 96.49C130.422 97.2974 129.666 97.9307 128.831 97.9307ZM101.307 97.0974H128.831C129.253 97.0974 129.664 96.7585 129.727 96.3567C129.753 96.1918 129.716 96.04 129.622 95.9289C129.522 95.8104 129.364 95.7455 129.179 95.7455H101.805C101.657 96.1937 101.49 96.6455 101.307 97.0974Z" fill="#C2BAF3"/>
<path d="M127.407 106.461C128.035 106.461 128.463 106.95 128.367 107.552C128.27 108.155 127.685 108.646 127.057 108.646H90.9258C91.9276 108.02 92.9017 107.315 93.8369 106.533C93.8647 106.509 93.8943 106.485 93.9221 106.463H127.407V106.461Z" fill="#C2BAF3"/>
<path d="M127.058 109.062H90.9262C90.741 109.062 90.5762 108.939 90.5262 108.76C90.4743 108.582 90.5484 108.389 90.7058 108.291C91.7002 107.669 92.6632 106.969 93.5706 106.212L93.6484 106.147C93.7243 106.084 93.8243 106.045 93.9225 106.045H127.408C127.834 106.045 128.226 106.219 128.484 106.521C128.739 106.821 128.843 107.21 128.778 107.619C128.648 108.426 127.895 109.062 127.058 109.062ZM92.3077 108.228H127.058C127.48 108.228 127.891 107.888 127.954 107.486C127.98 107.323 127.943 107.171 127.848 107.06C127.748 106.941 127.591 106.876 127.406 106.876H94.0725C93.5058 107.35 92.9151 107.802 92.3077 108.228Z" fill="#C2BAF3"/>
<path d="M153.911 51.9091L153.252 56.0499L153.124 56.848L139.711 140.946H68.6907L65.0703 136.011H135.378L148.918 51.1147L149.707 46.1758L153.911 51.9091Z" fill="#E8E5FA"/>
<path d="M139.711 141.364H68.6925C68.5592 141.364 68.4351 141.301 68.3573 141.194L64.7351 136.258C64.6425 136.132 64.6277 135.964 64.6999 135.823C64.7703 135.682 64.9147 135.595 65.0722 135.595H135.024L148.509 51.0491L149.298 46.1102C149.324 45.9435 149.448 45.8102 149.611 45.7713C149.776 45.7324 149.946 45.7935 150.044 45.9306L154.248 51.6639C154.315 51.7528 154.341 51.8657 154.324 51.975L153.537 56.9139L140.122 141.014C140.089 141.216 139.915 141.364 139.711 141.364ZM68.9018 140.531H139.354L152.713 56.7824L153.472 52.0157L149.961 47.2268L149.33 51.1806L135.789 136.077C135.757 136.279 135.581 136.429 135.378 136.429H65.8925L68.9018 140.531Z" fill="#F5F6F7"/>
<path d="M144.042 145.885L148.712 152.251H78.4008L73.7305 145.885H144.042Z" fill="#C2BAF3"/>
<path d="M148.712 152.669H78.4008C78.2675 152.669 78.1434 152.606 78.0656 152.498L73.3953 146.132C73.3027 146.006 73.2879 145.837 73.3601 145.697C73.4305 145.556 73.5749 145.469 73.7323 145.469H144.043C144.177 145.469 144.301 145.532 144.379 145.639L149.049 152.006C149.142 152.132 149.156 152.3 149.084 152.441C149.012 152.58 148.869 152.669 148.712 152.669ZM78.6119 151.835H147.89L143.83 146.302H74.5527L78.6119 151.835Z" fill="#F5F6F7"/>
<path d="M158.369 56.0488L144.042 145.884H73.7305L74.5175 140.945H139.71L153.249 56.0488H158.369Z" fill="#F5F6F7"/>
<path d="M144.042 146.301H73.7306C73.6083 146.301 73.4935 146.248 73.4139 146.155C73.3343 146.062 73.3009 145.94 73.3194 145.82L74.1065 140.883C74.138 140.681 74.3139 140.531 74.5176 140.531H139.355L152.838 55.9847C152.869 55.7828 153.045 55.6328 153.249 55.6328H158.369C158.492 55.6328 158.606 55.6865 158.686 55.7791C158.766 55.8717 158.799 55.9939 158.781 56.1143L144.453 145.949C144.421 146.151 144.247 146.301 144.042 146.301ZM74.2194 145.468H143.686L157.881 56.4661H153.605L140.121 141.012C140.09 141.214 139.914 141.364 139.71 141.364H74.8731L74.2194 145.468Z" fill="#F5F6F7"/>
<path d="M158.369 56.0488L163.039 62.4155L148.711 152.251L144.041 145.884L158.369 56.0488Z" fill="#E8E5FA"/>
<path d="M148.711 152.668C148.58 152.668 148.456 152.607 148.376 152.498L143.706 146.131C143.639 146.042 143.613 145.929 143.63 145.818L157.958 55.9832C157.984 55.8166 158.108 55.6832 158.271 55.6443C158.435 55.6054 158.606 55.6666 158.704 55.8036L163.374 62.1703C163.441 62.2592 163.467 62.3721 163.45 62.4832L149.123 152.318C149.097 152.485 148.973 152.618 148.81 152.657C148.776 152.665 148.743 152.668 148.711 152.668ZM144.48 145.778L148.456 151.2L162.598 62.5221L158.623 57.0999L144.48 145.778Z" fill="#F5F6F7"/>
<path d="M66.6541 108.742L42.3911 129.026C42.3337 129.074 42.2745 129.116 42.2152 129.161C42.1874 129.181 42.1615 129.201 42.1337 129.222C42.0856 129.255 42.0356 129.285 41.9874 129.316C41.9522 129.338 41.9171 129.363 41.8819 129.383C41.8559 129.398 41.8282 129.411 41.8022 129.426C41.7374 129.461 41.6708 129.496 41.6041 129.526C41.58 129.537 41.5559 129.546 41.5319 129.555C41.443 129.594 41.3541 129.627 41.2652 129.657C41.2245 129.672 41.1819 129.685 41.1393 129.698C41.1059 129.707 41.0708 129.718 41.0374 129.726C40.9837 129.738 40.93 129.751 40.8763 129.763C40.843 129.77 40.8096 129.776 40.7782 129.781C40.7189 129.79 40.6615 129.798 40.6022 129.805C40.5745 129.809 40.5467 129.813 40.5189 129.814C40.4337 129.822 40.3467 129.826 40.2615 129.826C39.5356 129.826 38.8541 129.559 38.3856 129.026L37.5208 128.04C37.4782 127.992 37.4393 127.942 37.4004 127.89L42.0708 134.257C42.1078 134.309 42.1485 134.359 42.1911 134.407L43.0559 135.392C43.5245 135.926 44.2059 136.192 44.9319 136.192C45.0171 136.192 45.1022 136.188 45.1893 136.181C45.2171 136.179 45.2448 136.174 45.2726 136.172C45.3319 136.164 45.3893 136.157 45.4485 136.148C45.4819 136.142 45.5152 136.135 45.5467 136.129C45.6004 136.118 45.6541 136.107 45.7078 136.092C45.743 136.083 45.7763 136.074 45.8097 136.064C45.8337 136.057 45.8596 136.051 45.8837 136.044C45.9004 136.038 45.9171 136.031 45.9356 136.024C46.0263 135.994 46.1152 135.959 46.2022 135.922C46.2189 135.914 46.2374 135.909 46.2559 135.901C46.2634 135.898 46.2689 135.894 46.2763 135.892C46.343 135.861 46.4078 135.827 46.4745 135.792C46.4985 135.779 46.5226 135.77 46.5467 135.755C46.5504 135.753 46.5522 135.751 46.5541 135.75C46.5893 135.729 46.6245 135.705 46.6596 135.683C46.7041 135.655 46.7504 135.629 46.7948 135.598C46.7985 135.596 46.8022 135.592 46.8059 135.588C46.8337 135.57 46.8596 135.548 46.8874 135.527C46.9319 135.494 46.9782 135.463 47.0208 135.427C47.0356 135.416 47.0485 135.405 47.0634 135.392L71.3263 115.109L66.6541 108.742Z" fill="#5A42DE"/>
<path d="M44.9276 136.608C44.0498 136.608 43.272 136.273 42.7387 135.666L41.8739 134.68C41.8239 134.623 41.7757 134.564 41.7313 134.503L37.0628 128.14C37.0628 128.138 37.0609 128.138 37.0609 128.136C36.9257 127.951 36.9646 127.69 37.1498 127.555C37.335 127.419 37.5961 127.458 37.7313 127.643L37.7331 127.647C37.7628 127.688 37.7942 127.727 37.8276 127.766L38.6924 128.751C39.0646 129.175 39.6202 129.408 40.2554 129.408C40.3294 129.408 40.4017 129.405 40.4757 129.397L40.5498 129.388C40.5998 129.382 40.6498 129.377 40.7017 129.367C40.722 129.364 40.7442 129.36 40.7646 129.355L40.7887 129.349C40.835 129.34 40.8831 129.329 40.9294 129.317C40.9591 129.31 40.9905 129.301 41.0202 129.293C41.0572 129.282 41.0924 129.271 41.1294 129.258C41.2072 129.232 41.285 129.203 41.3628 129.169L41.4257 129.143C41.485 129.116 41.5424 129.086 41.5998 129.055L41.6702 129.017C41.685 129.008 41.7017 128.999 41.7165 128.988L41.7942 128.938C41.8276 128.917 41.8591 128.897 41.8924 128.875C41.9035 128.867 41.9146 128.858 41.9257 128.849L41.9794 128.808C42.0257 128.773 42.0739 128.74 42.1183 128.701L66.3813 108.417C66.4702 108.343 66.5831 108.31 66.6979 108.323C66.8128 108.336 66.9146 108.397 66.9831 108.49L71.6535 114.856C71.7831 115.034 71.7535 115.282 71.585 115.423L47.2776 135.751C47.2387 135.782 47.1998 135.812 47.1591 135.84L47.1054 135.879C47.0831 135.895 47.0609 135.912 47.0387 135.929C46.9887 135.964 46.9498 135.988 46.9109 136.012L46.8424 136.055C46.8165 136.071 46.7905 136.088 46.7646 136.103C46.7572 136.108 46.7498 136.112 46.7424 136.116C46.7257 136.125 46.7035 136.136 46.6831 136.145L46.6665 136.153C46.5924 136.192 46.5202 136.23 46.4442 136.266C46.4461 136.266 46.4331 136.271 46.422 136.277C46.4035 136.284 46.3831 136.293 46.3628 136.301C46.2628 136.343 46.1628 136.382 46.0628 136.416C46.0461 136.423 46.0239 136.43 46.0035 136.438C45.985 136.443 45.9628 136.449 45.9424 136.455L45.922 136.46C45.8831 136.471 45.8442 136.482 45.8054 136.492C45.7442 136.506 45.685 136.521 45.6239 136.532L45.6035 136.536C45.572 136.542 45.5424 136.549 45.5109 136.555C45.4442 136.566 45.3776 136.575 45.3128 136.582L45.2887 136.586C45.2646 136.59 45.2424 136.592 45.2183 136.593C45.1146 136.605 45.0202 136.608 44.9276 136.608ZM39.5905 130.175L42.4054 134.012C42.435 134.053 42.4683 134.093 42.5017 134.132L43.3665 135.117C43.7813 135.592 44.4331 135.827 45.1498 135.766L45.222 135.756C45.272 135.751 45.3239 135.745 45.3739 135.736C45.3942 135.732 45.4165 135.729 45.4368 135.723L45.4591 135.719C45.5072 135.71 45.5535 135.699 45.5998 135.688C45.6294 135.68 45.6591 135.671 45.6905 135.664L45.7535 135.647C45.7646 135.642 45.7831 135.634 45.7998 135.629C45.8776 135.603 45.9572 135.573 46.035 135.538C46.0498 135.53 46.0665 135.525 46.0831 135.519L46.0961 135.514C46.1572 135.486 46.2146 135.455 46.2739 135.423C46.2887 135.414 46.3054 135.406 46.3202 135.399L46.3331 135.392C46.3368 135.388 46.3424 135.386 46.3461 135.384C46.3591 135.377 46.3757 135.366 46.3924 135.356L46.4794 135.303C46.5054 135.288 46.5313 135.271 46.5554 135.255C46.5776 135.238 46.5887 135.23 46.5998 135.221L46.6702 135.167C46.6979 135.147 46.7257 135.127 46.7535 135.105L46.7905 135.075L70.7554 115.042L66.5794 109.347L42.6554 129.345C42.5961 129.393 42.5368 129.44 42.4757 129.484L42.435 129.516C42.4128 129.532 42.3924 129.549 42.3702 129.564C42.3257 129.593 42.2813 129.621 42.2368 129.649L42.172 129.69C42.1442 129.708 42.1165 129.725 42.0887 129.742C42.0665 129.755 42.0442 129.766 42.022 129.777L41.998 129.79C41.9257 129.829 41.8517 129.867 41.7776 129.903C41.7572 129.912 41.7368 129.921 41.7146 129.929L41.6942 129.938C41.5961 129.98 41.4961 130.019 41.3942 130.053C41.348 130.069 41.2998 130.084 41.2535 130.097C41.2146 130.108 41.1757 130.119 41.1368 130.129C41.0776 130.143 41.0165 130.158 40.9554 130.169L40.935 130.173C40.9054 130.179 40.8739 130.186 40.8442 130.19C40.7776 130.201 40.7128 130.21 40.6461 130.217L40.6202 130.221C40.5979 130.225 40.5739 130.227 40.5498 130.229C40.4461 130.238 40.3498 130.242 40.2572 130.242C40.0276 130.242 39.8035 130.219 39.5905 130.175Z" fill="#F5F6F7"/>
<path d="M102.265 86.3853C102.15 85.6464 101.987 84.9149 101.776 84.2001C101.118 81.952 99.9925 79.8501 98.3833 78.0112C94.9296 74.076 89.8944 72.1094 84.5462 72.1094C81.3592 72.1094 78.0648 72.8057 74.9259 74.2038C72.7888 75.1538 70.7259 76.4242 68.8185 78.0186C60.3944 85.0594 57.8814 96.0223 62.3981 103.893L38.1314 124.18C36.8574 125.243 36.5833 126.97 37.5166 128.039L38.3814 129.024C38.8481 129.558 39.5333 129.826 40.2555 129.826C40.9814 129.826 41.7499 129.558 42.3851 129.024L66.6499 108.743C67.4425 109.345 68.2833 109.878 69.1629 110.333C71.8592 111.728 74.937 112.428 78.124 112.428C82.4092 112.428 86.8925 111.169 90.924 108.643C91.9277 108.017 92.8999 107.311 93.9222 106.458C96.9796 103.878 99.2499 100.783 100.68 97.5112C100.993 96.7946 101.27 96.0612 101.502 95.326C102.452 92.352 102.717 89.2872 102.265 86.3853ZM89.624 101.722C86.4999 104.335 82.7444 105.639 79.1962 105.639C75.6499 105.639 72.3111 104.333 70.0222 101.722C65.4388 96.5001 66.7888 88.0372 73.0351 82.8186C76.1592 80.2057 79.9148 78.902 83.4629 78.902C87.0092 78.902 90.3481 80.2075 92.637 82.8186C92.7036 82.8946 92.7666 82.9686 92.8259 83.0446C93.124 83.4038 93.3981 83.7797 93.6425 84.1631C94.0851 84.8594 94.4351 85.5909 94.7055 86.3575C94.8444 86.7464 94.9592 87.1446 95.0499 87.5483C95.5499 89.7094 95.424 92.0353 94.7055 94.2909C94.5944 94.6427 94.4666 94.9964 94.3259 95.3446C94.024 96.0927 93.6574 96.8279 93.2259 97.5409C93.0185 97.8835 92.7981 98.2223 92.5592 98.5557C91.7555 99.6946 90.7722 100.765 89.624 101.722Z" fill="#8674E7"/>
<path d="M40.256 130.243C39.3783 130.243 38.6005 129.908 38.069 129.299L37.2042 128.314C36.7264 127.766 36.4968 127.045 36.556 126.286C36.6283 125.379 37.1042 124.493 37.8653 123.86L61.8671 103.795C59.7542 99.9248 59.2153 95.2359 60.3523 90.5471C61.5283 85.7008 64.4412 81.1378 68.5542 77.6989C70.4505 76.1137 72.5394 74.81 74.7597 73.823C77.8894 72.4304 81.2745 71.6934 84.5505 71.6934C90.2542 71.6934 95.2801 73.8397 98.7005 77.7378C100.319 79.5859 101.489 81.7211 102.18 84.0841C102.393 84.8082 102.562 85.56 102.68 86.3211C103.139 89.2637 102.869 92.423 101.902 95.4545C101.671 96.1897 101.389 96.9378 101.065 97.6785C99.569 101.103 97.1912 104.247 94.1931 106.777C93.1783 107.625 92.182 108.351 91.1468 108.995C87.1282 111.512 82.6264 112.843 78.1264 112.843C74.8468 112.843 71.682 112.103 68.9745 110.703C68.1783 110.292 67.4042 109.81 66.6671 109.273L42.6523 129.345C41.9616 129.923 41.1116 130.243 40.256 130.243ZM84.5486 72.5267C81.3894 72.5267 78.1208 73.2378 75.0968 74.5841C72.9468 75.5397 70.9246 76.8026 69.0875 78.3378C60.9134 85.1693 58.2523 95.8304 62.7616 103.684C62.8616 103.86 62.8227 104.082 62.6671 104.212L38.3986 124.499C37.8097 124.992 37.4394 125.666 37.3857 126.351C37.3431 126.886 37.5005 127.388 37.8301 127.764L38.6949 128.749C39.0671 129.175 39.6209 129.408 40.256 129.408C40.9153 129.408 41.5783 129.158 42.119 128.704L66.3838 108.423C66.5338 108.299 66.7486 108.293 66.9042 108.412C67.6801 109.003 68.5042 109.525 69.356 109.964C71.9449 111.303 74.9783 112.012 78.1264 112.012C82.469 112.012 86.819 110.725 90.7042 108.292C91.706 107.666 92.6727 106.962 93.656 106.14C96.556 103.695 98.8523 100.654 100.299 97.3471C100.612 96.6322 100.882 95.9119 101.106 95.2045C102.034 92.2934 102.293 89.2674 101.854 86.4508C101.741 85.7267 101.582 85.01 101.378 84.3211C100.723 82.0748 99.6097 80.0452 98.0708 78.2878C94.8116 74.573 90.0079 72.5267 84.5486 72.5267ZM79.1968 106.056C75.3727 106.056 72.0023 104.616 69.7079 101.997C67.6597 99.6637 66.6727 96.5748 66.9264 93.2971C67.2375 89.2767 69.3671 85.3397 72.7671 82.4989C75.8634 79.91 79.6616 78.4841 83.4634 78.4841C87.2875 78.4841 90.6579 79.9248 92.9523 82.5434C93.0227 82.623 93.0894 82.7026 93.1542 82.7841C93.4542 83.1452 93.7394 83.5359 93.9968 83.9378C94.4431 84.6378 94.8153 85.4045 95.1023 86.2156C95.2449 86.6156 95.3653 87.0322 95.4597 87.4545C95.9727 89.6674 95.8505 92.0748 95.106 94.4156C94.9894 94.7822 94.8579 95.1471 94.7153 95.5008C94.406 96.2693 94.0264 97.0267 93.5857 97.7563C93.3616 98.1248 93.1394 98.4656 92.9023 98.7989C92.0579 99.9896 91.0449 101.08 89.8931 102.043C86.7968 104.63 82.9986 106.056 79.1968 106.056ZM83.4634 79.3174C79.8579 79.3174 76.2486 80.6748 73.3023 83.1378C70.0727 85.8359 68.0505 89.5637 67.7579 93.3619C67.5208 96.4137 68.4375 99.2841 70.3357 101.447C72.469 103.882 75.6171 105.223 79.1968 105.223C82.8023 105.223 86.4116 103.866 89.3579 101.403C90.456 100.486 91.419 99.4471 92.2227 98.3156C92.4468 97.9989 92.6597 97.6767 92.8727 97.3248C93.2894 96.6341 93.6486 95.9156 93.9431 95.1878C94.0782 94.8545 94.2023 94.51 94.3116 94.1637C95.0097 91.9656 95.1264 89.71 94.6468 87.6396C94.5597 87.2489 94.4486 86.8637 94.3171 86.4952C94.0505 85.7415 93.706 85.0322 93.2949 84.386C93.0579 84.0137 92.7931 83.6508 92.5097 83.31C92.4486 83.2341 92.3894 83.1637 92.3282 83.0934C90.1912 80.6582 87.0431 79.3174 83.4634 79.3174Z" fill="#F5F6F7"/>
<path d="M79.7061 89.5067C79.669 89.4011 79.6227 89.3011 79.5598 89.2067C79.5209 89.1419 79.4746 89.0808 79.4228 89.0215C79.1098 88.666 78.6542 88.4863 78.1691 88.4863C78.1302 88.4863 78.0913 88.4882 78.0505 88.49C77.6005 88.516 77.1357 88.6937 76.7431 89.0215C76.2468 89.4363 75.9765 90.0011 75.9616 90.5419C75.9505 90.9308 76.0709 91.3067 76.332 91.6048C76.645 91.9604 77.1005 92.14 77.5857 92.14C78.0709 92.14 78.5839 91.9623 79.0098 91.6048C79.2116 91.4345 79.3783 91.2419 79.5042 91.0326C79.5635 90.9363 79.6116 90.8363 79.6542 90.7326C79.8209 90.3252 79.8413 89.89 79.7061 89.5067Z" fill="#F5F6F7"/>
<path d="M78.1871 86.226C78.1223 86.0408 78.0353 85.8649 77.9297 85.6982C77.8575 85.5852 77.7797 85.4778 77.689 85.3741C77.1371 84.7445 76.3316 84.4297 75.4778 84.4297C74.6982 84.4297 73.8797 84.6908 73.1704 85.213C73.1019 85.2649 73.0334 85.3167 72.9667 85.3723C71.4612 86.6278 71.1371 88.6686 72.2408 89.926C72.2908 89.9815 72.3408 90.0352 72.3945 90.0852C72.9353 90.6075 73.6723 90.8667 74.4519 90.8667C74.9519 90.8667 75.4704 90.7593 75.9649 90.5445C76.3149 90.3927 76.6519 90.1852 76.9649 89.926C77.3204 89.626 77.613 89.2852 77.8334 88.9186C77.9167 88.7797 77.9908 88.6371 78.0519 88.4927C78.0667 88.4575 78.0816 88.4241 78.0945 88.3889C78.3871 87.6686 78.4223 86.9019 78.1871 86.226Z" fill="#F5F6F7"/>
<path d="M139.711 140.947H68.6907L65.0703 136.012H135.378L139.711 140.947Z" fill="#C2BAF3"/>
<path d="M139.711 141.364H68.6925C68.5592 141.364 68.4351 141.301 68.3573 141.194L64.7351 136.259C64.6425 136.133 64.6277 135.964 64.6999 135.823C64.7703 135.683 64.9147 135.596 65.0722 135.596H135.38C135.5 135.596 135.613 135.648 135.693 135.738L140.026 140.673C140.133 140.796 140.159 140.972 140.093 141.12C140.022 141.27 139.874 141.364 139.711 141.364ZM68.9018 140.531H138.789L135.187 136.429H65.8907L68.9018 140.531Z" fill="#F5F6F7"/>
<path d="M130.953 84.2012C131.581 84.2012 132.009 84.6901 131.913 85.2956C131.816 85.8975 131.231 86.3864 130.605 86.3864H102.264C102.15 85.6475 101.987 84.9141 101.777 84.2012H130.953Z" fill="#C2BAF3"/>
<path d="M130.606 86.8037H102.265C102.06 86.8037 101.886 86.6537 101.854 86.45C101.743 85.7296 101.584 85.0129 101.378 84.3185C101.341 84.1926 101.365 84.0555 101.445 83.9518C101.523 83.8463 101.647 83.7852 101.778 83.7852H130.956C131.382 83.7852 131.775 83.9592 132.032 84.2611C132.288 84.5611 132.393 84.9518 132.326 85.3611C132.197 86.1703 131.441 86.8037 130.606 86.8037ZM102.619 85.9703H130.606C131.028 85.9703 131.439 85.6315 131.502 85.2296C131.528 85.0648 131.491 84.9129 131.397 84.8018C131.297 84.6833 131.139 84.6185 130.954 84.6185H102.325C102.441 85.0648 102.539 85.5166 102.619 85.9703Z" fill="#C2BAF3"/>
<path d="M132.729 73.0742C133.357 73.0742 133.784 73.5631 133.688 74.1687C133.592 74.7705 133.007 75.2594 132.381 75.2594H102.586C101.96 75.2594 101.532 74.7705 101.629 74.1687C101.725 73.565 102.308 73.0742 102.934 73.0742H132.729Z" fill="#C2BAF3"/>
<path d="M132.381 75.6749H102.587C102.161 75.6749 101.77 75.5026 101.512 75.2008C101.257 74.9008 101.153 74.5119 101.218 74.1027C101.348 73.2934 102.101 72.6582 102.935 72.6582H132.729C133.155 72.6582 133.548 72.8323 133.805 73.1341C134.061 73.4341 134.166 73.8249 134.1 74.2341C133.972 75.0415 133.216 75.6749 132.381 75.6749ZM102.935 73.4897C102.514 73.4897 102.105 73.8304 102.04 74.2323C102.014 74.3971 102.051 74.5489 102.146 74.6601C102.246 74.7767 102.401 74.8415 102.587 74.8415H132.381C132.803 74.8415 133.214 74.5026 133.277 74.1008C133.303 73.936 133.266 73.7841 133.172 73.673C133.072 73.5545 132.914 73.4897 132.729 73.4897H102.935Z" fill="#C2BAF3"/>
<path d="M125.632 117.588C126.26 117.588 126.688 118.077 126.591 118.679C126.495 119.282 125.91 119.773 125.282 119.773H81.3322C80.7081 119.773 80.2785 119.284 80.3748 118.679C80.4711 118.077 81.0563 117.588 81.6804 117.588H125.632Z" fill="#C2BAF3"/>
<path d="M125.283 120.19H81.3315C80.9074 120.19 80.5167 120.018 80.2593 119.716C80.0037 119.416 79.8982 119.026 79.9648 118.614C80.0945 117.805 80.8482 117.172 81.6815 117.172H125.632C126.057 117.172 126.45 117.346 126.707 117.648C126.963 117.948 127.067 118.337 127.002 118.746C126.874 119.555 126.119 120.19 125.283 120.19ZM81.6796 118.005C81.2593 118.005 80.85 118.344 80.7852 118.746C80.7593 118.911 80.7963 119.064 80.8908 119.176C80.9908 119.294 81.1463 119.359 81.3297 119.359H125.281C125.704 119.359 126.115 119.018 126.178 118.616C126.204 118.453 126.167 118.302 126.072 118.19C125.972 118.072 125.815 118.007 125.63 118.007H81.6796V118.005Z" fill="#C2BAF3"/>
<path d="M106.936 92.7526C106.902 92.5396 106.865 92.3266 106.824 92.1155C106.821 92.0952 106.817 92.0748 106.813 92.0544C106.806 92.0155 106.795 91.9766 106.787 91.9359C106.752 91.7637 106.713 91.5915 106.673 91.4211C106.658 91.3581 106.643 91.2933 106.626 91.2304C106.571 91.0081 106.512 90.7878 106.449 90.5692C106.362 90.2711 106.261 89.9766 106.158 89.6841C106.145 89.647 106.136 89.61 106.121 89.5729C106.108 89.5341 106.089 89.497 106.076 89.46C105.978 89.1933 105.874 88.9303 105.761 88.6692C105.752 88.6452 105.743 88.6229 105.732 88.5989C105.61 88.3192 105.476 88.0433 105.339 87.7692C105.323 87.7378 105.31 87.7063 105.295 87.6748C105.273 87.6304 105.245 87.5859 105.223 87.5415C105.128 87.3618 105.03 87.1859 104.93 87.0081C104.887 86.9359 104.849 86.8618 104.804 86.7896C104.662 86.5489 104.513 86.31 104.356 86.0748C104.356 86.0729 104.354 86.0729 104.354 86.0711C104.223 85.8748 104.087 85.6804 103.947 85.4878L99.2763 79.1211C99.4189 79.3137 99.5541 79.51 99.6874 79.7081C99.8448 79.9433 99.993 80.1822 100.136 80.4229C100.178 80.4952 100.219 80.5692 100.261 80.6415C100.361 80.8174 100.46 80.9952 100.554 81.1729C100.595 81.2489 100.634 81.3248 100.673 81.4007C100.812 81.6748 100.943 81.9507 101.065 82.2304C101.074 82.2526 101.084 82.2767 101.093 82.3007C101.206 82.5618 101.31 82.8248 101.408 83.0915C101.436 83.1655 101.463 83.2415 101.489 83.3155C101.593 83.6081 101.691 83.9026 101.778 84.2007C101.843 84.4192 101.9 84.6396 101.956 84.8618C101.973 84.9266 101.987 84.9896 102.002 85.0544C102.043 85.2248 102.08 85.3952 102.115 85.5674C102.128 85.6285 102.141 85.6878 102.152 85.7489C102.193 85.96 102.232 86.1729 102.263 86.3859C102.715 89.2878 102.45 92.3507 101.502 95.3304C101.271 96.0655 100.993 96.7952 100.678 97.5155C100.613 97.6637 100.545 97.81 100.478 97.9563C100.424 98.0711 100.371 98.1859 100.315 98.3007C100.269 98.3952 100.223 98.4915 100.176 98.5859C100.119 98.7007 100.06 98.8137 100 98.9285C99.9522 99.0229 99.9022 99.1155 99.8522 99.2081C99.7911 99.3229 99.7282 99.4359 99.6634 99.5507C99.6115 99.6433 99.5597 99.7341 99.5078 99.8266C99.4411 99.9396 99.3745 100.054 99.3059 100.167C99.2559 100.251 99.2078 100.332 99.1559 100.416C98.9782 100.703 98.7948 100.988 98.6041 101.269C98.5671 101.325 98.5282 101.38 98.4893 101.438C98.293 101.725 98.0893 102.008 97.8782 102.29C97.8522 102.323 97.8263 102.356 97.8022 102.388C97.6337 102.608 97.4615 102.827 97.2856 103.043C97.2374 103.103 97.1893 103.162 97.1393 103.223C96.9393 103.464 96.7337 103.704 96.5226 103.94C96.4893 103.977 96.4559 104.012 96.4226 104.049C96.2504 104.24 96.0745 104.427 95.8948 104.614C95.8356 104.677 95.7745 104.738 95.7133 104.799C95.5245 104.991 95.33 105.184 95.1337 105.371C95.1059 105.399 95.0782 105.427 95.0504 105.453C94.9319 105.564 94.8115 105.673 94.6911 105.784C94.6263 105.843 94.5615 105.904 94.4948 105.964C94.3059 106.132 94.1152 106.297 93.9208 106.462C93.6782 106.666 93.4374 106.858 93.1985 107.045C93.1819 107.058 93.1652 107.071 93.1485 107.084C92.9245 107.258 92.7022 107.425 92.48 107.588C92.443 107.616 92.4041 107.643 92.3671 107.671C92.1671 107.816 91.9671 107.956 91.7671 108.091C91.4874 108.282 91.2059 108.467 90.9245 108.645C90.6467 108.819 90.3671 108.986 90.0837 109.147C90.0097 109.19 89.9356 109.228 89.8615 109.271C89.6134 109.41 89.3652 109.545 89.1152 109.675C89.0208 109.723 88.9263 109.773 88.8319 109.821C88.5578 109.96 88.2819 110.091 88.0041 110.219C87.9541 110.241 87.9059 110.266 87.8559 110.288C87.7911 110.317 87.7245 110.345 87.6596 110.373C87.4782 110.453 87.2967 110.532 87.1134 110.606C87.0226 110.643 86.9319 110.678 86.8411 110.716C86.6819 110.778 86.5208 110.841 86.3615 110.903C86.2652 110.94 86.1671 110.975 86.0708 111.01C85.9134 111.067 85.7559 111.121 85.5985 111.175C85.5022 111.208 85.4059 111.24 85.3078 111.271C85.1782 111.314 85.0467 111.353 84.9171 111.393C84.7578 111.441 84.5967 111.49 84.4374 111.536C84.3134 111.571 84.1893 111.604 84.0634 111.638C83.9041 111.68 83.7467 111.721 83.5874 111.76C83.4615 111.791 83.3356 111.821 83.2115 111.849C83.0522 111.886 82.893 111.919 82.7337 111.953C82.6097 111.978 82.4837 112.004 82.3596 112.027C82.1985 112.056 82.0374 112.086 81.8763 112.112C81.7541 112.132 81.63 112.153 81.5078 112.171C81.343 112.195 81.1782 112.217 81.0152 112.24C80.8967 112.254 80.7763 112.271 80.6578 112.286C80.4856 112.306 80.3152 112.321 80.1448 112.336C80.0337 112.345 79.9208 112.358 79.8096 112.366C79.6208 112.38 79.4337 112.39 79.2467 112.399C79.1522 112.404 79.0596 112.41 78.9652 112.414C78.6837 112.425 78.4041 112.43 78.1245 112.43C74.9374 112.43 71.8615 111.732 69.1634 110.336C68.2819 109.88 67.4411 109.349 66.6504 108.743L71.3208 115.11C72.1115 115.716 72.9522 116.245 73.8337 116.703C76.53 118.099 79.6078 118.797 82.793 118.797C83.0726 118.797 83.3522 118.791 83.6337 118.78C83.7282 118.777 83.8208 118.769 83.9152 118.766C84.1022 118.756 84.2911 118.747 84.4782 118.732C84.5893 118.723 84.7004 118.712 84.8115 118.703C84.9837 118.688 85.1541 118.671 85.3263 118.653C85.4448 118.64 85.5634 118.623 85.6819 118.608C85.8467 118.586 86.0115 118.566 86.1763 118.54C86.2985 118.521 86.4226 118.501 86.5448 118.48C86.7059 118.453 86.8671 118.425 87.0282 118.395C87.1522 118.371 87.2782 118.347 87.4022 118.321C87.5615 118.288 87.7208 118.254 87.88 118.217C88.0059 118.19 88.13 118.16 88.2541 118.128C88.4134 118.09 88.5726 118.049 88.7319 118.006C88.8559 117.973 88.98 117.94 89.1041 117.904C89.2652 117.858 89.4245 117.81 89.5856 117.762C89.6652 117.738 89.7467 117.716 89.8263 117.691C89.8763 117.675 89.9263 117.658 89.9763 117.641C90.0726 117.61 90.1689 117.577 90.2671 117.545C90.4245 117.491 90.5819 117.438 90.7393 117.38C90.8356 117.345 90.9337 117.31 91.03 117.273C91.1911 117.214 91.3504 117.151 91.5096 117.086C91.6004 117.049 91.6911 117.014 91.7819 116.977C91.9652 116.901 92.1467 116.823 92.3282 116.743C92.393 116.714 92.4596 116.688 92.5245 116.658C92.5356 116.653 92.5485 116.647 92.5596 116.643C92.5967 116.627 92.6337 116.606 92.6708 116.59C92.9485 116.462 93.2245 116.33 93.4985 116.191C93.593 116.143 93.6874 116.095 93.7819 116.045C94.0319 115.916 94.2819 115.78 94.5282 115.641C94.5819 115.612 94.6356 115.586 94.6874 115.554C94.7078 115.543 94.73 115.528 94.7504 115.517C95.0319 115.356 95.3134 115.19 95.5911 115.016C95.8745 114.838 96.1541 114.653 96.4337 114.462C96.4596 114.445 96.4837 114.428 96.5097 114.412C96.6837 114.291 96.8596 114.167 97.0337 114.041C97.0708 114.014 97.1097 113.986 97.1467 113.958C97.3689 113.795 97.5911 113.628 97.8134 113.454C97.83 113.441 97.8467 113.428 97.8634 113.416C97.9819 113.323 98.1022 113.228 98.2208 113.13C98.3411 113.032 98.4633 112.932 98.5837 112.83C98.7782 112.666 98.9689 112.501 99.1578 112.332C99.2245 112.273 99.2874 112.214 99.3522 112.154C99.4726 112.043 99.5948 111.934 99.7134 111.821C99.7189 111.816 99.7263 111.81 99.7319 111.804C99.7541 111.784 99.7745 111.762 99.7948 111.741C99.993 111.553 100.186 111.36 100.376 111.167C100.437 111.106 100.497 111.043 100.556 110.982C100.736 110.795 100.911 110.608 101.084 110.417C101.11 110.39 101.137 110.362 101.162 110.334C101.169 110.327 101.174 110.317 101.182 110.31C101.393 110.073 101.599 109.834 101.799 109.593C101.849 109.534 101.897 109.475 101.945 109.416C102.121 109.199 102.295 108.98 102.461 108.76C102.48 108.734 102.502 108.71 102.521 108.684C102.526 108.677 102.532 108.669 102.537 108.662C102.749 108.38 102.952 108.097 103.149 107.81C103.187 107.754 103.224 107.699 103.263 107.643C103.454 107.36 103.639 107.075 103.817 106.788C103.828 106.769 103.841 106.753 103.852 106.734C103.891 106.669 103.928 106.604 103.967 106.54C104.036 106.427 104.102 106.314 104.169 106.199C104.223 106.106 104.273 106.014 104.324 105.923C104.387 105.81 104.45 105.697 104.511 105.582C104.561 105.49 104.611 105.395 104.66 105.301C104.719 105.188 104.778 105.073 104.834 104.958C104.882 104.864 104.928 104.769 104.974 104.673C105.03 104.558 105.084 104.443 105.137 104.328C105.16 104.278 105.186 104.23 105.208 104.18C105.252 104.082 105.295 103.986 105.337 103.888C105.654 103.167 105.93 102.438 106.162 101.703C107.123 98.7192 107.387 95.6563 106.936 92.7526Z" fill="#C2BAF3"/>
<path d="M82.7925 119.215C79.511 119.215 76.348 118.474 73.6406 117.073C72.7314 116.602 71.8666 116.054 71.0647 115.441C71.0332 115.417 71.0055 115.389 70.9814 115.356L66.311 108.989C66.1888 108.823 66.2073 108.591 66.3555 108.445C66.5036 108.3 66.7351 108.286 66.8999 108.411C67.661 108.995 68.4851 109.517 69.3517 109.965C71.9406 111.306 74.9721 112.013 78.1203 112.013C78.3814 112.013 78.6592 112.008 78.9443 111.997C78.998 111.995 79.0499 111.991 79.1036 111.987L79.2203 111.98C79.4055 111.971 79.5888 111.961 79.774 111.947C79.8462 111.941 79.9184 111.934 79.9888 111.928L80.1017 111.917C80.274 111.902 80.4406 111.886 80.6055 111.867C80.6925 111.858 80.7795 111.845 80.8666 111.834L80.9573 111.823C81.1184 111.802 81.2795 111.78 81.4425 111.756C81.5499 111.739 81.6592 111.721 81.7666 111.702L81.8036 111.697C81.961 111.671 82.1203 111.643 82.2777 111.613C82.3999 111.589 82.5221 111.565 82.6462 111.539C82.8018 111.508 82.9592 111.473 83.1147 111.437C83.2388 111.41 83.361 111.38 83.4851 111.35C83.6406 111.311 83.798 111.273 83.9536 111.23C84.0758 111.197 84.198 111.165 84.3203 111.13C84.4777 111.086 84.6351 111.037 84.7925 110.989L84.8443 110.973C84.9555 110.939 85.0666 110.904 85.1758 110.869C85.2721 110.837 85.3666 110.806 85.461 110.774C85.6166 110.723 85.7703 110.669 85.9258 110.611C86.0203 110.576 86.1166 110.543 86.211 110.506C86.3684 110.447 86.5258 110.386 86.6832 110.323L86.7555 110.295C86.8203 110.269 86.8869 110.243 86.9518 110.217C87.1314 110.143 87.3092 110.065 87.4888 109.987L87.574 109.95C87.6092 109.936 87.6462 109.919 87.6814 109.904L87.8258 109.836C88.0925 109.713 88.3666 109.582 88.6388 109.445C88.7314 109.398 88.8258 109.35 88.9184 109.302C89.1629 109.176 89.4092 109.043 89.6536 108.906L89.7443 108.856C89.7869 108.832 89.8295 108.81 89.8721 108.786C90.1758 108.611 90.4462 108.45 90.698 108.291C90.9555 108.13 91.2258 107.952 91.5277 107.747C91.724 107.611 91.9221 107.474 92.1184 107.332L92.2295 107.25C92.4703 107.074 92.6851 106.911 92.8869 106.754L92.9369 106.713C93.1869 106.517 93.4203 106.328 93.6462 106.139C93.8369 105.978 94.024 105.815 94.2092 105.65C94.248 105.615 94.2851 105.58 94.324 105.545L94.4499 105.43C94.5518 105.337 94.6555 105.243 94.7555 105.148L94.8388 105.069C95.0258 104.889 95.2129 104.706 95.411 104.504C95.4703 104.443 95.5295 104.382 95.5888 104.321C95.7647 104.137 95.9388 103.952 96.1073 103.765L96.2055 103.66C96.4018 103.441 96.5999 103.21 96.8129 102.954L96.9573 102.778C97.1406 102.554 97.3073 102.343 97.4647 102.134L97.5406 102.037C97.7332 101.782 97.9295 101.508 98.1406 101.2L98.2536 101.036C98.4462 100.752 98.6277 100.469 98.7962 100.197C98.8388 100.126 98.8814 100.056 98.924 99.9855L98.9425 99.954C99.0092 99.8429 99.0758 99.7318 99.1406 99.6188C99.1869 99.5392 99.2314 99.4596 99.2758 99.38L99.2943 99.3466C99.3573 99.2355 99.4184 99.1226 99.4795 99.0114C99.5295 98.9207 99.5777 98.8281 99.6258 98.7355C99.6832 98.6244 99.7406 98.5114 99.798 98.4003C99.8443 98.3077 99.8906 98.2151 99.9351 98.1207C99.9888 98.0077 100.042 97.8966 100.094 97.7837L100.111 97.7448C100.172 97.6133 100.233 97.4818 100.291 97.3503C100.604 96.6355 100.878 95.9151 101.1 95.2059C102.028 92.2948 102.285 89.2689 101.846 86.4522C101.817 86.2596 101.781 86.0559 101.737 85.83L101.7 85.6522C101.665 85.4837 101.63 85.317 101.589 85.1503L101.542 84.9614C101.481 84.7151 101.426 84.5096 101.368 84.3189C101.292 84.0614 101.204 83.7874 101.085 83.454C101.059 83.3818 101.033 83.3077 101.005 83.2355C100.9 82.9522 100.8 82.7003 100.698 82.4652L100.67 82.3966C100.563 82.1503 100.439 81.8874 100.287 81.5892C100.25 81.5152 100.211 81.4411 100.172 81.367C100.08 81.1929 99.9851 81.0207 99.8869 80.8485L99.848 80.7818C99.8203 80.7337 99.7925 80.6837 99.7629 80.6355C99.6073 80.3744 99.4647 80.1466 99.3258 79.9392C99.1962 79.7448 99.061 79.5522 98.9258 79.367C98.7906 79.1818 98.8295 78.9207 99.0147 78.7855C99.1999 78.6503 99.461 78.6892 99.5962 78.8744L99.5981 78.8763L104.267 85.2411C104.409 85.4355 104.55 85.6374 104.685 85.8392C104.687 85.8429 104.689 85.8466 104.692 85.8503C104.839 86.0707 104.987 86.3077 105.148 86.5763C105.18 86.6281 105.207 86.68 105.237 86.73L105.276 86.7985C105.38 86.98 105.48 87.1614 105.576 87.3448L105.602 87.3929C105.618 87.4226 105.635 87.4522 105.65 87.4818C105.661 87.5022 105.67 87.5244 105.68 87.5448L105.694 87.5781C105.852 87.8892 105.983 88.167 106.098 88.43L106.128 88.5003C106.237 88.7559 106.342 89.0207 106.452 89.3133L106.467 89.3522C106.478 89.3781 106.489 89.404 106.498 89.4318C106.507 89.4559 106.515 89.4818 106.522 89.5077L106.535 89.5466C106.657 89.8892 106.752 90.1781 106.831 90.4522C106.891 90.654 106.948 90.8689 107.015 91.1281C107.028 91.1781 107.039 91.23 107.052 91.28L107.063 91.3244C107.105 91.5003 107.144 91.6763 107.18 91.8522L107.191 91.8985C107.196 91.9226 107.202 91.9466 107.207 91.9726L107.218 92.0374C107.265 92.2781 107.302 92.4911 107.333 92.6911C107.791 95.6355 107.524 98.7929 106.557 101.824C106.326 102.558 106.042 103.308 105.717 104.05C105.674 104.148 105.63 104.248 105.585 104.347C105.57 104.378 105.557 104.408 105.542 104.437L105.513 104.498C105.459 104.615 105.404 104.732 105.348 104.847C105.302 104.945 105.254 105.041 105.205 105.137C105.148 105.254 105.089 105.369 105.028 105.486C104.978 105.582 104.928 105.676 104.876 105.773C104.813 105.889 104.75 106.004 104.685 106.119L104.657 106.169C104.615 106.247 104.57 106.324 104.526 106.4C104.459 106.517 104.391 106.632 104.32 106.747L104.272 106.826C104.25 106.865 104.226 106.904 104.204 106.943L104.178 106.984C103.992 107.282 103.804 107.574 103.605 107.867L103.489 108.036C103.268 108.356 103.065 108.639 102.867 108.902L102.789 109.004C102.626 109.217 102.45 109.443 102.263 109.671L102.244 109.695C102.202 109.747 102.159 109.8 102.115 109.852C101.894 110.117 101.691 110.356 101.487 110.582L101.465 110.608C101.45 110.624 101.433 110.643 101.417 110.66L101.385 110.693C101.209 110.886 101.031 111.076 100.85 111.265C100.789 111.328 100.728 111.391 100.667 111.454C100.461 111.663 100.267 111.854 100.076 112.037L100.054 112.06C100.039 112.074 100.026 112.087 100.011 112.102C100.009 112.104 99.9962 112.115 99.9943 112.117C99.8906 112.215 99.7851 112.311 99.6795 112.408L99.5518 112.526C99.511 112.563 99.4703 112.602 99.4277 112.639C99.2369 112.81 99.0425 112.978 98.8443 113.145C98.7203 113.248 98.5981 113.35 98.4758 113.448C98.3536 113.547 98.2332 113.643 98.1129 113.737L98.0629 113.778C97.8517 113.943 97.6295 114.111 97.3851 114.289L97.2703 114.374C97.0925 114.502 96.9147 114.63 96.7369 114.752C96.7203 114.763 96.7036 114.774 96.6869 114.786L96.6592 114.804C96.3499 115.015 96.0684 115.198 95.8018 115.367C95.5369 115.534 95.2573 115.7 94.948 115.878L94.8832 115.917C94.8518 115.936 94.8184 115.952 94.7869 115.969C94.7647 115.98 94.7425 115.991 94.7221 116.004C94.4684 116.147 94.2129 116.284 93.9629 116.413C93.8666 116.463 93.7703 116.513 93.674 116.561C93.3906 116.704 93.1073 116.839 92.8332 116.965L92.7906 116.986C92.7666 116.997 92.7425 117.01 92.7184 117.019L92.6925 117.03C92.6425 117.052 92.6017 117.071 92.561 117.087L92.4832 117.121C92.298 117.202 92.1129 117.282 91.9277 117.358C91.8629 117.386 91.7962 117.411 91.7295 117.437L91.6518 117.469C91.4888 117.534 91.3258 117.597 91.1629 117.658C91.0647 117.695 90.9666 117.73 90.8684 117.767C90.7092 117.824 90.548 117.88 90.3888 117.936C90.2869 117.969 90.1906 118.002 90.0943 118.034L90.0314 118.054C90.0018 118.065 89.9703 118.074 89.9406 118.084C89.8925 118.098 89.8443 118.113 89.7943 118.126L89.6962 118.156C89.5332 118.206 89.3703 118.254 89.2073 118.3C89.0814 118.336 88.9555 118.371 88.8295 118.404C88.6666 118.447 88.5055 118.489 88.3425 118.528C88.2166 118.56 88.0888 118.589 87.961 118.619C87.798 118.656 87.6369 118.691 87.474 118.724C87.3462 118.75 87.2203 118.776 87.0925 118.8C86.9295 118.832 86.7647 118.86 86.5999 118.887L86.5573 118.895C86.4462 118.913 86.3369 118.932 86.2258 118.948C86.0573 118.974 85.8906 118.997 85.7221 119.017L85.6314 119.028C85.5406 119.039 85.4499 119.052 85.361 119.061C85.1869 119.082 85.0129 119.097 84.8388 119.113L84.7277 119.124C84.6499 119.132 84.574 119.139 84.4962 119.145C84.3036 119.16 84.1129 119.169 83.9221 119.178L83.8147 119.184C83.7555 119.187 83.6962 119.191 83.6369 119.193C83.3536 119.21 83.0647 119.215 82.7925 119.215ZM71.6203 114.815C72.3684 115.384 73.1777 115.893 74.0258 116.332C76.6147 117.673 79.6462 118.38 82.7943 118.38C83.0555 118.38 83.3332 118.374 83.6184 118.363C83.6721 118.361 83.7258 118.358 83.7795 118.354L83.8943 118.347C84.0795 118.337 84.2629 118.328 84.448 118.313C84.5203 118.308 84.5925 118.3 84.6647 118.295L84.7777 118.284C84.948 118.269 85.1147 118.252 85.2832 118.234C85.3684 118.224 85.4536 118.213 85.5406 118.202L85.6332 118.189C85.7943 118.169 85.9573 118.147 86.1184 118.123C86.224 118.106 86.3314 118.089 86.4369 118.071L86.4795 118.063C86.6388 118.037 86.7962 118.01 86.9536 117.98C87.0758 117.956 87.198 117.932 87.3221 117.906C87.4795 117.874 87.6351 117.839 87.7925 117.804C87.9147 117.776 88.0388 117.747 88.161 117.717C88.3184 117.678 88.474 117.637 88.6314 117.597C88.7536 117.563 88.8758 117.532 88.9962 117.497C89.1536 117.452 89.311 117.404 89.4684 117.356L89.5795 117.323C89.6221 117.31 89.6629 117.298 89.7036 117.286L89.8518 117.236C89.9443 117.206 90.0388 117.174 90.1314 117.143C90.2906 117.089 90.4462 117.036 90.5999 116.98C90.6943 116.945 90.7906 116.911 90.8851 116.874C91.0425 116.815 91.1999 116.754 91.3573 116.691L91.4369 116.66C91.4999 116.636 91.561 116.61 91.624 116.586C91.8036 116.511 91.9832 116.434 92.161 116.356L92.2462 116.319C92.2832 116.304 92.3184 116.287 92.3536 116.273L92.4351 116.236C92.4573 116.224 92.4777 116.215 92.4999 116.204C92.7647 116.082 93.0388 115.95 93.3147 115.813C93.4092 115.767 93.5018 115.719 93.5943 115.671C93.8369 115.545 94.0832 115.411 94.3295 115.274C94.3573 115.26 94.3851 115.245 94.4129 115.23C94.4369 115.217 94.461 115.204 94.4851 115.191L94.5462 115.154C94.848 114.982 95.1184 114.819 95.374 114.66C95.6314 114.498 95.9036 114.321 96.2036 114.115L96.2777 114.067C96.4499 113.948 96.6221 113.826 96.7943 113.702L96.9073 113.619C97.1443 113.445 97.3592 113.284 97.5629 113.123L97.6129 113.082C97.7277 112.991 97.8462 112.898 97.9647 112.802C98.0832 112.706 98.2036 112.608 98.3221 112.508C98.5129 112.347 98.6999 112.184 98.8851 112.019C98.924 111.986 98.961 111.95 98.9962 111.917L99.1295 111.795C99.2295 111.702 99.3314 111.611 99.4295 111.517C99.4314 111.515 99.4406 111.506 99.4443 111.504L99.5129 111.437C99.698 111.261 99.8851 111.076 100.085 110.873C100.144 110.811 100.204 110.75 100.263 110.689C100.439 110.506 100.613 110.321 100.781 110.134L100.88 110.026C101.074 109.808 101.274 109.578 101.487 109.321C101.53 109.271 101.57 109.221 101.611 109.169L101.631 109.145C101.811 108.924 101.983 108.706 102.141 108.5L102.217 108.402C102.407 108.15 102.604 107.876 102.817 107.567L102.928 107.404C103.12 107.121 103.302 106.837 103.472 106.563L103.505 106.511C103.526 106.478 103.546 106.443 103.567 106.408L103.618 106.321C103.685 106.21 103.752 106.098 103.817 105.987C103.859 105.913 103.902 105.839 103.942 105.763L103.97 105.713C104.031 105.602 104.094 105.491 104.154 105.38C104.204 105.287 104.252 105.197 104.3 105.104C104.357 104.993 104.415 104.882 104.47 104.769C104.517 104.674 104.563 104.582 104.609 104.487C104.663 104.376 104.717 104.263 104.768 104.15L104.839 104.004C104.881 103.91 104.924 103.815 104.967 103.719C105.281 103.002 105.554 102.282 105.776 101.574C106.704 98.6633 106.961 95.6374 106.522 92.8207C106.492 92.6318 106.457 92.43 106.413 92.2003L106.378 92.0244C106.342 91.8559 106.305 91.6892 106.267 91.5226L106.255 91.4763C106.244 91.43 106.233 91.3818 106.222 91.3355C106.159 91.0874 106.104 90.8818 106.048 90.6911C105.972 90.43 105.881 90.1559 105.765 89.8281C105.757 89.804 105.75 89.7837 105.742 89.7614C105.739 89.7485 105.733 89.7337 105.73 89.7207C105.724 89.7059 105.718 89.6929 105.713 89.68C105.704 89.6577 105.694 89.6337 105.685 89.6114C105.581 89.3337 105.481 89.08 105.378 88.8411L105.35 88.7726C105.242 88.5244 105.117 88.2596 104.967 87.9633C104.957 87.9448 104.946 87.9226 104.937 87.9022L104.922 87.8689C104.913 87.8503 104.902 87.83 104.891 87.8114C104.878 87.7892 104.865 87.7651 104.852 87.7411C104.759 87.5651 104.665 87.3929 104.567 87.2207L104.526 87.1485C104.5 87.1022 104.472 87.054 104.444 87.0077C104.289 86.7466 104.146 86.517 104.007 86.3114C104.005 86.3096 104.004 86.3059 104.002 86.3022C103.874 86.1114 103.741 85.9226 103.607 85.7392L102.013 83.5652C102.076 83.7522 102.13 83.9244 102.178 84.0892C102.237 84.2911 102.296 84.5059 102.361 84.7651L102.409 84.9614C102.45 85.1374 102.489 85.3114 102.526 85.4874L102.565 85.6726C102.611 85.9096 102.648 86.1226 102.68 86.3263C103.137 89.2707 102.868 92.4281 101.904 95.4596C101.672 96.1948 101.389 96.9448 101.063 97.6855C101.004 97.8226 100.939 97.9596 100.876 98.0966L100.859 98.1337C100.805 98.2503 100.75 98.367 100.694 98.4837C100.648 98.58 100.6 98.6763 100.552 98.7744C100.492 98.8911 100.433 99.0077 100.374 99.1226C100.324 99.217 100.274 99.3133 100.224 99.4077C100.161 99.5244 100.096 99.6392 100.031 99.7559L100.013 99.7892C99.9666 99.8726 99.9203 99.954 99.8721 100.037C99.8055 100.154 99.7369 100.269 99.6666 100.384L99.648 100.415C99.6036 100.489 99.5592 100.563 99.5147 100.636C99.3406 100.919 99.1518 101.211 98.9518 101.506L98.8351 101.676C98.6166 101.995 98.4129 102.278 98.2129 102.543L98.1351 102.643C97.9703 102.86 97.7981 103.078 97.6092 103.31L97.4592 103.491C97.2406 103.756 97.0351 103.993 96.8314 104.219L96.7295 104.328C96.5536 104.521 96.3758 104.711 96.1925 104.902C96.1314 104.965 96.0703 105.028 96.0092 105.091C95.8055 105.298 95.6129 105.489 95.4184 105.674L95.3332 105.758C95.2295 105.856 95.124 105.952 95.0166 106.05L94.8962 106.161C94.8536 106.2 94.8129 106.239 94.7703 106.276C94.5795 106.447 94.3851 106.615 94.1869 106.782C93.9517 106.978 93.7129 107.173 93.4536 107.374L93.4036 107.415C93.1943 107.578 92.9721 107.747 92.7258 107.926L92.611 108.011C92.4073 108.16 92.2036 108.3 92.0018 108.439C91.6925 108.65 91.411 108.834 91.1443 109.002C90.8814 109.167 90.6018 109.334 90.2906 109.513C90.2443 109.539 90.198 109.565 90.1499 109.591L90.0647 109.639C89.8129 109.78 89.5573 109.919 89.3055 110.048C89.2092 110.098 89.1129 110.148 89.0166 110.197C88.7332 110.339 88.4518 110.474 88.1758 110.6L88.111 110.63C88.0832 110.643 88.0536 110.658 88.0258 110.671C87.9851 110.689 87.9443 110.706 87.9036 110.724L87.824 110.758C87.6388 110.839 87.4536 110.919 87.2684 110.995C87.1999 111.023 87.1314 111.05 87.061 111.078L86.9906 111.106C86.8277 111.171 86.6666 111.234 86.5017 111.295C86.4036 111.332 86.3055 111.367 86.2055 111.404C86.0462 111.461 85.8851 111.517 85.7258 111.571C85.6277 111.604 85.5295 111.637 85.4314 111.669C85.3166 111.706 85.1999 111.741 85.0851 111.776L85.0332 111.791C84.8703 111.841 84.7073 111.889 84.5443 111.936C84.4184 111.971 84.2906 112.006 84.1647 112.039C84.0036 112.082 83.8425 112.124 83.6795 112.163C83.5518 112.195 83.424 112.224 83.2962 112.254C83.1351 112.291 82.9721 112.326 82.811 112.36C82.6851 112.386 82.5573 112.411 82.4295 112.436C82.2647 112.467 82.1017 112.495 81.9369 112.523L81.8999 112.528C81.7869 112.547 81.674 112.565 81.561 112.584C81.3925 112.61 81.2258 112.632 81.0592 112.652L80.9703 112.663C80.8777 112.676 80.7869 112.687 80.6962 112.698C80.524 112.719 80.3518 112.734 80.1795 112.75L80.0647 112.761C79.9869 112.769 79.9092 112.776 79.8332 112.782C79.6425 112.797 79.4518 112.806 79.261 112.815L79.1518 112.821C79.0925 112.824 79.0332 112.828 78.974 112.83C78.6777 112.841 78.3906 112.847 78.1184 112.847C74.8369 112.847 71.674 112.106 68.9666 110.704C68.761 110.598 68.5592 110.487 68.3592 110.374L71.6203 114.815Z" fill="#F5F6F7"/>
<path d="M161.123 120.55C162.645 120.55 163.878 119.316 163.878 117.795C163.878 116.273 162.645 115.039 161.123 115.039C159.601 115.039 158.367 116.273 158.367 117.795C158.367 119.316 159.601 120.55 161.123 120.55Z" fill="#F5F6F7"/>
<path d="M45.2477 110.384C46.7696 110.384 48.0033 109.15 48.0033 107.629C48.0033 106.107 46.7696 104.873 45.2477 104.873C43.7259 104.873 42.4922 106.107 42.4922 107.629C42.4922 109.15 43.7259 110.384 45.2477 110.384Z" fill="#F5F6F7"/>
<path d="M46.6266 112.611C47.1625 112.611 47.597 112.176 47.597 111.64C47.597 111.104 47.1625 110.67 46.6266 110.67C46.0907 110.67 45.6562 111.104 45.6562 111.64C45.6562 112.176 46.0907 112.611 46.6266 112.611Z" fill="#F5F6F7"/>
<path d="M60.2888 75.726C61.8106 75.726 63.0443 74.4922 63.0443 72.9704C63.0443 71.4485 61.8106 70.2148 60.2888 70.2148C58.7669 70.2148 57.5332 71.4485 57.5332 72.9704C57.5332 74.4922 58.7669 75.726 60.2888 75.726Z" fill="#F5F6F7"/>
<path d="M63.5094 71.1771C64.0454 71.1771 64.4798 70.7426 64.4798 70.2067C64.4798 69.6708 64.0454 69.2363 63.5094 69.2363C62.9735 69.2363 62.5391 69.6708 62.5391 70.2067C62.5391 70.7426 62.9735 71.1771 63.5094 71.1771Z" fill="#F5F6F7"/>
<path d="M168.2 61.2159C170.818 61.2159 172.94 59.0934 172.94 56.4751C172.94 53.8569 170.818 51.7344 168.2 51.7344C165.581 51.7344 163.459 53.8569 163.459 56.4751C163.459 59.0934 165.581 61.2159 168.2 61.2159Z" fill="#E8E5FA"/>
<path d="M163.461 54.134C164.707 54.134 165.718 53.1233 165.718 51.8766C165.718 50.6298 164.707 49.6191 163.461 49.6191C162.214 49.6191 161.203 50.6298 161.203 51.8766C161.203 53.1233 162.214 54.134 163.461 54.134Z" fill="#F5F6F7"/>
</svg>
