<svg width="16" height="16" viewBox="0 0 16 16" fill="none" xmlns="http://www.w3.org/2000/svg">
<path d="M15.9566 8.00077C15.9566 12.3958 12.3938 15.9587 7.99886 15.9587C3.60384 15.9587 0.0410156 12.3958 0.0410156 8.00077C0.0410156 3.6058 3.60384 0.0429688 7.99886 0.0429688C12.3938 0.0429688 15.9566 3.6058 15.9566 8.00077Z" fill="#505050"/>
<g opacity="0.8">
<path d="M7.97445 4.30859L7.92529 4.47566V9.32354L7.97445 9.3726L10.2248 8.04244L7.97445 4.30859Z" fill="white"/>
<path d="M7.97494 4.30859L5.72461 8.04244L7.97494 9.37262V7.01961V4.30859Z" fill="white"/>
<path d="M7.97448 10.1029L7.94678 10.1367V11.8636L7.97448 11.9445L10.2262 8.77344L7.97448 10.1029Z" fill="white"/>
<path d="M7.97494 11.9445V10.1029L5.72461 8.77344L7.97494 11.9445Z" fill="white"/>
<path d="M7.97461 9.37251L10.2249 8.04236L7.97461 7.01953V9.37251Z" fill="white"/>
<path d="M5.72461 8.04236L7.97491 9.37253V7.01953L5.72461 8.04236Z" fill="white"/>
</g>
</svg>
