<svg width="40" height="40" viewBox="0 0 40 40" fill="none" xmlns="http://www.w3.org/2000/svg">
<path d="M0 8C0 3.58172 3.58172 0 8 0H32C36.4183 0 40 3.58172 40 8V32C40 36.4183 36.4183 40 32 40H8C3.58172 40 0 36.4183 0 32V8Z" fill="#E8E5FA"/>
<path d="M16.666 11.667V14.167" stroke="#5A42DE" stroke-width="1.25" stroke-miterlimit="10" stroke-linecap="round" stroke-linejoin="round"/>
<path d="M23.334 11.667V14.167" stroke="#5A42DE" stroke-width="1.25" stroke-miterlimit="10" stroke-linecap="round" stroke-linejoin="round"/>
<path d="M15.834 20.833H22.5007" stroke="#5A42DE" stroke-width="1.25" stroke-miterlimit="10" stroke-linecap="round" stroke-linejoin="round"/>
<path d="M15.834 24.167H20.0007" stroke="#5A42DE" stroke-width="1.25" stroke-miterlimit="10" stroke-linecap="round" stroke-linejoin="round"/>
<path d="M27.5 20.417V18.042C27.5 14.1253 26.1083 13.067 23.3333 12.917H16.6667C13.8917 13.0753 12.5 14.1253 12.5 18.042V23.192C12.5 26.6253 13.3333 28.342 17.5 28.342H20" stroke="#5A42DE" stroke-width="1.25" stroke-miterlimit="10" stroke-linecap="round" stroke-linejoin="round"/>
<path d="M26.0085 23.1172L23.0585 26.0672C22.9418 26.1839 22.8335 26.4005 22.8085 26.5588L22.6502 27.6838C22.5919 28.0922 22.8752 28.3755 23.2835 28.3172L24.4085 28.1588C24.5668 28.1338 24.7919 28.0255 24.9002 27.9088L27.8502 24.9589C28.3585 24.4505 28.6002 23.8588 27.8502 23.1088C27.1085 22.3672 26.5169 22.6088 26.0085 23.1172Z" stroke="#5A42DE" stroke-width="1.25" stroke-miterlimit="10" stroke-linecap="round" stroke-linejoin="round"/>
<path d="M25.584 23.542C25.834 24.442 26.534 25.142 27.434 25.392" stroke="#5A42DE" stroke-width="1.25" stroke-miterlimit="10" stroke-linecap="round" stroke-linejoin="round"/>
</svg>
