<svg width="40" height="40" viewBox="0 0 40 40" fill="none" xmlns="http://www.w3.org/2000/svg">
<path d="M0 20C0 8.95431 8.95431 0 20 0C31.0457 0 40 8.95431 40 20C40 31.0457 31.0457 40 20 40C8.95431 40 0 31.0457 0 20Z" fill="#F3EBF9"/>
<path d="M25 15.967C24.95 15.9587 24.8917 15.9587 24.8417 15.967C23.6917 15.9253 22.775 14.9837 22.775 13.817C22.775 12.6253 23.7334 11.667 24.925 11.667C26.1167 11.667 27.075 12.6337 27.075 13.817C27.0667 14.9837 26.15 15.9253 25 15.967Z" stroke="#5E2A8C" stroke-width="1.25" stroke-linecap="round" stroke-linejoin="round"/>
<path d="M24.1417 22.0338C25.2834 22.2255 26.5417 22.0255 27.425 21.4338C28.6 20.6505 28.6 19.3671 27.425 18.5838C26.5334 17.9921 25.2584 17.7921 24.1167 17.9921" stroke="#5E2A8C" stroke-width="1.25" stroke-linecap="round" stroke-linejoin="round"/>
<path d="M14.9749 15.967C15.0249 15.9587 15.0832 15.9587 15.1332 15.967C16.2832 15.9253 17.1999 14.9837 17.1999 13.817C17.1999 12.6253 16.2416 11.667 15.0499 11.667C13.8582 11.667 12.8999 12.6337 12.8999 13.817C12.9082 14.9837 13.8249 15.9253 14.9749 15.967Z" stroke="#5E2A8C" stroke-width="1.25" stroke-linecap="round" stroke-linejoin="round"/>
<path d="M15.8333 22.0338C14.6916 22.2255 13.4333 22.0255 12.55 21.4338C11.375 20.6505 11.375 19.3671 12.55 18.5838C13.4416 17.9921 14.7166 17.7921 15.8583 17.9921" stroke="#5E2A8C" stroke-width="1.25" stroke-linecap="round" stroke-linejoin="round"/>
<path d="M20 22.1913C19.95 22.183 19.8917 22.183 19.8417 22.1913C18.6917 22.1496 17.775 21.208 17.775 20.0413C17.775 18.8496 18.7334 17.8913 19.925 17.8913C21.1167 17.8913 22.075 18.858 22.075 20.0413C22.0667 21.208 21.15 22.158 20 22.1913Z" stroke="#5E2A8C" stroke-width="1.25" stroke-linecap="round" stroke-linejoin="round"/>
<path d="M17.575 24.8157C16.4 25.599 16.4 26.8823 17.575 27.6657C18.9083 28.5573 21.0916 28.5573 22.425 27.6657C23.6 26.8823 23.6 25.599 22.425 24.8157C21.1 23.9323 18.9083 23.9323 17.575 24.8157Z" stroke="#5E2A8C" stroke-width="1.25" stroke-linecap="round" stroke-linejoin="round"/>
</svg>
