<svg width="40" height="41" viewBox="0 0 40 41" fill="none" xmlns="http://www.w3.org/2000/svg">
<path d="M13.334 3.83301V8.83301" stroke="#5A42DE" stroke-width="2.5" stroke-miterlimit="10" stroke-linecap="round" stroke-linejoin="round"/>
<path d="M26.666 3.83301V8.83301" stroke="#5A42DE" stroke-width="2.5" stroke-miterlimit="10" stroke-linecap="round" stroke-linejoin="round"/>
<path d="M11.666 22.167H24.9993" stroke="#5A42DE" stroke-width="2.5" stroke-miterlimit="10" stroke-linecap="round" stroke-linejoin="round"/>
<path d="M11.666 28.833H18.066" stroke="#5A42DE" stroke-width="2.5" stroke-miterlimit="10" stroke-linecap="round" stroke-linejoin="round"/>
<path d="M36.6673 32.1667C36.6673 33.4167 36.3173 34.6 35.7006 35.6C34.5506 37.5333 32.434 38.8333 30.0007 38.8333C28.3173 38.8333 26.784 38.2167 25.6173 37.1667C25.1007 36.7333 24.6507 36.2 24.3007 35.6C23.684 34.6 23.334 33.4167 23.334 32.1667C23.334 28.4833 26.3173 25.5 30.0007 25.5C32.0007 25.5 33.784 26.3833 35.0007 27.7666C36.034 28.95 36.6673 30.4833 36.6673 32.1667Z" stroke="#5A42DE" stroke-width="2.5" stroke-miterlimit="10" stroke-linecap="round" stroke-linejoin="round"/>
<path d="M27.4004 32.1666L29.0504 33.8165L32.6004 30.5332" stroke="#5A42DE" stroke-width="2.5" stroke-linecap="round" stroke-linejoin="round"/>
<path d="M35 27.1663V16.583C35 8.74967 32.2167 6.63301 26.6667 6.33301H13.3333C7.78333 6.64967 5 8.74967 5 16.583V26.883C5 33.7497 6.66667 37.183 15 37.183H25" stroke="#5A42DE" stroke-width="2.5" stroke-miterlimit="10" stroke-linecap="round" stroke-linejoin="round"/>
</svg>
