<svg width="200" height="201" viewBox="0 0 200 201" fill="none" xmlns="http://www.w3.org/2000/svg">
<path d="M161.124 89.1403C163.248 89.1403 164.97 87.4183 164.97 85.2941C164.97 83.1698 163.248 81.4478 161.124 81.4478C159 81.4478 157.278 83.1698 157.278 85.2941C157.278 87.4183 159 89.1403 161.124 89.1403Z" fill="#F5F6F7"/>
<path d="M100 169.887C137.759 169.887 168.368 157.879 168.368 143.066C168.368 128.254 137.759 116.246 100 116.246C62.2411 116.246 31.6315 128.254 31.6315 143.066C31.6315 157.879 62.2411 169.887 100 169.887Z" fill="#F5F6F7"/>
<path d="M97.8056 46.4844L94.9649 64.2918H76.5056L97.8056 46.4844Z" fill="#CEB1E7"/>
<path d="M94.9649 64.7084H76.5056C76.3297 64.7084 76.1741 64.5991 76.113 64.4343C76.0538 64.2695 76.1038 64.0843 76.2371 63.9732L97.5371 46.164C97.6704 46.0529 97.8593 46.0362 98.0093 46.1214C98.1612 46.2066 98.2427 46.3769 98.2149 46.5491L95.3741 64.3584C95.3445 64.5603 95.1704 64.7084 94.9649 64.7084ZM77.6538 63.8751H94.6093L97.2186 47.5177L77.6538 63.8751Z" fill="#F5F6F7"/>
<path d="M99.5074 79.9609C99.3796 79.9609 99.2518 79.9016 99.1703 79.7905L98.0462 78.2572C97.9203 78.0849 97.9444 77.8442 98.1036 77.6997C98.2629 77.5572 98.5055 77.5572 98.6629 77.7035C98.6703 77.7109 98.6796 77.7183 98.687 77.7275C98.6944 77.7349 98.7018 77.7442 98.7073 77.7516C98.7259 77.7738 98.7462 77.8035 98.7666 77.8312L99.8425 79.2979C99.9777 79.4831 99.9388 79.7442 99.7536 79.8794C99.6796 79.9349 99.5944 79.9609 99.5074 79.9609Z" fill="#F5F6F7"/>
<mask id="mask0_1122_90686" style="mask-type:luminance" maskUnits="userSpaceOnUse" x="97" y="77" width="3" height="3">
<path d="M99.5074 79.9609C99.3796 79.9609 99.2518 79.9016 99.1703 79.7905L98.0462 78.2572C97.9203 78.0849 97.9444 77.8442 98.1036 77.6997C98.2629 77.5572 98.5055 77.5572 98.6629 77.7035C98.6703 77.7109 98.6796 77.7183 98.687 77.7275C98.6944 77.7349 98.7018 77.7442 98.7073 77.7516C98.7259 77.7738 98.7462 77.8035 98.7666 77.8312L99.8425 79.2979C99.9777 79.4831 99.9388 79.7442 99.7536 79.8794C99.6796 79.9349 99.5944 79.9609 99.5074 79.9609Z" fill="white"/>
</mask>
<g mask="url(#mask0_1122_90686)">
<path d="M99.2722 79.12L103.943 85.4867C103.665 85.107 103.368 84.7385 103.054 84.3793C99.6 80.4441 94.5648 78.4756 89.2166 78.4756C86.8963 78.4756 84.5185 78.8459 82.1833 79.5867L77.5129 73.22C79.8481 72.4793 82.2259 72.1089 84.5463 72.1089C89.8944 72.1089 94.9296 74.0774 98.3833 78.0126C98.6981 78.3719 98.9944 78.7404 99.2722 79.12Z" fill="#5E2A8C"/>
<path d="M103.942 85.903C103.815 85.903 103.687 85.8437 103.605 85.7326C103.335 85.3623 103.042 84.9993 102.739 84.653C99.4776 80.9382 94.6758 78.8919 89.2146 78.8919C86.9128 78.8919 84.5906 79.2586 82.3072 79.9826C82.1369 80.0363 81.9517 79.9752 81.8443 79.8326L77.1739 73.466C77.0943 73.3586 77.0721 73.2178 77.1146 73.09C77.1554 72.9623 77.2572 72.8623 77.385 72.8215C79.7498 72.0715 82.1572 71.6919 84.5443 71.6919C90.248 71.6919 95.2739 73.8382 98.6943 77.7363C99.0146 78.1012 99.3202 78.4845 99.6072 78.8734L104.274 85.2363C104.276 85.2382 104.276 85.24 104.278 85.24C104.413 85.4252 104.374 85.6863 104.189 85.8234C104.115 85.8771 104.029 85.903 103.942 85.903ZM89.2165 78.0586C93.4924 78.0586 97.3869 79.266 100.511 81.5123L98.9369 79.366C98.6665 78.9956 98.3739 78.6326 98.0702 78.2863C94.8091 74.5715 90.0072 72.5252 84.5461 72.5252C82.4313 72.5252 80.298 72.8345 78.1961 73.4475L82.3424 79.1012C84.6146 78.4086 86.9258 78.0586 89.2165 78.0586Z" fill="#F5F6F7"/>
</g>
<path d="M74.8056 108.531C74.6908 108.531 74.5778 108.485 74.4945 108.392L74.4297 108.318C74.2149 108.072 74.0093 107.816 73.8186 107.557L69.1482 101.19C69.013 101.005 69.0519 100.744 69.2371 100.609C69.4223 100.474 69.6834 100.512 69.8204 100.698L69.8241 100.703C70 100.942 70.1889 101.177 70.3871 101.403L70.4463 101.47C70.4556 101.481 70.4649 101.49 70.4723 101.501L75.1426 107.868C75.2741 108.048 75.2426 108.298 75.0686 108.438C74.9908 108.501 74.8963 108.531 74.8056 108.531Z" fill="#F5F6F7"/>
<mask id="mask1_1122_90686" style="mask-type:luminance" maskUnits="userSpaceOnUse" x="69" y="100" width="7" height="9">
<path d="M74.8056 108.531C74.6908 108.531 74.5778 108.485 74.4945 108.392L74.4297 108.318C74.2149 108.072 74.0093 107.816 73.8186 107.557L69.1482 101.19C69.013 101.005 69.0519 100.744 69.2371 100.609C69.4223 100.474 69.6834 100.512 69.8204 100.698L69.8241 100.703C70 100.942 70.1889 101.177 70.3871 101.403L70.4463 101.47C70.4556 101.481 70.4649 101.49 70.4723 101.501L75.1426 107.868C75.2741 108.048 75.2426 108.298 75.0686 108.438C74.9908 108.501 74.8963 108.531 74.8056 108.531Z" fill="white"/>
</mask>
<g mask="url(#mask1_1122_90686)">
<g opacity="0.6">
<path d="M70.4741 102.11L75.1445 108.477C75.0075 108.336 74.8723 108.191 74.7427 108.043C74.5334 107.806 74.3371 107.56 74.1538 107.31L69.4834 100.943C69.6667 101.193 69.863 101.44 70.0723 101.677C70.2019 101.825 70.3371 101.969 70.4741 102.11Z" fill="#5E2A8C"/>
<path d="M75.1441 108.894C75.0349 108.894 74.9275 108.851 74.846 108.768C74.7015 108.622 74.5608 108.47 74.4275 108.318C74.2127 108.074 74.0071 107.818 73.8164 107.557L69.146 101.19C69.0108 101.005 69.0497 100.744 69.2349 100.609C69.4201 100.474 69.6812 100.512 69.8182 100.698L69.8219 100.703C69.9978 100.942 70.1867 101.177 70.3849 101.403C70.509 101.544 70.6386 101.685 70.7719 101.82C70.7867 101.835 70.7978 101.849 70.8108 101.864L75.4812 108.231C75.6108 108.407 75.5812 108.653 75.4145 108.796C75.3367 108.862 75.2404 108.894 75.1441 108.894Z" fill="#F5F6F7"/>
</g>
</g>
<path d="M75.1444 108.894C75.0352 108.894 74.9278 108.851 74.8463 108.768C74.7259 108.646 74.6074 108.52 74.4926 108.39C74.4889 108.385 74.4833 108.381 74.4796 108.375C74.4315 108.316 74.3759 108.238 74.3241 108.166L74.2667 108.086L69.7963 101.992C69.6648 101.812 69.6963 101.562 69.8704 101.422C70.0426 101.281 70.2944 101.301 70.4426 101.468C70.55 101.586 70.6592 101.703 70.7704 101.818C70.7833 101.833 70.7963 101.848 70.8092 101.862L75.4796 108.229C75.6092 108.405 75.5796 108.651 75.413 108.794C75.3352 108.862 75.2407 108.894 75.1444 108.894Z" fill="#F5F6F7"/>
<mask id="mask2_1122_90686" style="mask-type:luminance" maskUnits="userSpaceOnUse" x="69" y="101" width="7" height="8">
<path d="M75.1444 108.894C75.0352 108.894 74.9278 108.851 74.8463 108.768C74.7259 108.646 74.6074 108.52 74.4926 108.39C74.4889 108.385 74.4833 108.381 74.4796 108.375C74.4315 108.316 74.3759 108.238 74.3241 108.166L74.2667 108.086L69.7963 101.992C69.6648 101.812 69.6963 101.562 69.8704 101.422C70.0426 101.281 70.2944 101.301 70.4426 101.468C70.55 101.586 70.6592 101.703 70.7704 101.818C70.7833 101.833 70.7963 101.848 70.8092 101.862L75.4796 108.229C75.6092 108.405 75.5796 108.651 75.413 108.794C75.3352 108.862 75.2407 108.894 75.1444 108.894Z" fill="white"/>
</mask>
<g mask="url(#mask2_1122_90686)">
<g opacity="0.6">
<path d="M70.4741 102.11L75.1445 108.477C75.0075 108.336 74.8723 108.191 74.7427 108.043C74.5334 107.806 74.3371 107.56 74.1538 107.31L69.4834 100.943C69.6667 101.193 69.863 101.44 70.0723 101.677C70.2019 101.825 70.3371 101.969 70.4741 102.11Z" fill="#5E2A8C"/>
<path d="M75.1445 108.894C75.0353 108.894 74.9278 108.851 74.8464 108.768C74.7019 108.622 74.5612 108.47 74.4278 108.318C74.213 108.074 74.0075 107.818 73.8167 107.557L69.1464 101.19C69.0112 101.005 69.0501 100.744 69.2352 100.609C69.4204 100.474 69.6815 100.512 69.8186 100.698L69.8223 100.703C69.9982 100.942 70.1871 101.177 70.3852 101.403C70.5093 101.544 70.639 101.685 70.7723 101.82C70.7871 101.835 70.7982 101.849 70.8112 101.864L75.4815 108.231C75.6112 108.407 75.5815 108.653 75.4149 108.796C75.3371 108.862 75.2408 108.894 75.1445 108.894Z" fill="#F5F6F7"/>
</g>
</g>
<path d="M94.7074 94.2888C94.5963 94.6406 94.4685 94.9944 94.3278 95.3425C94.0259 96.0907 93.6592 96.8258 93.2278 97.5388C93.0204 97.8814 92.8 98.2203 92.5611 98.5536C91.7537 99.6925 90.7722 100.763 89.6241 101.72C86.5 104.333 82.7444 105.637 79.1963 105.637C75.65 105.637 72.3111 104.331 70.0222 101.72C65.4389 96.4981 66.7889 88.0351 73.0352 82.8166C76.1592 80.2036 79.9148 78.8999 83.4629 78.8999C87.0092 78.8999 90.3481 80.2055 92.637 82.8166C92.7037 82.8925 92.7666 82.9666 92.8259 83.0425C93.1241 83.4018 93.3981 83.7777 93.6426 84.161C94.0852 84.8573 94.4352 85.5888 94.7055 86.3555C94.8444 86.7443 94.9592 87.1425 95.05 87.5462C95.5518 89.7055 95.4241 92.0314 94.7074 94.2888Z" fill="#E6D8F3"/>
<path d="M95.0519 87.5459H82.8371C81.5482 87.5459 80.6612 86.5403 80.8612 85.2959C81.0593 84.0515 82.2649 83.0459 83.5556 83.0459H92.8297C93.1278 83.4052 93.4019 83.7811 93.6464 84.1644C94.0889 84.8607 94.4389 85.5922 94.7093 86.3589C94.8463 86.744 94.9612 87.1422 95.0519 87.5459Z" fill="#9D62D0"/>
<path d="M94.7073 94.2885C94.5962 94.6403 94.4684 94.994 94.3277 95.3422C94.0258 96.0903 93.6592 96.8255 93.2277 97.5385C93.0203 97.8811 92.7999 98.2199 92.561 98.5533H80.9536C79.7295 98.5533 78.8962 97.5977 79.0832 96.4199C79.2721 95.2422 80.4129 94.2866 81.6332 94.2866H94.7073V94.2885Z" fill="#9D62D0"/>
<path d="M98.1758 46.1753H149.704L148.917 51.1123L135.376 136.012H70.1869H65.0684L69.1628 110.335C71.8591 111.731 74.9369 112.429 78.1239 112.429C82.4072 112.429 86.8906 111.168 90.9258 108.644H127.055C127.683 108.644 128.267 108.155 128.365 107.549C128.461 106.948 128.031 106.459 127.405 106.459H93.9202C96.9795 103.881 99.248 100.785 100.678 97.5142H128.831C129.459 97.5142 130.042 97.0253 130.139 96.4234C130.235 95.8197 129.805 95.329 129.179 95.329H101.504C102.454 92.3494 102.717 89.2883 102.265 86.3846H130.605C131.233 86.3846 131.817 85.8957 131.913 85.2938C132.009 84.6901 131.579 84.1994 130.954 84.1994H101.778C101.118 81.9531 99.9943 79.8494 98.385 78.0105C94.9313 74.0753 89.8961 72.1068 84.548 72.1068C81.3628 72.1068 78.0684 72.8049 74.9276 74.1994L76.5073 64.2901H94.9665L97.8072 46.4846L98.1758 46.1753ZM125.281 119.772C125.909 119.772 126.492 119.283 126.591 118.677C126.687 118.075 126.257 117.586 125.631 117.586H81.6776C81.0535 117.586 80.4684 118.075 80.3721 118.677C80.2758 119.281 80.7054 119.772 81.3295 119.772H125.281ZM132.381 75.2568C133.009 75.2568 133.592 74.7679 133.689 74.166C133.785 73.5623 133.355 73.0716 132.729 73.0716H102.935C102.309 73.0716 101.726 73.5605 101.629 74.166C101.533 74.7679 101.959 75.2568 102.587 75.2568H132.381Z" fill="#F5F6F7"/>
<path d="M135.376 136.427H65.0684C64.9462 136.427 64.8314 136.374 64.7518 136.281C64.6722 136.189 64.6388 136.066 64.6573 135.946L68.7536 110.268C68.774 110.137 68.8573 110.022 68.9777 109.963C69.0962 109.902 69.2388 109.903 69.3573 109.965C71.9462 111.305 74.9777 112.013 78.1259 112.013C82.4647 112.013 86.8147 110.726 90.7055 108.29C90.7722 108.25 90.8481 108.227 90.9259 108.227H127.055C127.478 108.227 127.889 107.887 127.952 107.485C127.978 107.322 127.941 107.17 127.846 107.059C127.746 106.94 127.589 106.876 127.404 106.876H93.9203C93.7444 106.876 93.5888 106.766 93.5296 106.602C93.4703 106.437 93.5184 106.253 93.6518 106.14C96.5518 103.696 98.8499 100.655 100.296 97.3479C100.363 97.196 100.513 97.0979 100.678 97.0979H128.831C129.254 97.0979 129.665 96.759 129.728 96.3571C129.754 96.1923 129.717 96.0405 129.622 95.9293C129.522 95.8108 129.365 95.746 129.18 95.746H101.504C101.37 95.746 101.246 95.683 101.167 95.5756C101.089 95.4682 101.067 95.3293 101.105 95.2034C102.033 92.2942 102.291 89.2664 101.852 86.4497C101.833 86.3293 101.868 86.2071 101.946 86.1145C102.024 86.0219 102.141 85.9682 102.263 85.9682H130.604C131.026 85.9682 131.437 85.6293 131.5 85.2275C131.526 85.0627 131.489 84.9108 131.394 84.7997C131.294 84.6812 131.137 84.6164 130.952 84.6164H101.778C101.593 84.6164 101.43 84.4942 101.378 84.3164C100.718 82.0664 99.6055 80.0368 98.0703 78.2849C94.8092 74.5701 90.0073 72.5238 84.5462 72.5238C81.3907 72.5238 78.1222 73.2349 75.0944 74.5812C74.9555 74.6423 74.7925 74.6238 74.6703 74.5312C74.5481 74.4386 74.4888 74.2868 74.5129 74.1349L76.0925 64.2256C76.124 64.0238 76.2999 63.8738 76.5036 63.8738H94.6073L97.3907 46.4182C97.4055 46.3201 97.4573 46.2293 97.5333 46.1645L97.9036 45.8516C97.9796 45.7886 98.074 45.7534 98.1722 45.7534H149.704C149.826 45.7534 149.941 45.8071 150.02 45.8997C150.1 45.9923 150.133 46.1145 150.115 46.2349L135.787 136.072C135.755 136.279 135.581 136.427 135.376 136.427ZM65.5555 135.594H135.02L149.215 46.5905H98.3277L98.1925 46.7053L95.3777 64.359C95.3462 64.5608 95.1703 64.7108 94.9666 64.7108H76.8629L75.4573 73.5238C78.3925 72.3238 81.5184 71.6923 84.5481 71.6923C90.2518 71.6923 95.2777 73.8386 98.6981 77.7368C100.244 79.5034 101.383 81.5349 102.087 83.7831H130.955C131.381 83.7831 131.774 83.9571 132.031 84.259C132.287 84.559 132.393 84.9497 132.326 85.359C132.196 86.1682 131.441 86.8016 130.605 86.8016H102.744C103.081 89.4293 102.848 92.2127 102.065 94.9127H129.18C129.605 94.9127 129.998 95.0868 130.255 95.3886C130.511 95.6886 130.617 96.0794 130.55 96.4886C130.42 97.2979 129.665 97.9312 128.83 97.9312H100.948C99.5907 100.935 97.5573 103.715 95.024 106.042H127.404C127.83 106.042 128.222 106.216 128.48 106.518C128.735 106.818 128.839 107.207 128.774 107.616C128.644 108.426 127.889 109.061 127.054 109.061H91.0444C87.0462 111.539 82.5814 112.846 78.124 112.846C75.0481 112.846 72.0759 112.196 69.4851 110.959L65.5555 135.594ZM125.281 120.189H81.3296C80.9055 120.189 80.5129 120.016 80.2555 119.713C79.9999 119.413 79.8944 119.022 79.961 118.611C80.0907 117.802 80.8444 117.168 81.6777 117.168H125.63C126.055 117.168 126.448 117.342 126.705 117.644C126.961 117.944 127.065 118.333 127 118.742C126.872 119.553 126.117 120.189 125.281 120.189ZM81.6777 118.003C81.2573 118.003 80.8481 118.342 80.7833 118.744C80.7573 118.909 80.7944 119.063 80.8888 119.174C80.9888 119.292 81.1462 119.357 81.3277 119.357H125.28C125.702 119.357 126.113 119.016 126.176 118.615C126.202 118.452 126.165 118.3 126.07 118.189C125.97 118.07 125.813 118.005 125.628 118.005H81.6777V118.003ZM132.381 75.6738H102.587C102.161 75.6738 101.77 75.5016 101.513 75.1997C101.257 74.8997 101.154 74.5108 101.218 74.1016C101.348 73.2905 102.102 72.6571 102.935 72.6571H132.73C133.155 72.6571 133.548 72.8312 133.805 73.1331C134.061 73.4331 134.167 73.8238 134.1 74.2331C133.972 75.0405 133.217 75.6738 132.381 75.6738ZM102.935 73.4886C102.515 73.4886 102.105 73.8293 102.041 74.2312C102.015 74.396 102.052 74.5479 102.146 74.6571C102.246 74.7738 102.402 74.8386 102.587 74.8386H132.381C132.804 74.8386 133.215 74.4997 133.278 74.0979C133.304 73.933 133.267 73.7812 133.172 73.6701C133.072 73.5516 132.915 73.4868 132.73 73.4868H102.935V73.4886Z" fill="#F5F6F7"/>
<g opacity="0.5">
<g opacity="0.6">
<path d="M73.6129 82.4292L73.1703 85.2088C73.1017 85.2607 73.0332 85.3125 72.9666 85.3699C71.461 86.6255 71.1369 88.6662 72.2406 89.9236C72.2888 89.9792 72.3406 90.0329 72.3943 90.0829L70.4758 102.109C70.3388 101.968 70.2036 101.824 70.074 101.675C67.7962 99.0773 66.9925 95.6718 67.5369 92.2681C68.0795 88.8625 69.9684 85.4588 73.0758 82.8625C73.2499 82.7144 73.4314 82.5699 73.6129 82.4292Z" fill="#CEB1E7"/>
</g>
</g>
<path d="M129.18 95.3286C129.807 95.3286 130.235 95.8175 130.139 96.4231C130.043 97.0249 129.457 97.5138 128.831 97.5138H100.678C100.994 96.7934 101.27 96.0638 101.502 95.3286H129.18Z" fill="#CEB1E7"/>
<path d="M128.831 97.9307H100.678C100.537 97.9307 100.406 97.8604 100.33 97.7418C100.254 97.6233 100.241 97.4752 100.296 97.3474C100.609 96.6326 100.881 95.9122 101.106 95.2048C101.159 95.0307 101.32 94.9141 101.504 94.9141H129.18C129.606 94.9141 129.998 95.0881 130.256 95.39C130.511 95.69 130.617 96.0807 130.55 96.49C130.422 97.2974 129.667 97.9307 128.831 97.9307ZM101.307 97.0974H128.831C129.254 97.0974 129.665 96.7585 129.728 96.3567C129.754 96.1918 129.717 96.04 129.622 95.9289C129.522 95.8104 129.365 95.7455 129.18 95.7455H101.806C101.657 96.1937 101.491 96.6455 101.307 97.0974Z" fill="#CEB1E7"/>
<path d="M127.405 106.457C128.033 106.457 128.461 106.945 128.365 107.547C128.268 108.151 127.683 108.642 127.055 108.642H90.924C91.9258 108.016 92.8999 107.31 93.8351 106.529C93.8628 106.505 93.8925 106.481 93.9203 106.458H127.405V106.457Z" fill="#CEB1E7"/>
<path d="M127.055 109.059H90.924C90.7388 109.059 90.574 108.936 90.524 108.757C90.4721 108.579 90.5462 108.386 90.7036 108.288C91.698 107.666 92.661 106.966 93.5684 106.209L93.6462 106.144C93.7221 106.081 93.8221 106.042 93.9203 106.042H127.405C127.831 106.042 128.224 106.216 128.481 106.518C128.737 106.818 128.841 107.207 128.776 107.616C128.646 108.423 127.892 109.059 127.055 109.059ZM92.3055 108.225H127.055C127.478 108.225 127.889 107.885 127.952 107.483C127.978 107.32 127.941 107.168 127.846 107.057C127.746 106.938 127.589 106.873 127.404 106.873H94.0703C93.5036 107.348 92.9129 107.799 92.3055 108.225Z" fill="#CEB1E7"/>
<path d="M153.909 51.9086L153.25 56.0494L153.122 56.8475L139.709 140.946H68.6889L65.0685 136.01H135.376L148.917 51.1142L149.706 46.1753L153.909 51.9086Z" fill="#E6D8F3"/>
<path d="M139.709 141.362H68.6907C68.5574 141.362 68.4333 141.299 68.3555 141.192L64.7333 136.257C64.6407 136.131 64.6259 135.962 64.6981 135.822C64.7685 135.681 64.9129 135.594 65.0703 135.594H135.022L148.507 51.0476L149.296 46.1087C149.322 45.942 149.446 45.8087 149.609 45.7698C149.774 45.7309 149.944 45.792 150.043 45.9291L154.246 51.6624C154.313 51.7513 154.339 51.8643 154.322 51.9735L153.535 56.9124L140.12 141.012C140.087 141.214 139.913 141.362 139.709 141.362ZM68.8999 140.529H139.352L152.711 56.7809L153.47 52.0143L149.959 47.2254L149.328 51.1791L135.787 136.075C135.755 136.277 135.58 136.427 135.376 136.427H65.8907L68.8999 140.529Z" fill="#F5F6F7"/>
<path d="M144.041 145.885L148.711 152.251H78.4L73.7296 145.885H144.041Z" fill="#CEB1E7"/>
<path d="M148.711 152.668H78.4C78.2666 152.668 78.1426 152.605 78.0648 152.498L73.3944 146.131C73.3018 146.005 73.287 145.837 73.3592 145.696C73.4296 145.555 73.574 145.468 73.7314 145.468H144.043C144.176 145.468 144.3 145.531 144.378 145.639L149.048 152.005C149.141 152.131 149.156 152.3 149.083 152.44C149.011 152.579 148.868 152.668 148.711 152.668ZM78.6111 151.835H147.889L143.83 146.302H74.5518L78.6111 151.835Z" fill="#F5F6F7"/>
<path d="M158.368 56.0498L144.041 145.885H73.7296L74.5167 140.946H139.709L153.248 56.0498H158.368Z" fill="#F5F6F7"/>
<path d="M144.041 146.301H73.7297C73.6075 146.301 73.4927 146.248 73.413 146.155C73.3334 146.062 73.3001 145.94 73.3186 145.82L74.1056 140.883C74.1371 140.681 74.313 140.531 74.5167 140.531H139.354L152.837 55.9847C152.869 55.7828 153.045 55.6328 153.248 55.6328H158.369C158.491 55.6328 158.606 55.6865 158.685 55.7791C158.765 55.8717 158.798 55.9939 158.78 56.1143L144.452 145.949C144.42 146.151 144.246 146.301 144.041 146.301ZM74.2186 145.468H143.685L157.88 56.4661H153.604L140.12 141.012C140.089 141.214 139.913 141.364 139.709 141.364H74.8723L74.2186 145.468Z" fill="#F5F6F7"/>
<path d="M158.368 56.0488L163.039 62.4155L148.711 152.251L144.041 145.884L158.368 56.0488Z" fill="#E6D8F3"/>
<path d="M148.711 152.668C148.58 152.668 148.455 152.607 148.376 152.498L143.705 146.131C143.639 146.042 143.613 145.929 143.63 145.818L157.957 55.9827C157.983 55.8161 158.107 55.6827 158.27 55.6439C158.435 55.605 158.605 55.6661 158.704 55.8031L163.374 62.1698C163.441 62.2587 163.467 62.3716 163.45 62.4827L149.122 152.318C149.096 152.485 148.972 152.618 148.809 152.657C148.776 152.664 148.743 152.668 148.711 152.668ZM144.48 145.777L148.455 151.199L162.598 62.5216L158.622 57.0994L144.48 145.777Z" fill="#F5F6F7"/>
<path d="M66.6501 108.74L42.3871 129.024C42.3297 129.072 42.2704 129.114 42.2112 129.159C42.1834 129.179 42.1575 129.199 42.1297 129.22C42.0815 129.253 42.0315 129.283 41.9834 129.314C41.9482 129.337 41.913 129.361 41.8778 129.381C41.8519 129.396 41.8241 129.409 41.7982 129.424C41.7334 129.459 41.6667 129.494 41.6001 129.524C41.576 129.535 41.5519 129.544 41.5278 129.553C41.439 129.592 41.3501 129.625 41.2612 129.655C41.2204 129.67 41.1778 129.683 41.1353 129.696C41.1019 129.705 41.0667 129.716 41.0334 129.724C40.9797 129.737 40.926 129.749 40.8723 129.761C40.839 129.768 40.8056 129.774 40.7741 129.779C40.7149 129.788 40.6575 129.796 40.5982 129.803C40.5704 129.807 40.5427 129.811 40.5149 129.812C40.4297 129.82 40.3427 129.824 40.2575 129.824C39.5315 129.824 38.8501 129.557 38.3815 129.024L37.5167 128.038C37.4741 127.99 37.4353 127.94 37.3964 127.888L42.0667 134.255C42.1038 134.307 42.1445 134.357 42.1871 134.405L43.0519 135.39C43.5204 135.924 44.2019 136.19 44.9278 136.19C45.013 136.19 45.0982 136.187 45.1853 136.179C45.213 136.177 45.2408 136.172 45.2686 136.17C45.3278 136.162 45.3852 136.155 45.4445 136.146C45.4778 136.14 45.5112 136.133 45.5427 136.127C45.5964 136.116 45.6501 136.105 45.7038 136.09C45.739 136.081 45.7723 136.072 45.8056 136.062C45.8297 136.055 45.8556 136.049 45.8797 136.042C45.8964 136.037 45.913 136.029 45.9315 136.022C46.0223 135.992 46.1112 135.957 46.1982 135.92C46.2149 135.912 46.2334 135.907 46.2519 135.899C46.2593 135.896 46.2649 135.892 46.2723 135.89C46.339 135.859 46.4038 135.825 46.4704 135.79C46.4945 135.777 46.5186 135.768 46.5427 135.753C46.5464 135.751 46.5482 135.749 46.5501 135.748C46.5852 135.727 46.6204 135.703 46.6556 135.681C46.7001 135.653 46.7464 135.627 46.7908 135.596C46.7945 135.594 46.7982 135.59 46.8019 135.587C46.8297 135.568 46.8556 135.546 46.8834 135.525C46.9278 135.492 46.9741 135.461 47.0167 135.425C47.0315 135.414 47.0445 135.403 47.0593 135.39L71.3223 115.107L66.6501 108.74Z" fill="#5E2A8C"/>
<path d="M44.926 136.607C44.0482 136.607 43.2704 136.272 42.7371 135.664L41.8723 134.679C41.8223 134.622 41.7741 134.562 41.7297 134.501L37.0612 128.138C37.0612 128.136 37.0593 128.136 37.0593 128.135C36.9241 127.949 36.963 127.688 37.1482 127.553C37.3334 127.418 37.5945 127.457 37.7297 127.642L37.7315 127.646C37.7612 127.686 37.7927 127.725 37.826 127.764L38.6908 128.749C39.063 129.173 39.6186 129.407 40.2538 129.407C40.3278 129.407 40.4001 129.403 40.4741 129.396L40.5482 129.386C40.5982 129.381 40.6482 129.375 40.7001 129.366C40.7204 129.362 40.7427 129.359 40.763 129.353L40.7871 129.348C40.8334 129.338 40.8815 129.327 40.9278 129.316C40.9575 129.309 40.989 129.299 41.0186 129.292C41.0556 129.281 41.0908 129.27 41.1278 129.257C41.2056 129.231 41.2834 129.201 41.3612 129.168L41.4241 129.142C41.4834 129.114 41.5408 129.085 41.5982 129.053L41.6686 129.016C41.6834 129.007 41.7001 128.998 41.7149 128.986L41.7927 128.936C41.826 128.916 41.8575 128.896 41.8908 128.873C41.9019 128.866 41.913 128.857 41.9241 128.848L41.9778 128.807C42.0241 128.772 42.0723 128.738 42.1167 128.699L66.3797 108.416C66.4686 108.342 66.5815 108.309 66.6964 108.322C66.8112 108.335 66.913 108.396 66.9815 108.488L71.6519 114.855C71.7815 115.033 71.7519 115.281 71.5834 115.422L47.276 135.749C47.2371 135.781 47.1982 135.81 47.1575 135.838L47.1038 135.877C47.0815 135.894 47.0593 135.91 47.0371 135.927C46.9871 135.962 46.9482 135.986 46.9093 136.01L46.8408 136.053C46.8149 136.07 46.789 136.086 46.763 136.101C46.7556 136.107 46.7482 136.11 46.7408 136.114C46.7241 136.123 46.7019 136.135 46.6815 136.144L46.6649 136.151C46.5908 136.19 46.5186 136.229 46.4427 136.264C46.4445 136.264 46.4315 136.27 46.4204 136.275C46.4019 136.283 46.3815 136.292 46.3612 136.299C46.2612 136.342 46.1612 136.381 46.0612 136.414C46.0445 136.422 46.0223 136.429 46.0019 136.436C45.9834 136.442 45.9612 136.448 45.9408 136.453L45.9204 136.459C45.8815 136.47 45.8427 136.481 45.8038 136.49C45.7427 136.505 45.6834 136.52 45.6223 136.531L45.6019 136.535C45.5704 136.54 45.5408 136.548 45.5093 136.553C45.4427 136.564 45.376 136.573 45.3112 136.581L45.2871 136.585C45.263 136.588 45.2408 136.59 45.2167 136.592C45.113 136.603 45.0186 136.607 44.926 136.607ZM39.589 130.173L42.4038 134.01C42.4334 134.051 42.4667 134.092 42.5001 134.131L43.3649 135.116C43.7797 135.59 44.4315 135.825 45.1482 135.764L45.2204 135.755C45.2704 135.749 45.3223 135.744 45.3723 135.735C45.3927 135.731 45.4149 135.727 45.4353 135.722L45.4575 135.718C45.5056 135.709 45.5519 135.698 45.5982 135.686C45.6278 135.679 45.6575 135.67 45.689 135.662L45.7519 135.646C45.763 135.64 45.7815 135.633 45.7982 135.627C45.876 135.601 45.9556 135.572 46.0334 135.536C46.0482 135.529 46.0649 135.523 46.0815 135.518L46.0945 135.512C46.1556 135.485 46.213 135.453 46.2723 135.422C46.2871 135.412 46.3038 135.405 46.3186 135.398L46.3315 135.39C46.3353 135.386 46.3408 135.385 46.3445 135.383C46.3575 135.375 46.3741 135.364 46.3908 135.355L46.4778 135.301C46.5038 135.286 46.5297 135.27 46.5538 135.253C46.576 135.236 46.5871 135.229 46.5982 135.22L46.6686 135.166C46.6964 135.146 46.7241 135.125 46.7519 135.103L46.789 135.073L70.7538 115.04L66.5778 109.346L42.6538 129.344C42.5945 129.392 42.5353 129.438 42.4741 129.483L42.4334 129.514C42.4112 129.531 42.3908 129.548 42.3686 129.562C42.3241 129.592 42.2797 129.62 42.2353 129.648L42.1704 129.688C42.1427 129.707 42.1149 129.723 42.0871 129.74C42.0649 129.753 42.0427 129.764 42.0204 129.775L41.9964 129.788C41.9241 129.827 41.8501 129.866 41.776 129.901C41.7556 129.91 41.7353 129.92 41.713 129.927L41.6927 129.936C41.5945 129.979 41.4945 130.018 41.3927 130.051C41.3464 130.068 41.2982 130.083 41.2519 130.096C41.213 130.107 41.1741 130.118 41.1353 130.127C41.076 130.142 41.0149 130.157 40.9538 130.168L40.9334 130.172C40.9038 130.177 40.8723 130.185 40.8427 130.188C40.776 130.199 40.7112 130.209 40.6445 130.216L40.6186 130.22C40.5964 130.223 40.5723 130.225 40.5482 130.227C40.4445 130.236 40.3482 130.24 40.2556 130.24C40.026 130.24 39.8019 130.218 39.589 130.173Z" fill="#F5F6F7"/>
<path d="M102.265 86.3848C102.15 85.6459 101.987 84.9144 101.776 84.1996C101.118 81.9515 99.9925 79.8496 98.3833 78.0107C94.9296 74.0756 89.8944 72.1089 84.5462 72.1089C81.3592 72.1089 78.0648 72.8052 74.9259 74.2033C72.7888 75.1533 70.7259 76.4237 68.8185 78.0181C60.3944 85.0589 57.8814 96.0219 62.3981 103.892L38.1314 124.179C36.8574 125.242 36.5833 126.97 37.5166 128.039L38.3814 129.024C38.8481 129.557 39.5333 129.826 40.2555 129.826C40.9814 129.826 41.7499 129.557 42.3851 129.024L66.6499 108.742C67.4425 109.344 68.2833 109.877 69.1629 110.333C71.8592 111.727 74.937 112.427 78.124 112.427C82.4092 112.427 86.8925 111.168 90.924 108.642C91.9277 108.016 92.8999 107.311 93.9222 106.457C96.9796 103.877 99.2499 100.783 100.68 97.5107C100.993 96.7941 101.27 96.0607 101.502 95.3256C102.452 92.3515 102.717 89.2867 102.265 86.3848ZM89.624 101.722C86.4999 104.335 82.7444 105.639 79.1962 105.639C75.6499 105.639 72.3111 104.333 70.0222 101.722C65.4388 96.4996 66.7888 88.0367 73.0351 82.8181C76.1592 80.2052 79.9148 78.9015 83.4629 78.9015C87.0092 78.9015 90.3481 80.207 92.637 82.8181C92.7036 82.8941 92.7666 82.9681 92.8259 83.0441C93.124 83.4033 93.3981 83.7793 93.6425 84.1626C94.0851 84.8589 94.4351 85.5904 94.7055 86.357C94.8444 86.7459 94.9592 87.1441 95.0499 87.5478C95.5499 89.7089 95.424 92.0348 94.7055 94.2904C94.5944 94.6422 94.4666 94.9959 94.3259 95.3441C94.024 96.0922 93.6574 96.8274 93.2259 97.5404C93.0185 97.883 92.7981 98.2219 92.5592 98.5552C91.7555 99.6941 90.7722 100.764 89.624 101.722Z" fill="#9D62D0"/>
<path d="M40.2555 130.242C39.3778 130.242 38.6 129.907 38.0685 129.297L37.2037 128.312C36.7259 127.764 36.4963 127.044 36.5555 126.284C36.6278 125.377 37.1037 124.492 37.8648 123.859L61.8667 103.794C59.7537 99.9234 59.2148 95.2345 60.3518 90.5456C61.5278 85.6993 64.4407 81.1363 68.5537 77.6974C70.45 76.1123 72.5389 74.8086 74.7592 73.8215C77.8889 72.4289 81.2741 71.6919 84.55 71.6919C90.2537 71.6919 95.2796 73.8382 98.7 77.7363C100.318 79.5845 101.489 81.7197 102.18 84.0826C102.393 84.8067 102.561 85.5586 102.68 86.3197C103.139 89.2623 102.869 92.4215 101.902 95.453C101.67 96.1882 101.389 96.9363 101.065 97.6771C99.5685 101.101 97.1907 104.246 94.1926 106.775C93.1778 107.623 92.1815 108.349 91.1463 108.994C87.1278 111.51 82.6259 112.842 78.1259 112.842C74.8463 112.842 71.6815 112.101 68.9741 110.701C68.1778 110.29 67.4037 109.809 66.6667 109.272L42.6518 129.344C41.9611 129.922 41.1111 130.242 40.2555 130.242ZM84.5481 72.5252C81.3889 72.5252 78.1204 73.2363 75.0963 74.5826C72.9463 75.5382 70.9241 76.8012 69.087 78.3363C60.913 85.1678 58.2518 95.8289 62.7611 103.683C62.8611 103.859 62.8222 104.081 62.6667 104.21L38.3981 124.497C37.8093 124.99 37.4389 125.664 37.3852 126.349C37.3426 126.884 37.5 127.386 37.8296 127.762L38.6944 128.747C39.0667 129.173 39.6204 129.407 40.2555 129.407C40.9148 129.407 41.5778 129.157 42.1185 128.703L66.3833 108.422C66.5333 108.297 66.7481 108.292 66.9037 108.41C67.6796 109.001 68.5037 109.523 69.3555 109.962C71.9444 111.301 74.9778 112.01 78.1259 112.01C82.4685 112.01 86.8185 110.723 90.7037 108.29C91.7055 107.664 92.6722 106.96 93.6555 106.138C96.5555 103.694 98.8518 100.653 100.298 97.3456C100.611 96.6308 100.881 95.9104 101.106 95.203C102.033 92.2919 102.293 89.266 101.854 86.4493C101.741 85.7252 101.581 85.0086 101.378 84.3197C100.722 82.0734 99.6092 80.0437 98.0704 78.2863C94.8111 74.5715 90.0074 72.5252 84.5481 72.5252ZM79.1963 106.055C75.3722 106.055 72.0018 104.614 69.7074 101.996C67.6592 99.6623 66.6722 96.5734 66.9259 93.2956C67.237 89.2752 69.3667 85.3382 72.7667 82.4974C75.8629 79.9086 79.6611 78.4826 83.4629 78.4826C87.287 78.4826 90.6574 79.9234 92.9518 82.5419C93.0222 82.6215 93.0889 82.7011 93.1537 82.7826C93.4537 83.1437 93.7389 83.5345 93.9963 83.9363C94.4426 84.6363 94.8148 85.403 95.1018 86.2141C95.2444 86.6141 95.3648 87.0308 95.4592 87.453C95.9722 89.666 95.85 92.0734 95.1055 94.4141C94.9889 94.7808 94.8574 95.1456 94.7148 95.4993C94.4055 96.2678 94.0259 97.0252 93.5852 97.7549C93.3611 98.1234 93.1389 98.4641 92.9018 98.7974C92.0574 99.9882 91.0444 101.079 89.8926 102.042C86.7963 104.629 82.9981 106.055 79.1963 106.055ZM83.4629 79.316C79.8574 79.316 76.2481 80.6734 73.3018 83.1363C70.0722 85.8345 68.05 89.5623 67.7574 93.3604C67.5204 96.4123 68.437 99.2826 70.3352 101.446C72.4685 103.881 75.6167 105.222 79.1963 105.222C82.8018 105.222 86.4111 103.864 89.3574 101.401C90.4555 100.484 91.4185 99.4456 92.2222 98.3141C92.4463 97.9974 92.6592 97.6752 92.8722 97.3234C93.2889 96.6326 93.6481 95.9141 93.9426 95.1863C94.0778 94.853 94.2018 94.5086 94.3111 94.1623C95.0092 91.9641 95.1259 89.7086 94.6463 87.6382C94.5592 87.2474 94.4481 86.8623 94.3166 86.4937C94.05 85.74 93.7055 85.0308 93.2944 84.3845C93.0574 84.0123 92.7926 83.6493 92.5092 83.3086C92.4481 83.2326 92.3889 83.1623 92.3278 83.0919C90.1907 80.6567 87.0426 79.316 83.4629 79.316Z" fill="#F5F6F7"/>
<path d="M79.7036 89.5067C79.6666 89.4011 79.6203 89.3011 79.5573 89.2067C79.5185 89.1419 79.4722 89.0808 79.4203 89.0215C79.1073 88.666 78.6518 88.4863 78.1666 88.4863C78.1277 88.4863 78.0888 88.4882 78.0481 88.49C77.5981 88.516 77.1333 88.6937 76.7407 89.0215C76.2444 89.4363 75.974 90.0011 75.9592 90.5419C75.9481 90.9308 76.0685 91.3067 76.3296 91.6048C76.6425 91.9604 77.0981 92.14 77.5833 92.14C78.0685 92.14 78.5814 91.9623 79.0074 91.6048C79.2092 91.4345 79.3759 91.2419 79.5018 91.0326C79.5611 90.9363 79.6092 90.8363 79.6518 90.7326C79.8185 90.3252 79.8388 89.89 79.7036 89.5067Z" fill="#F5F6F7"/>
<path d="M78.187 86.2235C78.1222 86.0384 78.0351 85.8624 77.9296 85.6958C77.8574 85.5828 77.7796 85.4754 77.6888 85.3717C77.137 84.7421 76.3314 84.4272 75.4777 84.4272C74.6981 84.4272 73.8796 84.6884 73.1703 85.2106C73.1018 85.2624 73.0333 85.3143 72.9666 85.3698C71.4611 86.6254 71.137 88.6661 72.2407 89.9235C72.2907 89.9791 72.3407 90.0328 72.3944 90.0828C72.9351 90.605 73.6722 90.8643 74.4518 90.8643C74.9518 90.8643 75.4703 90.7569 75.9648 90.5421C76.3148 90.3902 76.6518 90.1828 76.9648 89.9235C77.3203 89.6235 77.6129 89.2828 77.8333 88.9161C77.9166 88.7772 77.9907 88.6347 78.0518 88.4902C78.0666 88.455 78.0814 88.4217 78.0944 88.3865C78.387 87.6661 78.4222 86.8995 78.187 86.2235Z" fill="#F5F6F7"/>
<path d="M139.709 140.946H68.6889L65.0685 136.011H135.376L139.709 140.946Z" fill="#CEB1E7"/>
<path d="M139.709 141.363H68.6907C68.5574 141.363 68.4333 141.3 68.3555 141.192L64.7333 136.257C64.6407 136.131 64.6259 135.963 64.6981 135.822C64.7685 135.681 64.9129 135.594 65.0703 135.594H135.378C135.498 135.594 135.611 135.646 135.691 135.737L140.024 140.672C140.131 140.794 140.157 140.97 140.091 141.118C140.02 141.268 139.872 141.363 139.709 141.363ZM68.8999 140.529H138.787L135.185 136.428H65.8888L68.8999 140.529Z" fill="#F5F6F7"/>
<path d="M130.954 84.1997C131.581 84.1997 132.009 84.6886 131.913 85.2942C131.817 85.896 131.231 86.3849 130.605 86.3849H102.265C102.15 85.646 101.987 84.9127 101.778 84.1997H130.954Z" fill="#CEB1E7"/>
<path d="M130.605 86.8012H102.265C102.059 86.8012 101.885 86.6512 101.854 86.4475C101.743 85.7272 101.583 85.0105 101.378 84.316C101.341 84.1901 101.365 84.0531 101.444 83.9494C101.522 83.8438 101.646 83.7827 101.778 83.7827H130.955C131.381 83.7827 131.774 83.9568 132.031 84.2586C132.287 84.5586 132.393 84.9494 132.326 85.3586C132.196 86.1679 131.441 86.8012 130.605 86.8012ZM102.618 85.9679H130.605C131.028 85.9679 131.439 85.629 131.502 85.2272C131.528 85.0623 131.491 84.9105 131.396 84.7994C131.296 84.6809 131.139 84.616 130.954 84.616H102.324C102.441 85.0623 102.539 85.5142 102.618 85.9679Z" fill="#CEB1E7"/>
<path d="M132.729 73.0718C133.357 73.0718 133.785 73.5607 133.689 74.1662C133.592 74.7681 133.007 75.257 132.381 75.257H102.587C101.961 75.257 101.533 74.7681 101.63 74.1662C101.726 73.5625 102.309 73.0718 102.935 73.0718H132.729Z" fill="#CEB1E7"/>
<path d="M132.381 75.6739H102.587C102.161 75.6739 101.77 75.5017 101.513 75.1998C101.257 74.8998 101.154 74.5109 101.218 74.1017C101.348 73.2924 102.102 72.6572 102.935 72.6572H132.729C133.155 72.6572 133.548 72.8313 133.805 73.1332C134.061 73.4332 134.167 73.8239 134.1 74.2332C133.972 75.0406 133.217 75.6739 132.381 75.6739ZM102.935 73.4887C102.515 73.4887 102.105 73.8294 102.041 74.2313C102.015 74.3961 102.052 74.548 102.146 74.6591C102.246 74.7757 102.402 74.8406 102.587 74.8406H132.381C132.804 74.8406 133.215 74.5017 133.278 74.0998C133.304 73.935 133.267 73.7832 133.172 73.672C133.072 73.5535 132.915 73.4887 132.729 73.4887H102.935Z" fill="#CEB1E7"/>
<path d="M125.63 117.587C126.257 117.587 126.685 118.076 126.589 118.678C126.493 119.281 125.907 119.772 125.28 119.772H81.3297C80.7056 119.772 80.276 119.283 80.3723 118.678C80.4686 118.076 81.0537 117.587 81.6778 117.587H125.63Z" fill="#CEB1E7"/>
<path d="M125.282 120.189H81.3297C80.9056 120.189 80.5149 120.017 80.2574 119.715C80.0019 119.415 79.8963 119.024 79.963 118.613C80.0926 117.804 80.8463 117.17 81.6797 117.17H125.63C126.056 117.17 126.448 117.344 126.706 117.646C126.961 117.946 127.065 118.335 127 118.744C126.872 119.554 126.117 120.189 125.282 120.189ZM81.6778 118.004C81.2574 118.004 80.8482 118.343 80.7834 118.744C80.7574 118.909 80.7945 119.063 80.8889 119.174C80.9889 119.293 81.1445 119.357 81.3278 119.357H125.28C125.702 119.357 126.113 119.017 126.176 118.615C126.202 118.452 126.165 118.3 126.07 118.189C125.97 118.07 125.813 118.006 125.628 118.006H81.6778V118.004Z" fill="#CEB1E7"/>
<path d="M106.935 92.7516C106.902 92.5386 106.865 92.3257 106.824 92.1146C106.82 92.0942 106.817 92.0738 106.813 92.0535C106.806 92.0146 106.794 91.9757 106.787 91.9349C106.752 91.7627 106.713 91.5905 106.672 91.4201C106.657 91.3572 106.643 91.2923 106.626 91.2294C106.57 91.0072 106.511 90.7868 106.448 90.5683C106.361 90.2701 106.261 89.9757 106.157 89.6831C106.144 89.646 106.135 89.609 106.12 89.572C106.107 89.5331 106.089 89.496 106.076 89.459C105.978 89.1923 105.874 88.9294 105.761 88.6683C105.752 88.6442 105.743 88.622 105.732 88.5979C105.609 88.3183 105.476 88.0423 105.339 87.7683C105.322 87.7368 105.309 87.7053 105.294 87.6738C105.272 87.6294 105.244 87.5849 105.222 87.5405C105.128 87.3609 105.03 87.1849 104.93 87.0072C104.887 86.9349 104.848 86.8609 104.804 86.7886C104.661 86.5479 104.513 86.309 104.356 86.0738C104.356 86.072 104.354 86.072 104.354 86.0701C104.222 85.8738 104.087 85.6794 103.946 85.4868L99.276 79.1201C99.4185 79.3127 99.5537 79.509 99.6871 79.7072C99.8445 79.9423 99.9926 80.1812 100.135 80.422C100.178 80.4942 100.219 80.5683 100.261 80.6405C100.361 80.8164 100.459 80.9942 100.554 81.172C100.594 81.2479 100.633 81.3238 100.672 81.3997C100.811 81.6738 100.943 81.9497 101.065 82.2294C101.074 82.2516 101.083 82.2757 101.093 82.2997C101.206 82.5609 101.309 82.8238 101.407 83.0905C101.435 83.1646 101.463 83.2405 101.489 83.3146C101.593 83.6072 101.691 83.9016 101.778 84.1997C101.843 84.4183 101.9 84.6386 101.956 84.8609C101.972 84.9257 101.987 84.9886 102.002 85.0535C102.043 85.2238 102.08 85.3942 102.115 85.5664C102.128 85.6275 102.141 85.6868 102.152 85.7479C102.193 85.959 102.231 86.172 102.263 86.3849C102.715 89.2868 102.45 92.3497 101.502 95.3294C101.27 96.0646 100.993 96.7942 100.678 97.5146C100.613 97.6627 100.544 97.809 100.478 97.9553C100.424 98.0701 100.37 98.1849 100.315 98.2997C100.269 98.3942 100.222 98.4905 100.176 98.5849C100.119 98.6997 100.059 98.8127 100 98.9275C99.9519 99.022 99.9019 99.1146 99.8519 99.2072C99.7908 99.322 99.7278 99.4349 99.663 99.5497C99.6111 99.6423 99.5593 99.7331 99.5074 99.8257C99.4408 99.9386 99.3741 100.053 99.3056 100.166C99.2556 100.25 99.2074 100.331 99.1556 100.415C98.9778 100.702 98.7945 100.987 98.6037 101.268C98.5667 101.324 98.5278 101.379 98.4889 101.437C98.2926 101.724 98.0889 102.007 97.8778 102.289C97.8519 102.322 97.8259 102.355 97.8019 102.387C97.6334 102.607 97.4611 102.826 97.2852 103.042C97.2371 103.102 97.1889 103.161 97.1389 103.222C96.9389 103.463 96.7334 103.703 96.5222 103.939C96.4889 103.976 96.4556 104.011 96.4222 104.048C96.25 104.239 96.0741 104.426 95.8945 104.613C95.8352 104.676 95.7741 104.737 95.713 104.798C95.5241 104.99 95.3296 105.183 95.1334 105.37C95.1056 105.398 95.0778 105.426 95.05 105.452C94.9315 105.563 94.8111 105.672 94.6908 105.783C94.6259 105.842 94.5611 105.903 94.4945 105.963C94.3056 106.131 94.1148 106.296 93.9204 106.461C93.6778 106.665 93.4371 106.857 93.1982 107.044C93.1815 107.057 93.1648 107.07 93.1482 107.083C92.9241 107.257 92.7019 107.424 92.4797 107.587C92.4426 107.615 92.4037 107.642 92.3667 107.67C92.1667 107.815 91.9667 107.955 91.7667 108.09C91.4871 108.281 91.2056 108.466 90.9241 108.644C90.6463 108.818 90.3667 108.985 90.0834 109.146C90.0093 109.189 89.9352 109.228 89.8611 109.27C89.613 109.409 89.3648 109.544 89.1148 109.674C89.0204 109.722 88.9259 109.772 88.8315 109.82C88.5574 109.959 88.2815 110.09 88.0037 110.218C87.9537 110.24 87.9056 110.265 87.8556 110.287C87.7908 110.316 87.7241 110.344 87.6593 110.372C87.4778 110.452 87.2963 110.531 87.113 110.605C87.0222 110.642 86.9315 110.678 86.8408 110.715C86.6815 110.778 86.5204 110.84 86.3611 110.902C86.2648 110.939 86.1667 110.974 86.0704 111.009C85.913 111.066 85.7556 111.12 85.5982 111.174C85.5019 111.207 85.4056 111.239 85.3074 111.27C85.1778 111.313 85.0463 111.352 84.9167 111.392C84.7574 111.44 84.5963 111.489 84.4371 111.535C84.313 111.57 84.1889 111.603 84.063 111.637C83.9037 111.679 83.7463 111.72 83.5871 111.759C83.4611 111.79 83.3352 111.82 83.2111 111.848C83.0519 111.885 82.8926 111.918 82.7334 111.952C82.6093 111.978 82.4834 112.003 82.3593 112.026C82.1982 112.055 82.0371 112.085 81.876 112.111C81.7537 112.131 81.6297 112.152 81.5074 112.17C81.3426 112.194 81.1778 112.216 81.0148 112.239C80.8963 112.253 80.7759 112.27 80.6574 112.285C80.4852 112.305 80.3148 112.32 80.1445 112.335C80.0334 112.344 79.9204 112.357 79.8093 112.365C79.6204 112.379 79.4334 112.389 79.2463 112.398C79.1519 112.403 79.0593 112.409 78.9648 112.413C78.6834 112.424 78.4037 112.429 78.1241 112.429C74.9371 112.429 71.8611 111.731 69.163 110.335C68.2815 109.879 67.4408 109.348 66.65 108.742L71.3204 115.109C72.1111 115.715 72.9519 116.244 73.8334 116.702C76.5297 118.098 79.6074 118.796 82.7926 118.796C83.0722 118.796 83.3519 118.79 83.6334 118.779C83.7278 118.776 83.8204 118.768 83.9148 118.765C84.1019 118.755 84.2908 118.746 84.4778 118.731C84.5889 118.722 84.7 118.711 84.8111 118.702C84.9834 118.687 85.1537 118.67 85.326 118.652C85.4445 118.639 85.563 118.622 85.6815 118.607C85.8463 118.585 86.0111 118.565 86.176 118.539C86.2982 118.52 86.4222 118.5 86.5445 118.479C86.7056 118.452 86.8667 118.424 87.0278 118.394C87.1519 118.37 87.2778 118.346 87.4019 118.32C87.5611 118.287 87.7204 118.253 87.8797 118.216C88.0056 118.189 88.1297 118.159 88.2537 118.128C88.413 118.089 88.5722 118.048 88.7315 118.005C88.8556 117.972 88.9797 117.939 89.1037 117.903C89.2648 117.857 89.4241 117.809 89.5852 117.761C89.6648 117.737 89.7463 117.715 89.8259 117.69C89.8759 117.674 89.9259 117.657 89.9759 117.64C90.0722 117.609 90.1685 117.576 90.2667 117.544C90.4241 117.49 90.5815 117.437 90.7389 117.379C90.8352 117.344 90.9334 117.309 91.0297 117.272C91.1908 117.213 91.35 117.15 91.5093 117.085C91.6 117.048 91.6908 117.013 91.7815 116.976C91.9648 116.9 92.1463 116.822 92.3278 116.742C92.3926 116.713 92.4593 116.687 92.5241 116.657C92.5352 116.652 92.5482 116.646 92.5593 116.642C92.5963 116.626 92.6334 116.605 92.6704 116.589C92.9482 116.461 93.2241 116.329 93.4982 116.19C93.5926 116.142 93.6871 116.094 93.7815 116.044C94.0315 115.915 94.2815 115.779 94.5278 115.64C94.5815 115.611 94.6352 115.585 94.6871 115.553C94.7074 115.542 94.7297 115.528 94.75 115.516C95.0315 115.355 95.313 115.189 95.5908 115.015C95.8741 114.837 96.1537 114.652 96.4334 114.461C96.4593 114.444 96.4834 114.428 96.5093 114.411C96.6834 114.29 96.8593 114.166 97.0334 114.04C97.0704 114.013 97.1093 113.985 97.1463 113.957C97.3685 113.794 97.5908 113.628 97.813 113.453C97.8297 113.44 97.8463 113.428 97.863 113.415C97.9815 113.322 98.1019 113.228 98.2204 113.129C98.3408 113.031 98.463 112.931 98.5834 112.829C98.7778 112.665 98.9685 112.5 99.1574 112.331C99.2241 112.272 99.2871 112.213 99.3519 112.153C99.4722 112.042 99.5945 111.933 99.713 111.82C99.7185 111.815 99.7259 111.809 99.7315 111.803C99.7537 111.783 99.7741 111.761 99.7945 111.74C99.9926 111.552 100.185 111.359 100.376 111.166C100.437 111.105 100.496 111.042 100.556 110.981C100.735 110.794 100.911 110.607 101.083 110.416C101.109 110.389 101.137 110.361 101.161 110.333C101.169 110.326 101.174 110.316 101.182 110.309C101.393 110.072 101.598 109.833 101.798 109.592C101.848 109.533 101.896 109.474 101.944 109.415C102.12 109.198 102.294 108.979 102.461 108.759C102.48 108.733 102.502 108.709 102.52 108.683C102.526 108.676 102.532 108.668 102.537 108.661C102.748 108.379 102.952 108.096 103.148 107.809C103.187 107.753 103.224 107.698 103.263 107.642C103.454 107.359 103.639 107.074 103.817 106.787C103.828 106.768 103.841 106.752 103.852 106.733C103.891 106.668 103.928 106.603 103.967 106.539C104.035 106.426 104.102 106.313 104.169 106.198C104.222 106.105 104.272 106.013 104.324 105.922C104.387 105.809 104.45 105.696 104.511 105.581C104.561 105.489 104.611 105.394 104.659 105.3C104.719 105.187 104.778 105.072 104.833 104.957C104.881 104.863 104.928 104.768 104.974 104.672C105.03 104.557 105.083 104.442 105.137 104.328C105.159 104.278 105.185 104.229 105.207 104.179C105.252 104.081 105.294 103.985 105.337 103.887C105.654 103.166 105.93 102.437 106.161 101.702C107.122 98.7183 107.387 95.6553 106.935 92.7516Z" fill="#CEB1E7"/>
<path d="M82.7925 119.213C79.511 119.213 76.348 118.472 73.6406 117.07C72.7314 116.6 71.8666 116.052 71.0647 115.439C71.0332 115.415 71.0055 115.387 70.9814 115.353L66.311 108.987C66.1888 108.82 66.2073 108.589 66.3555 108.442C66.5036 108.298 66.7351 108.283 66.8999 108.409C67.661 108.992 68.4851 109.515 69.3517 109.963C71.9406 111.303 74.9721 112.011 78.1203 112.011C78.3814 112.011 78.6592 112.005 78.9443 111.994C78.998 111.992 79.0499 111.989 79.1036 111.985L79.2203 111.978C79.4055 111.968 79.5888 111.959 79.774 111.944C79.8462 111.939 79.9184 111.931 79.9888 111.926L80.1017 111.915C80.274 111.9 80.4406 111.883 80.6055 111.865C80.6925 111.855 80.7795 111.842 80.8666 111.831L80.9573 111.82C81.1184 111.8 81.2795 111.778 81.4425 111.753C81.5499 111.737 81.6592 111.718 81.7666 111.7L81.8036 111.694C81.961 111.668 82.1203 111.64 82.2777 111.611C82.3999 111.587 82.5221 111.563 82.6462 111.537C82.8018 111.505 82.9592 111.47 83.1147 111.435C83.2388 111.407 83.361 111.378 83.4851 111.348C83.6406 111.309 83.798 111.27 83.9536 111.228C84.0758 111.194 84.198 111.163 84.3203 111.128C84.4777 111.083 84.6351 111.035 84.7925 110.987L84.8443 110.97C84.9555 110.937 85.0666 110.902 85.1758 110.866C85.2721 110.835 85.3666 110.803 85.461 110.772C85.6166 110.72 85.7703 110.666 85.9258 110.609C86.0203 110.574 86.1166 110.54 86.211 110.503C86.3684 110.444 86.5258 110.383 86.6832 110.32L86.7555 110.292C86.8203 110.266 86.8869 110.24 86.9518 110.215C87.1314 110.14 87.3092 110.063 87.4888 109.985L87.574 109.948C87.6092 109.933 87.6462 109.916 87.6814 109.902L87.8258 109.833C88.0925 109.711 88.3666 109.579 88.6388 109.442C88.7314 109.396 88.8258 109.348 88.9184 109.3C89.1629 109.174 89.4092 109.04 89.6536 108.903L89.7443 108.853C89.7869 108.829 89.8295 108.807 89.8721 108.783C90.1758 108.609 90.4462 108.448 90.698 108.289C90.9555 108.128 91.2258 107.95 91.5277 107.744C91.724 107.609 91.9221 107.472 92.1184 107.329L92.2295 107.248C92.4703 107.072 92.6851 106.909 92.8869 106.752L92.9369 106.711C93.1869 106.515 93.4203 106.326 93.6462 106.137C93.8369 105.976 94.024 105.813 94.2092 105.648C94.248 105.613 94.2851 105.578 94.324 105.542L94.4499 105.428C94.5518 105.335 94.6555 105.24 94.7555 105.146L94.8388 105.066C95.0258 104.887 95.2129 104.703 95.411 104.502C95.4703 104.44 95.5295 104.379 95.5888 104.318C95.7647 104.135 95.9388 103.95 96.1073 103.763L96.2055 103.657C96.4018 103.439 96.5999 103.207 96.8129 102.952L96.9573 102.776C97.1406 102.552 97.3073 102.34 97.4647 102.131L97.5406 102.035C97.7332 101.779 97.9295 101.505 98.1406 101.198L98.2536 101.033C98.4462 100.75 98.6277 100.466 98.7962 100.194C98.8388 100.124 98.8814 100.053 98.924 99.9831L98.9425 99.9516C99.0092 99.8405 99.0758 99.7294 99.1406 99.6164C99.1869 99.5368 99.2314 99.4571 99.2758 99.3775L99.2943 99.3442C99.3573 99.2331 99.4184 99.1201 99.4795 99.009C99.5295 98.9183 99.5777 98.8257 99.6258 98.7331C99.6832 98.622 99.7406 98.509 99.798 98.3979C99.8443 98.3053 99.8906 98.2127 99.9351 98.1183C99.9888 98.0053 100.042 97.8942 100.094 97.7812L100.111 97.7423C100.172 97.6109 100.233 97.4794 100.291 97.3479C100.604 96.6331 100.878 95.9127 101.1 95.2034C102.028 92.2923 102.285 89.2664 101.846 86.4497C101.817 86.2572 101.781 86.0534 101.737 85.8275L101.7 85.6497C101.665 85.4812 101.63 85.3146 101.589 85.1479L101.542 84.959C101.481 84.7127 101.426 84.5072 101.368 84.3164C101.292 84.059 101.204 83.7849 101.085 83.4516C101.059 83.3794 101.033 83.3053 101.005 83.2331C100.9 82.9497 100.8 82.6979 100.698 82.4627L100.67 82.3942C100.563 82.1479 100.439 81.8849 100.287 81.5868C100.25 81.5127 100.211 81.4386 100.172 81.3646C100.08 81.1905 99.9851 81.0183 99.8869 80.846L99.848 80.7794C99.8203 80.7312 99.7925 80.6812 99.7629 80.6331C99.6073 80.372 99.4647 80.1442 99.3258 79.9368C99.1962 79.7423 99.061 79.5497 98.9258 79.3646C98.7906 79.1794 98.8295 78.9183 99.0147 78.7831C99.1999 78.6479 99.461 78.6868 99.5962 78.872L99.5981 78.8738L104.267 85.2386C104.409 85.4331 104.55 85.6349 104.685 85.8368C104.687 85.8405 104.689 85.8442 104.692 85.8479C104.839 86.0683 104.987 86.3053 105.148 86.5738C105.18 86.6257 105.207 86.6775 105.237 86.7275L105.276 86.796C105.38 86.9775 105.48 87.159 105.576 87.3423L105.602 87.3905C105.618 87.4201 105.635 87.4497 105.65 87.4794C105.661 87.4997 105.67 87.522 105.68 87.5423L105.694 87.5757C105.852 87.8868 105.983 88.1646 106.098 88.4275L106.128 88.4979C106.237 88.7534 106.342 89.0183 106.452 89.3109L106.467 89.3497C106.478 89.3757 106.489 89.4016 106.498 89.4294C106.507 89.4534 106.515 89.4794 106.522 89.5053L106.535 89.5442C106.657 89.8868 106.752 90.1757 106.831 90.4497C106.891 90.6516 106.948 90.8664 107.015 91.1257C107.028 91.1757 107.039 91.2275 107.052 91.2775L107.063 91.322C107.105 91.4979 107.144 91.6738 107.18 91.8497L107.191 91.896C107.196 91.9201 107.202 91.9442 107.207 91.9701L107.218 92.0349C107.265 92.2757 107.302 92.4886 107.333 92.6886C107.791 95.6331 107.524 98.7905 106.557 101.822C106.326 102.555 106.042 103.305 105.717 104.048C105.674 104.146 105.63 104.246 105.585 104.344C105.57 104.376 105.557 104.405 105.542 104.435L105.513 104.496C105.459 104.613 105.404 104.729 105.348 104.844C105.302 104.942 105.254 105.039 105.205 105.135C105.148 105.252 105.089 105.366 105.028 105.483C104.978 105.579 104.928 105.674 104.876 105.77C104.813 105.887 104.75 106.002 104.685 106.116L104.657 106.166C104.615 106.244 104.57 106.322 104.526 106.398C104.459 106.515 104.391 106.629 104.32 106.744L104.272 106.824C104.25 106.863 104.226 106.902 104.204 106.94L104.178 106.981C103.992 107.279 103.804 107.572 103.605 107.865L103.489 108.033C103.268 108.353 103.065 108.637 102.867 108.9L102.789 109.002C102.626 109.215 102.45 109.44 102.263 109.668L102.244 109.692C102.202 109.744 102.159 109.798 102.115 109.85C101.894 110.115 101.691 110.353 101.487 110.579L101.465 110.605C101.45 110.622 101.433 110.64 101.417 110.657L101.385 110.69C101.209 110.883 101.031 111.074 100.85 111.263C100.789 111.326 100.728 111.389 100.667 111.452C100.461 111.661 100.267 111.852 100.076 112.035L100.054 112.057C100.039 112.072 100.026 112.085 100.011 112.1C100.009 112.102 99.9962 112.113 99.9943 112.115C99.8906 112.213 99.7851 112.309 99.6795 112.405L99.5518 112.524C99.511 112.561 99.4703 112.6 99.4277 112.637C99.2369 112.807 99.0425 112.976 98.8443 113.142C98.7203 113.246 98.5981 113.348 98.4758 113.446C98.3536 113.544 98.2332 113.64 98.1129 113.735L98.0629 113.776C97.8517 113.94 97.6295 114.109 97.3851 114.287L97.2703 114.372C97.0925 114.5 96.9147 114.628 96.7369 114.75C96.7203 114.761 96.7036 114.772 96.6869 114.783L96.6592 114.802C96.3499 115.013 96.0684 115.196 95.8018 115.365C95.5369 115.531 95.2573 115.698 94.948 115.876L94.8832 115.915C94.8518 115.933 94.8184 115.95 94.7869 115.966C94.7647 115.978 94.7425 115.989 94.7221 116.002C94.4684 116.144 94.2129 116.281 93.9629 116.411C93.8666 116.461 93.7703 116.511 93.674 116.559C93.3906 116.702 93.1073 116.837 92.8332 116.963L92.7906 116.983C92.7666 116.994 92.7425 117.007 92.7184 117.016L92.6925 117.028C92.6425 117.05 92.6017 117.068 92.561 117.085L92.4832 117.118C92.298 117.2 92.1129 117.279 91.9277 117.355C91.8629 117.383 91.7962 117.409 91.7295 117.435L91.6518 117.466C91.4888 117.531 91.3258 117.594 91.1629 117.655C91.0647 117.692 90.9666 117.728 90.8684 117.765C90.7092 117.822 90.548 117.878 90.3888 117.933C90.2869 117.966 90.1906 118 90.0943 118.031L90.0314 118.052C90.0018 118.063 89.9703 118.072 89.9406 118.081C89.8925 118.096 89.8443 118.111 89.7943 118.124L89.6962 118.153C89.5332 118.203 89.3703 118.252 89.2073 118.298C89.0814 118.333 88.9555 118.368 88.8295 118.402C88.6666 118.444 88.5055 118.487 88.3425 118.526C88.2166 118.557 88.0888 118.587 87.961 118.616C87.798 118.653 87.6369 118.689 87.474 118.722C87.3462 118.748 87.2203 118.774 87.0925 118.798C86.9295 118.829 86.7647 118.857 86.5999 118.885L86.5573 118.892C86.4462 118.911 86.3369 118.929 86.2258 118.946C86.0573 118.972 85.8906 118.994 85.7221 119.015L85.6314 119.026C85.5406 119.037 85.4499 119.05 85.361 119.059C85.1869 119.079 85.0129 119.094 84.8388 119.111L84.7277 119.122C84.6499 119.129 84.574 119.137 84.4962 119.142C84.3036 119.157 84.1129 119.166 83.9221 119.176L83.8147 119.181C83.7555 119.185 83.6962 119.189 83.6369 119.19C83.3536 119.207 83.0647 119.213 82.7925 119.213ZM71.6203 114.813C72.3684 115.381 73.1777 115.89 74.0258 116.329C76.6147 117.67 79.6462 118.378 82.7943 118.378C83.0555 118.378 83.3332 118.372 83.6184 118.361C83.6721 118.359 83.7258 118.355 83.7795 118.352L83.8943 118.344C84.0795 118.335 84.2629 118.326 84.448 118.311C84.5203 118.305 84.5925 118.298 84.6647 118.292L84.7777 118.281C84.948 118.266 85.1147 118.25 85.2832 118.231C85.3684 118.222 85.4536 118.211 85.5406 118.2L85.6332 118.187C85.7943 118.166 85.9573 118.144 86.1184 118.12C86.224 118.103 86.3314 118.087 86.4369 118.068L86.4795 118.061C86.6388 118.035 86.7962 118.007 86.9536 117.978C87.0758 117.953 87.198 117.929 87.3221 117.903C87.4795 117.872 87.6351 117.837 87.7925 117.802C87.9147 117.774 88.0388 117.744 88.161 117.715C88.3184 117.676 88.474 117.635 88.6314 117.594C88.7536 117.561 88.8758 117.529 88.9962 117.494C89.1536 117.45 89.311 117.402 89.4684 117.353L89.5795 117.32C89.6221 117.307 89.6629 117.296 89.7036 117.283L89.8518 117.233C89.9443 117.203 90.0388 117.172 90.1314 117.14C90.2906 117.087 90.4462 117.033 90.5999 116.978C90.6943 116.942 90.7906 116.909 90.8851 116.872C91.0425 116.813 91.1999 116.752 91.3573 116.689L91.4369 116.657C91.4999 116.633 91.561 116.607 91.624 116.583C91.8036 116.509 91.9832 116.431 92.161 116.353L92.2462 116.316C92.2832 116.302 92.3184 116.285 92.3536 116.27L92.4351 116.233C92.4573 116.222 92.4777 116.213 92.4999 116.202C92.7647 116.079 93.0388 115.948 93.3147 115.811C93.4092 115.765 93.5018 115.716 93.5943 115.668C93.8369 115.542 94.0832 115.409 94.3295 115.272C94.3573 115.257 94.3851 115.242 94.4129 115.228C94.4369 115.215 94.461 115.202 94.4851 115.189L94.5462 115.152C94.848 114.979 95.1184 114.816 95.374 114.657C95.6314 114.496 95.9036 114.318 96.2036 114.113L96.2777 114.065C96.4499 113.946 96.6221 113.824 96.7943 113.7L96.9073 113.616C97.1443 113.442 97.3592 113.281 97.5629 113.12L97.6129 113.079C97.7277 112.989 97.8462 112.896 97.9647 112.8C98.0832 112.703 98.2036 112.605 98.3221 112.505C98.5129 112.344 98.6999 112.181 98.8851 112.016C98.924 111.983 98.961 111.948 98.9962 111.915L99.1295 111.792C99.2295 111.7 99.3314 111.609 99.4295 111.515C99.4314 111.513 99.4406 111.503 99.4443 111.502L99.5129 111.435C99.698 111.259 99.8851 111.074 100.085 110.87C100.144 110.809 100.204 110.748 100.263 110.687C100.439 110.503 100.613 110.318 100.781 110.131L100.88 110.024C101.074 109.805 101.274 109.576 101.487 109.318C101.53 109.268 101.57 109.218 101.611 109.166L101.631 109.142C101.811 108.922 101.983 108.703 102.141 108.498L102.217 108.4C102.407 108.148 102.604 107.874 102.817 107.565L102.928 107.402C103.12 107.118 103.302 106.835 103.472 106.561L103.505 106.509C103.526 106.476 103.546 106.44 103.567 106.405L103.618 106.318C103.685 106.207 103.752 106.096 103.817 105.985C103.859 105.911 103.902 105.837 103.942 105.761L103.97 105.711C104.031 105.6 104.094 105.489 104.154 105.378C104.204 105.285 104.252 105.194 104.3 105.102C104.357 104.99 104.415 104.879 104.47 104.766C104.517 104.672 104.563 104.579 104.609 104.485C104.663 104.374 104.717 104.261 104.768 104.148L104.839 104.002C104.881 103.907 104.924 103.813 104.967 103.716C105.281 103 105.554 102.279 105.776 101.572C106.704 98.6608 106.961 95.6349 106.522 92.8183C106.492 92.6294 106.457 92.4275 106.413 92.1979L106.378 92.022C106.342 91.8534 106.305 91.6868 106.267 91.5201L106.255 91.4738C106.244 91.4275 106.233 91.3794 106.222 91.3331C106.159 91.0849 106.104 90.8794 106.048 90.6886C105.972 90.4275 105.881 90.1534 105.765 89.8257C105.757 89.8016 105.75 89.7812 105.742 89.759C105.739 89.746 105.733 89.7312 105.73 89.7183C105.724 89.7034 105.718 89.6905 105.713 89.6775C105.704 89.6553 105.694 89.6312 105.685 89.609C105.581 89.3312 105.481 89.0775 105.378 88.8386L105.35 88.7701C105.242 88.522 105.117 88.2572 104.967 87.9609C104.957 87.9423 104.946 87.9201 104.937 87.8997L104.922 87.8664C104.913 87.8479 104.902 87.8275 104.891 87.809C104.878 87.7868 104.865 87.7627 104.852 87.7386C104.759 87.5627 104.665 87.3905 104.567 87.2183L104.526 87.146C104.5 87.0997 104.472 87.0516 104.444 87.0053C104.289 86.7442 104.146 86.5146 104.007 86.309C104.005 86.3072 104.004 86.3035 104.002 86.2997C103.874 86.109 103.741 85.9201 103.607 85.7368L102.013 83.5627C102.076 83.7497 102.13 83.922 102.178 84.0868C102.237 84.2886 102.296 84.5034 102.361 84.7627L102.409 84.959C102.45 85.1349 102.489 85.309 102.526 85.4849L102.565 85.6701C102.611 85.9072 102.648 86.1201 102.68 86.3238C103.137 89.2683 102.868 92.4257 101.904 95.4572C101.672 96.1923 101.389 96.9423 101.063 97.6831C101.004 97.8201 100.939 97.9572 100.876 98.0942L100.859 98.1312C100.805 98.2479 100.75 98.3646 100.694 98.4812C100.648 98.5775 100.6 98.6738 100.552 98.772C100.492 98.8886 100.433 99.0053 100.374 99.1201C100.324 99.2146 100.274 99.3109 100.224 99.4053C100.161 99.522 100.096 99.6368 100.031 99.7534L100.013 99.7868C99.9666 99.8701 99.9203 99.9516 99.8721 100.035C99.8055 100.152 99.7369 100.266 99.6666 100.381L99.648 100.413C99.6036 100.487 99.5592 100.561 99.5147 100.633C99.3406 100.916 99.1518 101.209 98.9518 101.503L98.8351 101.674C98.6166 101.992 98.4129 102.276 98.2129 102.54L98.1351 102.64C97.9703 102.857 97.7981 103.076 97.6092 103.307L97.4592 103.489C97.2406 103.753 97.0351 103.99 96.8314 104.216L96.7295 104.326C96.5536 104.518 96.3758 104.709 96.1925 104.9C96.1314 104.963 96.0703 105.026 96.0092 105.089C95.8055 105.296 95.6129 105.487 95.4184 105.672L95.3332 105.755C95.2295 105.853 95.124 105.95 95.0166 106.048L94.8962 106.159C94.8536 106.198 94.8129 106.237 94.7703 106.274C94.5795 106.444 94.3851 106.613 94.1869 106.779C93.9517 106.976 93.7129 107.17 93.4536 107.372L93.4036 107.413C93.1943 107.576 92.9721 107.744 92.7258 107.924L92.611 108.009C92.4073 108.157 92.2036 108.298 92.0018 108.437C91.6925 108.648 91.411 108.831 91.1443 109C90.8814 109.165 90.6018 109.331 90.2906 109.511C90.2443 109.537 90.198 109.563 90.1499 109.589L90.0647 109.637C89.8129 109.778 89.5573 109.916 89.3055 110.046C89.2092 110.096 89.1129 110.146 89.0166 110.194C88.7332 110.337 88.4518 110.472 88.1758 110.598L88.111 110.628C88.0832 110.64 88.0536 110.655 88.0258 110.668C87.9851 110.687 87.9443 110.703 87.9036 110.722L87.824 110.755C87.6388 110.837 87.4536 110.916 87.2684 110.992C87.1999 111.02 87.1314 111.048 87.061 111.076L86.9906 111.103C86.8277 111.168 86.6666 111.231 86.5017 111.292C86.4036 111.329 86.3055 111.365 86.2055 111.402C86.0462 111.459 85.8851 111.515 85.7258 111.568C85.6277 111.602 85.5295 111.635 85.4314 111.666C85.3166 111.703 85.1999 111.739 85.0851 111.774L85.0332 111.789C84.8703 111.839 84.7073 111.887 84.5443 111.933C84.4184 111.968 84.2906 112.003 84.1647 112.037C84.0036 112.079 83.8425 112.122 83.6795 112.161C83.5518 112.192 83.424 112.222 83.2962 112.252C83.1351 112.289 82.9721 112.324 82.811 112.357C82.6851 112.383 82.5573 112.409 82.4295 112.433C82.2647 112.465 82.1017 112.492 81.9369 112.52L81.8999 112.526C81.7869 112.544 81.674 112.563 81.561 112.581C81.3925 112.607 81.2258 112.629 81.0592 112.65L80.9703 112.661C80.8777 112.674 80.7869 112.685 80.6962 112.696C80.524 112.716 80.3518 112.731 80.1795 112.748L80.0647 112.759C79.9869 112.766 79.9092 112.774 79.8332 112.779C79.6425 112.794 79.4518 112.803 79.261 112.813L79.1518 112.818C79.0925 112.822 79.0332 112.826 78.974 112.828C78.6777 112.839 78.3906 112.844 78.1184 112.844C74.8369 112.844 71.674 112.103 68.9666 110.702C68.761 110.596 68.5592 110.485 68.3592 110.372L71.6203 114.813Z" fill="#F5F6F7"/>
<path d="M161.124 120.55C162.646 120.55 163.88 119.316 163.88 117.795C163.88 116.273 162.646 115.039 161.124 115.039C159.602 115.039 158.368 116.273 158.368 117.795C158.368 119.316 159.602 120.55 161.124 120.55Z" fill="#F5F6F7"/>
<path d="M45.2463 110.383C46.7681 110.383 48.0018 109.149 48.0018 107.628C48.0018 106.106 46.7681 104.872 45.2463 104.872C43.7244 104.872 42.4907 106.106 42.4907 107.628C42.4907 109.149 43.7244 110.383 45.2463 110.383Z" fill="#F5F6F7"/>
<path d="M46.6259 112.611C47.1618 112.611 47.5963 112.176 47.5963 111.64C47.5963 111.104 47.1618 110.67 46.6259 110.67C46.09 110.67 45.6555 111.104 45.6555 111.64C45.6555 112.176 46.09 112.611 46.6259 112.611Z" fill="#F5F6F7"/>
<path d="M60.2889 75.726C61.8107 75.726 63.0444 74.4922 63.0444 72.9704C63.0444 71.4485 61.8107 70.2148 60.2889 70.2148C58.767 70.2148 57.5333 71.4485 57.5333 72.9704C57.5333 74.4922 58.767 75.726 60.2889 75.726Z" fill="#F5F6F7"/>
<path d="M63.5093 71.1776C64.0452 71.1776 64.4797 70.7431 64.4797 70.2072C64.4797 69.6713 64.0452 69.2368 63.5093 69.2368C62.9734 69.2368 62.5389 69.6713 62.5389 70.2072C62.5389 70.7431 62.9734 71.1776 63.5093 71.1776Z" fill="#F5F6F7"/>
<path d="M168.2 61.2149C170.818 61.2149 172.941 59.0924 172.941 56.4741C172.941 53.8559 170.818 51.7334 168.2 51.7334C165.582 51.7334 163.459 53.8559 163.459 56.4741C163.459 59.0924 165.582 61.2149 168.2 61.2149Z" fill="#E6D8F3"/>
<path d="M163.459 54.133C164.706 54.133 165.717 53.1223 165.717 51.8756C165.717 50.6288 164.706 49.6182 163.459 49.6182C162.212 49.6182 161.202 50.6288 161.202 51.8756C161.202 53.1223 162.212 54.133 163.459 54.133Z" fill="#F5F6F7"/>
</svg>
