<svg width="18" height="18" viewBox="0 0 18 18" fill="none" xmlns="http://www.w3.org/2000/svg">
<path d="M9.00078 2.69999C8.64274 2.69999 8.29936 2.84222 8.04619 3.09539C7.79301 3.34857 7.65078 3.69195 7.65078 4.04999C7.65078 4.40803 7.79301 4.75141 8.04619 5.00458C8.29936 5.25776 8.64274 5.39999 9.00078 5.39999C9.35882 5.39999 9.7022 5.25776 9.95538 5.00458C10.2085 4.75141 10.3508 4.40803 10.3508 4.04999C10.3508 3.69195 10.2085 3.34857 9.95538 3.09539C9.7022 2.84222 9.35882 2.69999 9.00078 2.69999ZM6.75078 4.04999C6.75078 3.45325 6.98783 2.88095 7.40979 2.459C7.83175 2.03704 8.40404 1.79999 9.00078 1.79999C9.59752 1.79999 10.1698 2.03704 10.5918 2.459C11.0137 2.88095 11.2508 3.45325 11.2508 4.04999C11.2508 4.64672 11.0137 5.21902 10.5918 5.64098C10.1698 6.06293 9.59752 6.29999 9.00078 6.29999C8.40404 6.29999 7.83175 6.06293 7.40979 5.64098C6.98783 5.21902 6.75078 4.64672 6.75078 4.04999ZM13.9508 3.59999C13.7121 3.59999 13.4832 3.69481 13.3144 3.86359C13.1456 4.03237 13.0508 4.26129 13.0508 4.49999C13.0508 4.73868 13.1456 4.9676 13.3144 5.13638C13.4832 5.30517 13.7121 5.39999 13.9508 5.39999C14.1895 5.39999 14.4184 5.30517 14.5872 5.13638C14.756 4.9676 14.8508 4.73868 14.8508 4.49999C14.8508 4.26129 14.756 4.03237 14.5872 3.86359C14.4184 3.69481 14.1895 3.59999 13.9508 3.59999ZM12.1508 4.49999C12.1508 4.0226 12.3404 3.56476 12.678 3.2272C13.0156 2.88963 13.4734 2.69999 13.9508 2.69999C14.4282 2.69999 14.886 2.88963 15.2236 3.2272C15.5611 3.56476 15.7508 4.0226 15.7508 4.49999C15.7508 4.97738 15.5611 5.43521 15.2236 5.77278C14.886 6.11035 14.4282 6.29999 13.9508 6.29999C13.4734 6.29999 13.0156 6.11035 12.678 5.77278C12.3404 5.43521 12.1508 4.97738 12.1508 4.49999ZM3.15078 4.49999C3.15078 4.26129 3.2456 4.03237 3.41439 3.86359C3.58317 3.69481 3.81209 3.59999 4.05078 3.59999C4.28948 3.59999 4.51839 3.69481 4.68718 3.86359C4.85596 4.03237 4.95078 4.26129 4.95078 4.49999C4.95078 4.73868 4.85596 4.9676 4.68718 5.13638C4.51839 5.30517 4.28948 5.39999 4.05078 5.39999C3.81209 5.39999 3.58317 5.30517 3.41439 5.13638C3.2456 4.9676 3.15078 4.73868 3.15078 4.49999ZM4.05078 2.69999C3.57339 2.69999 3.11555 2.88963 2.77799 3.2272C2.44042 3.56476 2.25078 4.0226 2.25078 4.49999C2.25078 4.97738 2.44042 5.43521 2.77799 5.77278C3.11555 6.11035 3.57339 6.29999 4.05078 6.29999C4.52817 6.29999 4.98601 6.11035 5.32357 5.77278C5.66114 5.43521 5.85078 4.97738 5.85078 4.49999C5.85078 4.0226 5.66114 3.56476 5.32357 3.2272C4.98601 2.88963 4.52817 2.69999 4.05078 2.69999ZM4.59078 13.4982L4.50078 13.5C4.02339 13.5 3.56555 13.3103 3.22799 12.9728C2.89042 12.6352 2.70078 12.1774 2.70078 11.7V8.32499C2.70078 8.26531 2.72449 8.20808 2.76668 8.16589C2.80888 8.12369 2.86611 8.09999 2.92578 8.09999H4.51338C4.54938 7.76969 4.66638 7.46279 4.84188 7.19999H2.92578C2.30478 7.19999 1.80078 7.70399 1.80078 8.32499V11.7C1.80074 12.0853 1.88317 12.4661 2.04252 12.817C2.20188 13.1678 2.43448 13.4804 2.72468 13.7339C3.01489 13.9873 3.35598 14.1757 3.72504 14.2864C4.0941 14.3971 4.48258 14.4276 4.86438 14.3757C4.74347 14.0933 4.65179 13.7993 4.59078 13.4982ZM13.1372 14.3757C13.256 14.3919 13.3772 14.4 13.5008 14.4C14.2169 14.4 14.9036 14.1155 15.41 13.6092C15.9163 13.1028 16.2008 12.4161 16.2008 11.7V8.32499C16.2008 7.70399 15.6968 7.19999 15.0758 7.19999H13.1597C13.3361 7.46279 13.4522 7.76969 13.4882 8.09999H15.0758C15.1355 8.09999 15.1927 8.12369 15.2349 8.16589C15.2771 8.20808 15.3008 8.26531 15.3008 8.32499V11.7C15.3008 11.944 15.2513 12.1854 15.1552 12.4097C15.059 12.634 14.9183 12.8363 14.7415 13.0045C14.5647 13.1727 14.3556 13.3032 14.1269 13.388C13.8981 13.4729 13.6545 13.5104 13.4108 13.4982C13.3498 13.7993 13.2581 14.0933 13.1372 14.3757ZM6.52578 7.19999C5.90478 7.19999 5.40078 7.70399 5.40078 8.32499V12.6C5.40078 13.5548 5.78007 14.4704 6.4552 15.1456C7.13033 15.8207 8.046 16.2 9.00078 16.2C9.95556 16.2 10.8712 15.8207 11.5464 15.1456C12.2215 14.4704 12.6008 13.5548 12.6008 12.6V8.32499C12.6008 7.70399 12.0968 7.19999 11.4758 7.19999H6.52578ZM6.30078 8.32499C6.30078 8.26531 6.32449 8.20808 6.36668 8.16589C6.40888 8.12369 6.46611 8.09999 6.52578 8.09999H11.4758C11.5355 8.09999 11.5927 8.12369 11.6349 8.16589C11.6771 8.20808 11.7008 8.26531 11.7008 8.32499V12.6C11.7008 13.3161 11.4163 14.0028 10.91 14.5092C10.4036 15.0155 9.71687 15.3 9.00078 15.3C8.2847 15.3 7.59794 15.0155 7.09159 14.5092C6.58524 14.0028 6.30078 13.3161 6.30078 12.6V8.32499Z" fill="#7F8C9F"/>
</svg>
