<svg width="16" height="16" viewBox="0 0 16 16" fill="none" xmlns="http://www.w3.org/2000/svg">
<path d="M15.9566 7.99979C15.9566 12.3948 12.3938 15.9577 7.99887 15.9577C3.60384 15.9577 0.0410156 12.3948 0.0410156 7.99979C0.0410156 3.60482 3.60384 0.0419922 7.99887 0.0419922C12.3938 0.0419922 15.9566 3.60482 15.9566 7.99979Z" fill="#00A478"/>
<path d="M7.18267 7.86055V6.46836H5.29443V5.24805H10.5709V6.48555H8.68267V7.86055H7.18267Z" fill="white"/>
<path d="M7.88916 7.17236C9.77723 7.17241 11.2944 7.55013 11.2944 8.01416C11.2942 8.47815 9.77709 8.85591 7.88916 8.85596C6.00106 8.85596 4.48312 8.47818 4.48291 8.01416C4.48291 7.5501 6.00092 7.17236 7.88916 7.17236ZM7.88818 7.31006C5.91203 7.31014 4.88866 7.82609 4.76514 8.01514C4.88866 8.187 5.91203 8.44478 7.88818 8.44482C9.8823 8.44482 10.8887 8.18701 11.0122 8.01514C10.8887 7.84326 9.86465 7.31006 7.88818 7.31006Z" fill="white"/>
<path d="M8.68255 8.28984V7.32734C8.43549 7.31016 8.17078 7.29297 7.90608 7.29297C7.65902 7.29297 7.42961 7.29297 7.2002 7.31016V8.27266C7.41196 8.27266 7.65902 8.28984 7.90608 8.28984C8.17078 8.30703 8.43549 8.30703 8.68255 8.28984Z" fill="white"/>
<path d="M7.8885 8.85664C7.64144 8.85664 7.41203 8.85664 7.18262 8.83945V11.4004H8.66497V8.82227C8.41791 8.83945 8.15321 8.85664 7.8885 8.85664Z" fill="white"/>
</svg>
