<svg width="36" height="36" viewBox="0 0 36 36" fill="none" xmlns="http://www.w3.org/2000/svg">
<path d="M35.9019 18.0008C35.9019 27.8896 27.8856 35.906 17.997 35.906C8.10816 35.906 0.0917969 27.8896 0.0917969 18.0008C0.0917969 8.11207 8.10816 0.0957031 17.997 0.0957031C27.8855 0.0957031 35.9019 8.11207 35.9019 18.0008Z" fill="#00A478"/>
<path d="M16.1626 17.6867V14.5543H11.9141V11.8086H23.7861V14.593H19.5376V17.6867H16.1626Z" fill="white"/>
<path d="M17.75 16.1406C21.9983 16.1407 25.4131 16.9911 25.4131 18.0352C25.4131 19.0793 21.9983 19.9296 17.75 19.9297C13.5015 19.9297 10.0859 19.0793 10.0859 18.0352C10.0859 16.991 13.5015 16.1406 17.75 16.1406ZM17.751 16.4492C13.3039 16.4492 11.0006 17.6098 10.7227 18.0352C11.0006 18.4219 13.3039 19.002 17.751 19.002C22.2371 19.0019 24.5001 18.4219 24.7783 18.0352C24.5001 17.6483 22.1974 16.4493 17.751 16.4492Z" fill="white"/>
<path d="M19.5345 18.6531V16.4875C18.9786 16.4488 18.383 16.4102 17.7875 16.4102C17.2316 16.4102 16.7154 16.4102 16.1992 16.4488V18.6145C16.6757 18.6145 17.2316 18.6531 17.7875 18.6531C18.383 18.6918 18.9786 18.6918 19.5345 18.6531Z" fill="white"/>
<path d="M17.7503 19.9309C17.1945 19.9309 16.6783 19.9309 16.1621 19.8922V25.6543H19.4974V19.8535C18.9415 19.8922 18.3459 19.9309 17.7503 19.9309Z" fill="white"/>
</svg>
