<svg width="128" height="80" viewBox="0 0 128 80" fill="none" xmlns="http://www.w3.org/2000/svg">
<g clip-path="url(#clip0_144_16139)">
<path d="M0 8C0 3.58172 3.58172 0 8 0H120C124.418 0 128 3.58172 128 8V72C128 76.4183 124.418 80 120 80H8C3.58172 80 0 76.4183 0 72V8Z" fill="#F5F6F7"/>
<rect width="128" height="17.7778" fill="white"/>
<rect width="56.8889" height="58.6667" transform="translate(35.5547 21.3334)" fill="white"/>
<rect x="37.332" y="23.1112" width="53.3333" height="7.11111" rx="1.77778" fill="#F5F6F7"/>
<rect x="37.332" y="33.7778" width="53.3333" height="7.11111" rx="1.77778" fill="#F5F6F7"/>
<rect x="37.332" y="44.4445" width="53.3333" height="21.3333" rx="3.55556" fill="#F5F6F7"/>
</g>
<path d="M8 0.888672H120C123.927 0.888672 127.111 4.07264 127.111 8V72C127.111 75.9274 123.927 79.1113 120 79.1113H8C4.07264 79.1113 0.888672 75.9274 0.888672 72V8C0.888673 4.07264 4.07264 0.888672 8 0.888672Z" stroke="#5E2A8C" stroke-width="1.77778"/>
<defs>
<clipPath id="clip0_144_16139">
<path d="M0 8C0 3.58172 3.58172 0 8 0H120C124.418 0 128 3.58172 128 8V72C128 76.4183 124.418 80 120 80H8C3.58172 80 0 76.4183 0 72V8Z" fill="white"/>
</clipPath>
</defs>
</svg>
