<svg width="36" height="36" viewBox="0 0 36 36" fill="none" xmlns="http://www.w3.org/2000/svg">
<g clip-path="url(#clip0_1714_50039)">
<path d="M18 36C27.9751 36 36 27.9751 36 18C36 8.02494 27.9751 0 18 0C8.02494 0 0 8.02494 0 18C0 27.9751 8.02494 36 18 36Z" fill="#2775CA"/>
<path d="M22.9503 20.8504C22.9503 18.2255 21.3753 17.3254 18.2253 16.9505C15.9753 16.6505 15.5253 16.0505 15.5253 15.0004C15.5253 13.9503 16.2754 13.2755 17.7753 13.2755C19.1253 13.2755 19.8754 13.7255 20.2503 14.8505C20.3254 15.0755 20.5504 15.2254 20.7754 15.2254H21.9753C22.2753 15.2254 22.5003 15.0004 22.5003 14.7005V14.6255C22.2003 12.9754 20.8503 11.7005 19.1253 11.5505V9.75051C19.1253 9.45045 18.9003 9.22545 18.5254 9.15039H17.4004C17.1003 9.15039 16.8753 9.37539 16.8003 9.75051V11.4755C14.5503 11.7755 13.1254 13.2755 13.1254 15.1505C13.1254 17.6255 14.6253 18.6004 17.7753 18.9755C19.8754 19.3505 20.5504 19.8005 20.5504 21.0005C20.5504 22.2006 19.5003 23.0255 18.0754 23.0255C16.1253 23.0255 15.4503 22.2004 15.2253 21.0754C15.1504 20.7755 14.9254 20.6254 14.7004 20.6254H13.4253C13.1254 20.6254 12.9004 20.8504 12.9004 21.1505V21.2255C13.2003 23.1004 14.4003 24.4504 16.8753 24.8255V26.6255C16.8753 26.9254 17.1003 27.1504 17.4753 27.2255H18.6003C18.9003 27.2255 19.1253 27.0005 19.2004 26.6255V24.8255C21.4504 24.4504 22.9503 22.8754 22.9503 20.8504Z" fill="white"/>
<path d="M14.1745 28.7249C8.32451 26.625 5.32445 20.1 7.49957 14.3249C8.62457 11.1749 11.0996 8.77494 14.1745 7.64994C14.4746 7.5 14.6245 7.275 14.6245 6.89988V5.84994C14.6245 5.54988 14.4746 5.32488 14.1745 5.25C14.0994 5.25 13.9495 5.25 13.8744 5.32488C6.74951 7.57488 2.84945 15.15 5.09945 22.2749C6.44945 26.4749 9.67451 29.6999 13.8744 31.0499C14.1745 31.1999 14.4746 31.0499 14.5494 30.7499C14.6245 30.675 14.6245 30.5999 14.6245 30.45V29.3999C14.6245 29.1749 14.3995 28.875 14.1745 28.7249ZM22.1246 5.32488C21.8245 5.17494 21.5244 5.32488 21.4496 5.62494C21.3745 5.7 21.3745 5.77488 21.3745 5.925V6.97494C21.3745 7.275 21.5995 7.57488 21.8245 7.725C27.6745 9.82488 30.6746 16.3499 28.4994 22.125C27.3744 25.275 24.8994 27.6749 21.8245 28.7999C21.5244 28.9499 21.3745 29.1749 21.3745 29.55V30.5999C21.3745 30.9 21.5244 31.125 21.8245 31.1999C21.8996 31.1999 22.0495 31.1999 22.1246 31.125C29.2495 28.875 33.1496 21.2999 30.8996 14.1749C29.5496 9.89994 26.2494 6.67488 22.1246 5.32488Z" fill="white"/>
</g>
<defs>
<clipPath id="clip0_1714_50039">
<rect width="36" height="36" fill="white"/>
</clipPath>
</defs>
</svg>
