<svg width="16" height="16" viewBox="0 0 16 16" fill="none" xmlns="http://www.w3.org/2000/svg">
<path d="M12.0929 14.4125C11.5062 14.5858 10.8129 14.6659 9.99958 14.6659H5.99958C5.18625 14.6659 4.49292 14.5858 3.90625 14.4125C4.05292 12.6792 5.83292 11.3125 7.99958 11.3125C10.1662 11.3125 11.9462 12.6792 12.0929 14.4125Z" stroke="#5A42DE" stroke-linecap="round" stroke-linejoin="round"/>
<path d="M9.9987 1.33398H5.9987C2.66536 1.33398 1.33203 2.66732 1.33203 6.00065V10.0007C1.33203 12.5207 2.09203 13.9006 3.90536 14.414C4.05203 12.6806 5.83203 11.314 7.9987 11.314C10.1654 11.314 11.9454 12.6806 12.092 14.414C13.9054 13.9006 14.6654 12.5207 14.6654 10.0007V6.00065C14.6654 2.66732 13.332 1.33398 9.9987 1.33398ZM7.9987 9.44731C6.6787 9.44731 5.61203 8.374 5.61203 7.054C5.61203 5.734 6.6787 4.66732 7.9987 4.66732C9.3187 4.66732 10.3854 5.734 10.3854 7.054C10.3854 8.374 9.3187 9.44731 7.9987 9.44731Z" stroke="#5A42DE" stroke-linecap="round" stroke-linejoin="round"/>
<path d="M10.3866 7.05269C10.3866 8.37269 9.31995 9.446 7.99995 9.446C6.67995 9.446 5.61328 8.37269 5.61328 7.05269C5.61328 5.73269 6.67995 4.66602 7.99995 4.66602C9.31995 4.66602 10.3866 5.73269 10.3866 7.05269Z" stroke="#5A42DE" stroke-linecap="round" stroke-linejoin="round"/>
</svg>
